octicons.ufo
<glyph name="heart" format="2">
  <advance width="2048"/>
  <unicode hex="2665"/>
  <note>
heart
</note>
  <outline>
    <contour>
      <point x="1068" y="-271" type="line"/>
      <point x="1069" y="-271" type="line"/>
      <point x="1071" y="-269" type="line"/>
      <point x="1328" y="-129"/>
      <point x="1551" y="61" type="qcurve" smooth="yes"/>
      <point x="1627" y="127"/>
      <point x="1760" y="263"/>
      <point x="1894" y="439"/>
      <point x="1989" y="616"/>
      <point x="2048" y="829"/>
      <point x="2048" y="934" type="qcurve" smooth="yes"/>
      <point x="2048" y="1058"/>
      <point x="1956" y="1276"/>
      <point x="1804" y="1425"/>
      <point x="1608" y="1510"/>
      <point x="1504" y="1510" type="qcurve" smooth="yes"/>
      <point x="1359" y="1510"/>
      <point x="1107" y="1371"/>
      <point x="1024" y="1251" type="qcurve"/>
      <point x="941" y="1371"/>
      <point x="689" y="1510"/>
      <point x="544" y="1510" type="qcurve" smooth="yes"/>
      <point x="440" y="1510"/>
      <point x="244" y="1425"/>
      <point x="92" y="1276"/>
      <point x="0" y="1058"/>
      <point x="0" y="934" type="qcurve" smooth="yes"/>
      <point x="0" y="829"/>
      <point x="59" y="616"/>
      <point x="154" y="439"/>
      <point x="288" y="263"/>
      <point x="421" y="127"/>
      <point x="497" y="61" type="qcurve" smooth="yes"/>
      <point x="702" y="-114"/>
      <point x="937" y="-248" type="qcurve" smooth="yes"/>
      <point x="956" y="-259"/>
      <point x="977" y="-269" type="qcurve"/>
      <point x="979" y="-271" type="line"/>
      <point x="980" y="-271" type="line"/>
      <point x="1000" y="-282"/>
      <point x="1048" y="-282"/>
      <point x="1068" y="-271" type="qcurve"/>
      <point x="1024" y="-186" type="line"/>
    </contour>
    <contour>
      <point x="676" y="1318"/>
      <point x="892" y="1144"/>
      <point x="932" y="1004" type="qcurve" smooth="yes"/>
      <point x="940" y="973"/>
      <point x="991" y="934"/>
      <point x="1057" y="934"/>
      <point x="1108" y="973"/>
      <point x="1116" y="1004" type="qcurve" smooth="yes"/>
      <point x="1156" y="1144"/>
      <point x="1372" y="1318"/>
      <point x="1504" y="1318" type="qcurve" smooth="yes"/>
      <point x="1568" y="1318"/>
      <point x="1694" y="1263"/>
      <point x="1794" y="1166"/>
      <point x="1856" y="1019"/>
      <point x="1856" y="934" type="qcurve" smooth="yes"/>
      <point x="1856" y="835"/>
      <point x="1787" y="632"/>
      <point x="1664" y="447"/>
      <point x="1516" y="285"/>
      <point x="1425" y="207" type="qcurve" smooth="yes"/>
      <point x="1238" y="46"/>
      <point x="1024" y="-76" type="qcurve"/>
      <point x="810" y="46"/>
      <point x="623" y="207" type="qcurve" smooth="yes"/>
      <point x="532" y="285"/>
      <point x="384" y="447"/>
      <point x="261" y="632"/>
      <point x="192" y="835"/>
      <point x="192" y="934" type="qcurve" smooth="yes"/>
      <point x="192" y="1019"/>
      <point x="254" y="1166"/>
      <point x="354" y="1263"/>
      <point x="480" y="1318"/>
      <point x="544" y="1318" type="qcurve" smooth="yes"/>
    </contour>
  </outline>
</glyph>
<glyph name="zap" format="2">
  <advance width="2048"/>
  <unicode hex="26A1"/>
  <note>
zap
</note>
  <outline>
    <contour>
      <point x="1216" y="1583" type="line"/>
      <point x="287" y="679" type="line" smooth="yes"/>
      <point x="252" y="645"/>
      <point x="218" y="558"/>
      <point x="219" y="474"/>
      <point x="252" y="393"/>
      <point x="310" y="332"/>
      <point x="394" y="294"/>
      <point x="443" y="294" type="qcurve" smooth="yes"/>
      <point x="721" y="294" type="line"/>
      <point x="672" y="173" type="line" smooth="yes"/>
      <point x="622" y="52"/>
      <point x="523" y="-190"/>
      <point x="523" y="-189" type="qcurve"/>
      <point x="511" y="-219"/>
      <point x="511" y="-250" type="qcurve" smooth="yes"/>
      <point x="511" y="-316"/>
      <point x="605" y="-410"/>
      <point x="671" y="-410" type="qcurve" smooth="yes"/>
      <point x="681" y="-410" type="line" smooth="yes"/>
      <point x="691" y="-410"/>
      <point x="710" y="-410"/>
      <point x="710" y="-410" type="qcurve"/>
      <point x="775" y="-410"/>
      <point x="822" y="-365" type="qcurve" smooth="yes"/>
      <point x="1761" y="549" type="line" smooth="yes"/>
      <point x="1796" y="583"/>
      <point x="1830" y="670"/>
      <point x="1829" y="754"/>
      <point x="1796" y="835"/>
      <point x="1738" y="896"/>
      <point x="1654" y="934"/>
      <point x="1605" y="934" type="qcurve" smooth="yes"/>
      <point x="1333" y="934" type="line"/>
      <point x="1382" y="1041" type="line" smooth="yes"/>
      <point x="1431" y="1149"/>
      <point x="1528" y="1364"/>
      <point x="1528" y="1364" type="qcurve"/>
      <point x="1546" y="1402"/>
      <point x="1546" y="1444" type="qcurve" smooth="yes"/>
      <point x="1546" y="1524"/>
      <point x="1432" y="1638"/>
      <point x="1352" y="1638" type="qcurve" smooth="yes"/>
      <point x="1273" y="1638"/>
      <point x="1217" y="1583" type="qcurve"/>
    </contour>
    <contour>
      <point x="1351" y="1446"/>
      <point x="1352" y="1446" type="qcurve" smooth="yes"/>
      <point x="1353" y="1446" type="line"/>
      <point x="1353" y="1445" type="line"/>
      <point x="1354" y="1445"/>
      <point x="1354" y="1444" type="qcurve" smooth="yes"/>
      <point x="1354" y="1443" type="line"/>
      <point x="1289" y="1302" type="line" smooth="yes"/>
      <point x="1225" y="1160"/>
      <point x="1097" y="878"/>
      <point x="1097" y="878" type="qcurve"/>
      <point x="1088" y="859"/>
      <point x="1088" y="838" type="qcurve" smooth="yes"/>
      <point x="1088" y="798"/>
      <point x="1144" y="742"/>
      <point x="1184" y="742" type="qcurve" smooth="yes"/>
      <point x="1289" y="742" type="line" smooth="yes"/>
      <point x="1394" y="742"/>
      <point x="1605" y="742"/>
      <point x="1605" y="742" type="qcurve"/>
      <point x="1618" y="742"/>
      <point x="1637" y="723"/>
      <point x="1637" y="710" type="qcurve" smooth="yes"/>
      <point x="1637" y="697"/>
      <point x="1627" y="687" type="qcurve" smooth="yes"/>
      <point x="734" y="-182" type="line"/>
      <point x="788" y="-48" type="line" smooth="yes"/>
      <point x="843" y="86"/>
      <point x="953" y="354"/>
      <point x="953" y="354" type="qcurve"/>
      <point x="960" y="371"/>
      <point x="960" y="390" type="qcurve" smooth="yes"/>
      <point x="960" y="430"/>
      <point x="904" y="486"/>
      <point x="864" y="486" type="qcurve" smooth="yes"/>
      <point x="759" y="486" type="line" smooth="yes"/>
      <point x="654" y="486"/>
      <point x="443" y="486"/>
      <point x="443" y="486" type="qcurve"/>
      <point x="430" y="486"/>
      <point x="411" y="505"/>
      <point x="411" y="518" type="qcurve" smooth="yes"/>
      <point x="411" y="531"/>
      <point x="421" y="541" type="qcurve" smooth="yes"/>
      <point x="1351" y="1445" type="line"/>
    </contour>
  </outline>
</glyph>
<glyph name="light-bulb" format="2">
  <advance width="2048"/>
  <unicode hex="F400"/>
  <note>
light-bulb
</note>
  <outline>
    <contour>
      <point x="1536" y="1167"/>
      <point x="1536" y="966" type="qcurve" smooth="yes"/>
      <point x="1536" y="879"/>
      <point x="1473" y="747"/>
      <point x="1410" y="671" type="qcurve" smooth="yes"/>
      <point x="1400" y="659"/>
      <point x="1383" y="639" type="qcurve" smooth="yes"/>
      <point x="1322" y="567"/>
      <point x="1297" y="530" type="qcurve" smooth="yes"/>
      <point x="1230" y="435"/>
      <point x="1217" y="340" type="qcurve"/>
      <point x="1217" y="335"/>
      <point x="1217" y="331" type="qcurve" smooth="yes"/>
      <point x="1217" y="291"/>
      <point x="1273" y="235"/>
      <point x="1313" y="235" type="qcurve" smooth="yes"/>
      <point x="1348" y="235"/>
      <point x="1401" y="279"/>
      <point x="1407" y="312" type="qcurve" smooth="yes"/>
      <point x="1414" y="363"/>
      <point x="1454" y="421" type="qcurve" smooth="yes"/>
      <point x="1475" y="450"/>
      <point x="1524" y="508" type="qcurve" smooth="yes"/>
      <point x="1545" y="534"/>
      <point x="1558" y="549" type="qcurve" smooth="yes"/>
      <point x="1594" y="593"/>
      <point x="1645" y="666"/>
      <point x="1699" y="772"/>
      <point x="1728" y="897"/>
      <point x="1728" y="966" type="qcurve" smooth="yes"/>
      <point x="1728" y="1105"/>
      <point x="1620" y="1354"/>
      <point x="1434" y="1533"/>
      <point x="1172" y="1638"/>
      <point x="876" y="1638"/>
      <point x="614" y="1533"/>
      <point x="428" y="1354"/>
      <point x="320" y="1105"/>
      <point x="320" y="966" type="qcurve" smooth="yes"/>
      <point x="320" y="897"/>
      <point x="349" y="772"/>
      <point x="403" y="666"/>
      <point x="454" y="593"/>
      <point x="490" y="549" type="qcurve" smooth="yes"/>
      <point x="496" y="542"/>
      <point x="524" y="508" type="qcurve" smooth="yes"/>
      <point x="561" y="466"/>
      <point x="594" y="421" type="qcurve" smooth="yes"/>
      <point x="634" y="363"/>
      <point x="641" y="312" type="qcurve" smooth="yes"/>
      <point x="647" y="279"/>
      <point x="700" y="233"/>
      <point x="735" y="233" type="qcurve" smooth="yes"/>
      <point x="775" y="233"/>
      <point x="831" y="290"/>
      <point x="831" y="329" type="qcurve" smooth="yes"/>
      <point x="831" y="334"/>
      <point x="831" y="339" type="qcurve"/>
      <point x="818" y="435"/>
      <point x="751" y="530" type="qcurve" smooth="yes"/>
      <point x="726" y="567"/>
      <point x="665" y="639" type="qcurve" smooth="yes"/>
      <point x="638" y="671" type="line" smooth="yes"/>
      <point x="575" y="747"/>
      <point x="512" y="879"/>
      <point x="512" y="966" type="qcurve" smooth="yes"/>
      <point x="512" y="1167"/>
      <point x="801" y="1446"/>
      <point x="1247" y="1446"/>
    </contour>
    <contour>
      <point x="696" y="102"/>
      <point x="640" y="46"/>
      <point x="640" y="-34"/>
      <point x="696" y="-90"/>
      <point x="736" y="-90" type="qcurve" smooth="yes"/>
      <point x="1312" y="-90" type="line" smooth="yes"/>
      <point x="1352" y="-90"/>
      <point x="1408" y="-34"/>
      <point x="1408" y="46"/>
      <point x="1352" y="102"/>
      <point x="1312" y="102" type="qcurve" smooth="yes"/>
      <point x="736" y="102" type="line" smooth="yes"/>
    </contour>
    <contour>
      <point x="824" y="-410"/>
      <point x="864" y="-410" type="qcurve" smooth="yes"/>
      <point x="1184" y="-410" type="line" smooth="yes"/>
      <point x="1224" y="-410"/>
      <point x="1280" y="-354"/>
      <point x="1280" y="-274"/>
      <point x="1224" y="-218"/>
      <point x="1184" y="-218" type="qcurve" smooth="yes"/>
      <point x="864" y="-218" type="line" smooth="yes"/>
      <point x="824" y="-218"/>
      <point x="768" y="-274"/>
      <point x="768" y="-354"/>
    </contour>
  </outline>
</glyph>
<glyph name="repo" format="2">
  <advance width="2048"/>
  <unicode hex="F401"/>
  <note>
repo
</note>
  <outline>
    <contour>
      <point x="256" y="1030" type="line" smooth="yes"/>
      <point x="256" y="742"/>
      <point x="256" y="454" type="qcurve" smooth="yes"/>
      <point x="256" y="166" type="line" smooth="yes"/>
      <point x="256" y="35"/>
      <point x="347" y="-58" type="qcurve" smooth="yes"/>
      <point x="376" y="-87"/>
      <point x="416" y="-87" type="qcurve" smooth="yes"/>
      <point x="456" y="-87"/>
      <point x="512" y="-31"/>
      <point x="512" y="9" type="qcurve" smooth="yes"/>
      <point x="512" y="48"/>
      <point x="485" y="76" type="qcurve" smooth="yes"/>
      <point x="448" y="114"/>
      <point x="448" y="166" type="qcurve" smooth="yes"/>
      <point x="448" y="219"/>
      <point x="523" y="294"/>
      <point x="576" y="294" type="qcurve" smooth="yes"/>
      <point x="1600" y="294" type="line"/>
      <point x="1600" y="38" type="line"/>
      <point x="1376" y="38" type="line" smooth="yes"/>
      <point x="1336" y="38"/>
      <point x="1280" y="-18"/>
      <point x="1280" y="-98"/>
      <point x="1336" y="-154"/>
      <point x="1376" y="-154" type="qcurve" smooth="yes"/>
      <point x="1696" y="-154" type="line" smooth="yes"/>
      <point x="1736" y="-154"/>
      <point x="1792" y="-98"/>
      <point x="1792" y="-58" type="qcurve" smooth="yes"/>
      <point x="1792" y="1542" type="line" smooth="yes"/>
      <point x="1792" y="1582"/>
      <point x="1736" y="1638"/>
      <point x="1696" y="1638" type="qcurve" smooth="yes"/>
      <point x="576" y="1638" type="line" smooth="yes"/>
      <point x="444" y="1638"/>
      <point x="256" y="1450"/>
      <point x="256" y="1318" type="qcurve" smooth="yes"/>
    </contour>
    <contour>
      <point x="1600" y="486" type="line"/>
      <point x="1344" y="486" type="line" smooth="yes"/>
      <point x="1088" y="486"/>
      <point x="832" y="486" type="qcurve" smooth="yes"/>
      <point x="576" y="486" type="line" smooth="yes"/>
      <point x="575" y="486"/>
      <point x="575" y="486" type="qcurve"/>
      <point x="509" y="486"/>
      <point x="448" y="459" type="qcurve"/>
      <point x="448" y="1318" type="line" smooth="yes"/>
      <point x="448" y="1371"/>
      <point x="523" y="1446"/>
      <point x="576" y="1446" type="qcurve" smooth="yes"/>
      <point x="1600" y="1446" type="line"/>
    </contour>
    <contour>
      <point x="640" y="-346" type="line" smooth="yes"/>
      <point x="640" y="-359"/>
      <point x="659" y="-378"/>
      <point x="672" y="-378" type="qcurve" smooth="yes"/>
      <point x="683" y="-378"/>
      <point x="691" y="-372" type="qcurve" smooth="yes"/>
      <point x="738" y="-337" type="line" smooth="yes"/>
      <point x="784" y="-302"/>
      <point x="877" y="-232"/>
      <point x="877" y="-232" type="qcurve"/>
      <point x="885" y="-226"/>
      <point x="907" y="-226"/>
      <point x="915" y="-232" type="qcurve" smooth="yes"/>
      <point x="934" y="-247" type="line" smooth="yes"/>
      <point x="953" y="-261"/>
      <point x="1008" y="-302"/>
      <point x="1063" y="-343"/>
      <point x="1101" y="-372"/>
      <point x="1101" y="-372" type="qcurve"/>
      <point x="1109" y="-378"/>
      <point x="1120" y="-378" type="qcurve" smooth="yes"/>
      <point x="1133" y="-378"/>
      <point x="1152" y="-359"/>
      <point x="1152" y="-346" type="qcurve" smooth="yes"/>
      <point x="1152" y="70" type="line" smooth="yes"/>
      <point x="1152" y="83"/>
      <point x="1133" y="102"/>
      <point x="1120" y="102" type="qcurve" smooth="yes"/>
      <point x="672" y="102" type="line" smooth="yes"/>
      <point x="659" y="102"/>
      <point x="640" y="83"/>
      <point x="640" y="70" type="qcurve" smooth="yes"/>
    </contour>
  </outline>
</glyph>
<glyph name="repo-forked" format="2">
  <advance width="2048"/>
  <unicode hex="F402"/>
  <note>
repo-forked
</note>
  <outline>
    <contour>
      <point x="725" y="980"/>
      <point x="832" y="1129"/>
      <point x="832" y="1222" type="qcurve" smooth="yes"/>
      <point x="832" y="1341"/>
      <point x="663" y="1510"/>
      <point x="425" y="1510"/>
      <point x="256" y="1341"/>
      <point x="256" y="1222" type="qcurve" smooth="yes"/>
      <point x="256" y="1129"/>
      <point x="363" y="980"/>
      <point x="448" y="950" type="qcurve"/>
      <point x="448" y="838" type="line" smooth="yes"/>
      <point x="448" y="719"/>
      <point x="617" y="550"/>
      <point x="736" y="550" type="qcurve" smooth="yes"/>
      <point x="928" y="550" type="line"/>
      <point x="928" y="278" type="line"/>
      <point x="843" y="248"/>
      <point x="736" y="99"/>
      <point x="736" y="6" type="qcurve" smooth="yes"/>
      <point x="736" y="-113"/>
      <point x="905" y="-282"/>
      <point x="1143" y="-282"/>
      <point x="1312" y="-113"/>
      <point x="1312" y="6" type="qcurve" smooth="yes"/>
      <point x="1312" y="99"/>
      <point x="1205" y="248"/>
      <point x="1120" y="278" type="qcurve"/>
      <point x="1120" y="550" type="line"/>
      <point x="1312" y="550" type="line" smooth="yes"/>
      <point x="1431" y="550"/>
      <point x="1600" y="719"/>
      <point x="1600" y="838" type="qcurve" smooth="yes"/>
      <point x="1600" y="950" type="line"/>
      <point x="1685" y="980"/>
      <point x="1792" y="1129"/>
      <point x="1792" y="1222" type="qcurve" smooth="yes"/>
      <point x="1792" y="1341"/>
      <point x="1623" y="1510"/>
      <point x="1385" y="1510"/>
      <point x="1216" y="1341"/>
      <point x="1216" y="1222" type="qcurve" smooth="yes"/>
      <point x="1216" y="1129"/>
      <point x="1323" y="980"/>
      <point x="1408" y="950" type="qcurve"/>
      <point x="1408" y="838" type="line" smooth="yes"/>
      <point x="1408" y="798"/>
      <point x="1352" y="742"/>
      <point x="1312" y="742" type="qcurve" smooth="yes"/>
      <point x="736" y="742" type="line" smooth="yes"/>
      <point x="696" y="742"/>
      <point x="640" y="798"/>
      <point x="640" y="838" type="qcurve" smooth="yes"/>
      <point x="640" y="950" type="line"/>
    </contour>
    <contour>
      <point x="584" y="1126"/>
      <point x="504" y="1126"/>
      <point x="448" y="1182"/>
      <point x="448" y="1262"/>
      <point x="504" y="1318"/>
      <point x="584" y="1318"/>
      <point x="640" y="1262"/>
      <point x="640" y="1182"/>
    </contour>
    <contour>
      <point x="1408" y="1182"/>
      <point x="1408" y="1262"/>
      <point x="1464" y="1318"/>
      <point x="1544" y="1318"/>
      <point x="1600" y="1262"/>
      <point x="1600" y="1182"/>
      <point x="1544" y="1126"/>
      <point x="1464" y="1126"/>
    </contour>
    <contour>
      <point x="1064" y="-90"/>
      <point x="984" y="-90"/>
      <point x="928" y="-34"/>
      <point x="928" y="46"/>
      <point x="984" y="102"/>
      <point x="1064" y="102"/>
      <point x="1120" y="46"/>
      <point x="1120" y="-34"/>
    </contour>
  </outline>
</glyph>
<glyph name="repo-push" format="2">
  <advance width="2048"/>
  <unicode hex="F403"/>
  <note>
repo-push
</note>
  <outline>
    <contour>
      <point x="128" y="166" type="line" smooth="yes"/>
      <point x="128" y="34"/>
      <point x="316" y="-154"/>
      <point x="448" y="-154" type="qcurve" smooth="yes"/>
      <point x="1184" y="-154" type="line" smooth="yes"/>
      <point x="1224" y="-154"/>
      <point x="1280" y="-98"/>
      <point x="1280" y="-18"/>
      <point x="1224" y="38"/>
      <point x="1184" y="38" type="qcurve" smooth="yes"/>
      <point x="448" y="38" type="line" smooth="yes"/>
      <point x="395" y="38"/>
      <point x="320" y="113"/>
      <point x="320" y="219"/>
      <point x="395" y="294"/>
      <point x="448" y="294" type="qcurve" smooth="yes"/>
      <point x="864" y="294" type="line" smooth="yes"/>
      <point x="904" y="294"/>
      <point x="960" y="350"/>
      <point x="960" y="430"/>
      <point x="904" y="486"/>
      <point x="864" y="486" type="qcurve" smooth="yes"/>
      <point x="760" y="486" type="line" smooth="yes"/>
      <point x="656" y="486"/>
      <point x="552" y="486" type="qcurve" smooth="yes"/>
      <point x="448" y="486" type="line" smooth="yes"/>
      <point x="447" y="486"/>
      <point x="447" y="486" type="qcurve"/>
      <point x="381" y="486"/>
      <point x="320" y="459" type="qcurve"/>
      <point x="320" y="1318" type="line" smooth="yes"/>
      <point x="320" y="1371"/>
      <point x="395" y="1446"/>
      <point x="448" y="1446" type="qcurve" smooth="yes"/>
      <point x="1472" y="1446" type="line"/>
      <point x="1472" y="1094" type="line" smooth="yes"/>
      <point x="1472" y="1054"/>
      <point x="1528" y="998"/>
      <point x="1608" y="998"/>
      <point x="1664" y="1054"/>
      <point x="1664" y="1094" type="qcurve" smooth="yes"/>
      <point x="1664" y="1542" type="line" smooth="yes"/>
      <point x="1664" y="1582"/>
      <point x="1608" y="1638"/>
      <point x="1568" y="1638" type="qcurve" smooth="yes"/>
      <point x="448" y="1638" type="line" smooth="yes"/>
      <point x="316" y="1638"/>
      <point x="128" y="1450"/>
      <point x="128" y="1318" type="qcurve" smooth="yes"/>
    </contour>
    <contour>
      <point x="1849" y="295"/>
      <point x="1887" y="295" type="qcurve" smooth="yes"/>
      <point x="1927" y="295"/>
      <point x="1983" y="351"/>
      <point x="1983" y="391" type="qcurve" smooth="yes"/>
      <point x="1983" y="429"/>
      <point x="1957" y="457" type="qcurve" smooth="yes"/>
      <point x="1636" y="777" type="line" smooth="yes"/>
      <point x="1608" y="805"/>
      <point x="1529" y="805"/>
      <point x="1501" y="777" type="qcurve" smooth="yes"/>
      <point x="1180" y="457" type="line" smooth="yes"/>
      <point x="1153" y="429"/>
      <point x="1153" y="390" type="qcurve" smooth="yes"/>
      <point x="1153" y="350"/>
      <point x="1209" y="294"/>
      <point x="1249" y="294" type="qcurve" smooth="yes"/>
      <point x="1288" y="294"/>
      <point x="1316" y="321" type="qcurve" smooth="yes"/>
      <point x="1473" y="478" type="line"/>
      <point x="1473" y="-314" type="line" smooth="yes"/>
      <point x="1473" y="-354"/>
      <point x="1529" y="-410"/>
      <point x="1608" y="-410"/>
      <point x="1665" y="-354"/>
      <point x="1665" y="-314" type="qcurve" smooth="yes"/>
      <point x="1665" y="478" type="line"/>
      <point x="1821" y="321" type="line" smooth="yes"/>
    </contour>
  </outline>
</glyph>
<glyph name="repo-pull" format="2">
  <advance width="2048"/>
  <unicode hex="F404"/>
  <note>
repo-pull
</note>
  <outline>
    <contour>
      <point x="1408" y="358" type="line"/>
      <point x="256" y="358" type="line"/>
      <point x="256" y="1510" type="line"/>
      <point x="1408" y="1510" type="line"/>
      <point x="1408" y="1254" type="line"/>
      <point x="1536" y="1254" type="line"/>
      <point x="1536" y="1510" type="line" smooth="yes"/>
      <point x="1536" y="1563"/>
      <point x="1461" y="1638"/>
      <point x="1408" y="1638" type="qcurve" smooth="yes"/>
      <point x="128" y="1638" type="line" smooth="yes"/>
      <point x="75" y="1638"/>
      <point x="0" y="1563"/>
      <point x="0" y="1510" type="qcurve" smooth="yes"/>
      <point x="0" y="-26" type="line" smooth="yes"/>
      <point x="0" y="-79"/>
      <point x="75" y="-154"/>
      <point x="128" y="-154" type="qcurve" smooth="yes"/>
      <point x="384" y="-154" type="line"/>
      <point x="384" y="-410" type="line"/>
      <point x="576" y="-218" type="line"/>
      <point x="768" y="-410" type="line"/>
      <point x="768" y="-154" type="line"/>
      <point x="1408" y="-154" type="line" smooth="yes"/>
      <point x="1461" y="-154"/>
      <point x="1536" y="-79"/>
      <point x="1536" y="-26" type="qcurve" smooth="yes"/>
      <point x="1536" y="742" type="line"/>
      <point x="1408" y="742" type="line"/>
    </contour>
    <contour>
      <point x="2048" y="998" type="line"/>
      <point x="1664" y="1382" type="line"/>
      <point x="1664" y="1126" type="line"/>
      <point x="896" y="1126" type="line"/>
      <point x="896" y="870" type="line"/>
      <point x="1664" y="870" type="line"/>
      <point x="1664" y="614" type="line"/>
    </contour>
    <contour>
      <point x="1408" y="-26" type="line"/>
      <point x="768" y="-26" type="line"/>
      <point x="768" y="102" type="line"/>
      <point x="384" y="102" type="line"/>
      <point x="384" y="-26" type="line"/>
      <point x="128" y="-26" type="line"/>
      <point x="128" y="230" type="line"/>
      <point x="1408" y="230" type="line"/>
    </contour>
    <contour>
      <point x="384" y="1382" type="line"/>
      <point x="384" y="1254" type="line"/>
      <point x="512" y="1254" type="line"/>
      <point x="512" y="1382" type="line"/>
    </contour>
    <contour>
      <point x="384" y="1126" type="line"/>
      <point x="384" y="998" type="line"/>
      <point x="512" y="998" type="line"/>
      <point x="512" y="1126" type="line"/>
    </contour>
    <contour>
      <point x="384" y="870" type="line"/>
      <point x="384" y="742" type="line"/>
      <point x="512" y="742" type="line"/>
      <point x="512" y="870" type="line"/>
    </contour>
    <contour>
      <point x="512" y="486" type="line"/>
      <point x="512" y="614" type="line"/>
      <point x="384" y="614" type="line"/>
      <point x="384" y="486" type="line"/>
    </contour>
  </outline>
</glyph>
<glyph name="book" format="2">
  <advance width="2048"/>
  <unicode hex="F405"/>
  <note>
book
</note>
  <outline>
    <contour>
      <point x="0" y="70" type="line" smooth="yes"/>
      <point x="0" y="30"/>
      <point x="56" y="-26"/>
      <point x="96" y="-26" type="qcurve" smooth="yes"/>
      <point x="240" y="-26" type="line" smooth="yes"/>
      <point x="385" y="-26"/>
      <point x="673" y="-26"/>
      <point x="673" y="-26" type="qcurve"/>
      <point x="792" y="-26"/>
      <point x="877" y="-110" type="qcurve" smooth="yes"/>
      <point x="897" y="-130" type="line" smooth="yes"/>
      <point x="916" y="-150"/>
      <point x="956" y="-190"/>
      <point x="956" y="-190" type="qcurve"/>
      <point x="984" y="-218"/>
      <point x="1064" y="-218"/>
      <point x="1092" y="-190" type="qcurve" smooth="yes"/>
      <point x="1112" y="-170" type="line" smooth="yes"/>
      <point x="1132" y="-150"/>
      <point x="1172" y="-110"/>
      <point x="1172" y="-110" type="qcurve"/>
      <point x="1256" y="-26"/>
      <point x="1375" y="-26" type="qcurve" smooth="yes"/>
      <point x="1952" y="-26" type="line" smooth="yes"/>
      <point x="1992" y="-26"/>
      <point x="2048" y="30"/>
      <point x="2048" y="70" type="qcurve" smooth="yes"/>
      <point x="2048" y="1414" type="line" smooth="yes"/>
      <point x="2048" y="1454"/>
      <point x="1992" y="1510"/>
      <point x="1952" y="1510" type="qcurve" smooth="yes"/>
      <point x="1409" y="1510" type="line" smooth="yes"/>
      <point x="1408" y="1510"/>
      <point x="1408" y="1510" type="qcurve"/>
      <point x="1293" y="1510"/>
      <point x="1091" y="1407"/>
      <point x="1024" y="1318" type="qcurve"/>
      <point x="958" y="1407"/>
      <point x="756" y="1510"/>
      <point x="640" y="1510" type="qcurve" smooth="yes"/>
      <point x="96" y="1510" type="line" smooth="yes"/>
      <point x="56" y="1510"/>
      <point x="0" y="1454"/>
      <point x="0" y="1414" type="qcurve" smooth="yes"/>
    </contour>
    <contour>
      <point x="811" y="166"/>
      <point x="673" y="166" type="qcurve" smooth="yes"/>
      <point x="192" y="166" type="line"/>
      <point x="192" y="1318" type="line"/>
      <point x="640" y="1318" type="line" smooth="yes"/>
      <point x="760" y="1318"/>
      <point x="928" y="1149"/>
      <point x="928" y="1030" type="qcurve" smooth="yes"/>
      <point x="929" y="742" type="line"/>
      <point x="928" y="93" type="line"/>
    </contour>
    <contour>
      <point x="1121" y="1149"/>
      <point x="1289" y="1318"/>
      <point x="1409" y="1318" type="qcurve" smooth="yes"/>
      <point x="1856" y="1318" type="line"/>
      <point x="1856" y="166" type="line"/>
      <point x="1736" y="166" type="line" smooth="yes"/>
      <point x="1615" y="166"/>
      <point x="1375" y="166"/>
      <point x="1375" y="166" type="qcurve"/>
      <point x="1237" y="166"/>
      <point x="1120" y="93" type="qcurve"/>
      <point x="1121" y="1030" type="line" smooth="yes"/>
    </contour>
  </outline>
</glyph>
<glyph name="accessibility" format="2">
  <advance width="2048"/>
  <unicode hex="F406"/>
  <note>
accessibility
</note>
  <outline>
    <contour>
      <point x="1335" y="1013"/>
      <point x="1408" y="1167"/>
      <point x="1408" y="1254" type="qcurve" smooth="yes"/>
      <point x="1408" y="1358"/>
      <point x="1305" y="1535"/>
      <point x="1128" y="1638"/>
      <point x="919" y="1638"/>
      <point x="743" y="1535"/>
      <point x="640" y="1358"/>
      <point x="640" y="1254" type="qcurve" smooth="yes"/>
      <point x="640" y="1167"/>
      <point x="713" y="1013"/>
      <point x="778" y="959" type="qcurve"/>
      <point x="766" y="947"/>
      <point x="755" y="934" type="qcurve"/>
      <point x="256" y="934" type="line" smooth="yes"/>
      <point x="216" y="934"/>
      <point x="160" y="878"/>
      <point x="160" y="798"/>
      <point x="216" y="742"/>
      <point x="256" y="742" type="qcurve" smooth="yes"/>
      <point x="678" y="742" type="line"/>
      <point x="604" y="81" type="line"/>
      <point x="558" y="-302" type="line" smooth="yes"/>
      <point x="557" y="-308"/>
      <point x="557" y="-314" type="qcurve" smooth="yes"/>
      <point x="557" y="-354"/>
      <point x="614" y="-410"/>
      <point x="653" y="-410" type="qcurve" smooth="yes"/>
      <point x="690" y="-410"/>
      <point x="744" y="-361"/>
      <point x="749" y="-326" type="qcurve" smooth="yes"/>
      <point x="785" y="-26" type="line"/>
      <point x="1263" y="-26" type="line"/>
      <point x="1272" y="-101" type="line" smooth="yes"/>
      <point x="1281" y="-176"/>
      <point x="1299" y="-326"/>
      <point x="1299" y="-326" type="qcurve"/>
      <point x="1304" y="-361"/>
      <point x="1358" y="-410"/>
      <point x="1395" y="-410" type="qcurve" smooth="yes"/>
      <point x="1434" y="-410"/>
      <point x="1491" y="-354"/>
      <point x="1491" y="-314" type="qcurve" smooth="yes"/>
      <point x="1491" y="-308"/>
      <point x="1490" y="-302" type="qcurve" smooth="yes"/>
      <point x="1444" y="81" type="line"/>
      <point x="1370" y="742" type="line"/>
      <point x="1792" y="742" type="line" smooth="yes"/>
      <point x="1832" y="742"/>
      <point x="1888" y="798"/>
      <point x="1888" y="878"/>
      <point x="1832" y="934"/>
      <point x="1792" y="934" type="qcurve" smooth="yes"/>
      <point x="1293" y="934" type="line"/>
      <point x="1282" y="948"/>
      <point x="1270" y="959" type="qcurve"/>
    </contour>
    <contour>
      <point x="1241" y="166" type="line"/>
      <point x="807" y="166" type="line"/>
      <point x="814" y="224" type="line" smooth="yes"/>
      <point x="820" y="283"/>
      <point x="839" y="449"/>
      <point x="857" y="616"/>
      <point x="871" y="733"/>
      <point x="871" y="733" type="qcurve"/>
      <point x="877" y="791"/>
      <point x="965" y="870"/>
      <point x="1083" y="870"/>
      <point x="1171" y="791"/>
      <point x="1177" y="733" type="qcurve"/>
      <point x="1178" y="733" type="line"/>
    </contour>
    <contour>
      <point x="1103" y="1062"/>
      <point x="944" y="1062"/>
      <point x="832" y="1174"/>
      <point x="832" y="1333"/>
      <point x="944" y="1446"/>
      <point x="1103" y="1446"/>
      <point x="1216" y="1333"/>
      <point x="1216" y="1174"/>
    </contour>
  </outline>
</glyph>
<glyph name="git-pull-request" format="2">
  <advance width="2048"/>
  <unicode hex="F407"/>
  <note>
git-pull-request
</note>
  <outline>
    <contour>
      <point x="192" y="1129"/>
      <point x="299" y="980"/>
      <point x="384" y="950" type="qcurve"/>
      <point x="384" y="278" type="line"/>
      <point x="299" y="248"/>
      <point x="192" y="99"/>
      <point x="192" y="6" type="qcurve" smooth="yes"/>
      <point x="192" y="-113"/>
      <point x="361" y="-282"/>
      <point x="599" y="-282"/>
      <point x="768" y="-113"/>
      <point x="768" y="6" type="qcurve" smooth="yes"/>
      <point x="768" y="99"/>
      <point x="661" y="248"/>
      <point x="576" y="278" type="qcurve"/>
      <point x="576" y="950" type="line"/>
      <point x="661" y="980"/>
      <point x="768" y="1129"/>
      <point x="768" y="1222" type="qcurve" smooth="yes"/>
      <point x="768" y="1341"/>
      <point x="599" y="1510"/>
      <point x="361" y="1510"/>
      <point x="192" y="1341"/>
      <point x="192" y="1222" type="qcurve" smooth="yes"/>
    </contour>
    <contour>
      <point x="909" y="1235"/>
      <point x="909" y="1209"/>
      <point x="919" y="1199" type="qcurve" smooth="yes"/>
      <point x="995" y="1123" type="line" smooth="yes"/>
      <point x="1072" y="1046"/>
      <point x="1225" y="893"/>
      <point x="1225" y="893" type="qcurve"/>
      <point x="1235" y="883"/>
      <point x="1261" y="883"/>
      <point x="1280" y="902"/>
      <point x="1280" y="915" type="qcurve" smooth="yes"/>
      <point x="1280" y="1126" type="line"/>
      <point x="1408" y="1126" type="line" smooth="yes"/>
      <point x="1461" y="1126"/>
      <point x="1536" y="1051"/>
      <point x="1536" y="998" type="qcurve" smooth="yes"/>
      <point x="1536" y="278" type="line"/>
      <point x="1451" y="248"/>
      <point x="1344" y="99"/>
      <point x="1344" y="6" type="qcurve" smooth="yes"/>
      <point x="1344" y="-113"/>
      <point x="1513" y="-282"/>
      <point x="1751" y="-282"/>
      <point x="1920" y="-113"/>
      <point x="1920" y="6" type="qcurve" smooth="yes"/>
      <point x="1920" y="99"/>
      <point x="1813" y="248"/>
      <point x="1728" y="278" type="qcurve"/>
      <point x="1728" y="998" type="line" smooth="yes"/>
      <point x="1728" y="1130"/>
      <point x="1540" y="1318"/>
      <point x="1408" y="1318" type="qcurve" smooth="yes"/>
      <point x="1280" y="1318" type="line"/>
      <point x="1280" y="1371" type="line" smooth="yes"/>
      <point x="1280" y="1423"/>
      <point x="1280" y="1529"/>
      <point x="1280" y="1529" type="qcurve"/>
      <point x="1280" y="1542"/>
      <point x="1261" y="1561"/>
      <point x="1235" y="1561"/>
      <point x="1225" y="1551" type="qcurve" smooth="yes"/>
      <point x="919" y="1245" type="line" smooth="yes"/>
    </contour>
    <contour>
      <point x="576" y="1262"/>
      <point x="576" y="1182"/>
      <point x="520" y="1126"/>
      <point x="440" y="1126"/>
      <point x="384" y="1182"/>
      <point x="384" y="1262"/>
      <point x="440" y="1318"/>
      <point x="520" y="1318"/>
    </contour>
    <contour>
      <point x="576" y="46"/>
      <point x="576" y="-34"/>
      <point x="520" y="-90"/>
      <point x="440" y="-90"/>
      <point x="384" y="-34"/>
      <point x="384" y="46"/>
      <point x="440" y="102"/>
      <point x="520" y="102"/>
    </contour>
    <contour>
      <point x="1592" y="102"/>
      <point x="1672" y="102"/>
      <point x="1728" y="46"/>
      <point x="1728" y="-34"/>
      <point x="1672" y="-90"/>
      <point x="1592" y="-90"/>
      <point x="1536" y="-34"/>
      <point x="1536" y="46"/>
    </contour>
  </outline>
</glyph>
<glyph name="mark-github" format="2">
  <advance width="2048"/>
  <unicode hex="F408"/>
  <note>
mark-github
</note>
  <outline>
    <contour>
      <point x="619" y="1564"/>
      <point x="395" y="1432"/>
      <point x="206" y="1243"/>
      <point x="74" y="1019"/>
      <point x="0" y="753"/>
      <point x="0" y="614" type="qcurve" smooth="yes"/>
      <point x="0" y="447"/>
      <point x="105" y="134"/>
      <point x="290" y="-117"/>
      <point x="549" y="-307"/>
      <point x="700" y="-358" type="qcurve"/>
      <point x="735" y="-364"/>
      <point x="771" y="-332"/>
      <point x="771" y="-309" type="qcurve" smooth="yes"/>
      <point x="771" y="-304"/>
      <point x="769" y="-169"/>
      <point x="769" y="-118" type="qcurve"/>
      <point x="708" y="-130"/>
      <point x="605" y="-130"/>
      <point x="535" y="-111"/>
      <point x="482" y="-84"/>
      <point x="449" y="-46"/>
      <point x="431" y="-15"/>
      <point x="425" y="2" type="qcurve" smooth="yes"/>
      <point x="413" y="33"/>
      <point x="349" y="131"/>
      <point x="320" y="147" type="qcurve" smooth="yes"/>
      <point x="305" y="155"/>
      <point x="280" y="176"/>
      <point x="267" y="198"/>
      <point x="289" y="214"/>
      <point x="319" y="215" type="qcurve" smooth="yes"/>
      <point x="347" y="215"/>
      <point x="401" y="192"/>
      <point x="441" y="155"/>
      <point x="467" y="125"/>
      <point x="476" y="110" type="qcurve" smooth="yes"/>
      <point x="502" y="66"/>
      <point x="572" y="13"/>
      <point x="636" y="-3"/>
      <point x="706" y="1"/>
      <point x="753" y="15"/>
      <point x="774" y="25" type="qcurve"/>
      <point x="787" y="116"/>
      <point x="840" y="162" type="qcurve"/>
      <point x="787" y="168"/>
      <point x="697" y="187"/>
      <point x="599" y="223"/>
      <point x="522" y="274"/>
      <point x="450" y="351"/>
      <point x="402" y="450"/>
      <point x="374" y="586"/>
      <point x="374" y="668" type="qcurve" smooth="yes"/>
      <point x="374" y="828"/>
      <point x="479" y="943" type="qcurve"/>
      <point x="473" y="958"/>
      <point x="463" y="998"/>
      <point x="455" y="1070"/>
      <point x="469" y="1165"/>
      <point x="489" y="1214" type="qcurve"/>
      <point x="499" y="1216" type="line" smooth="yes"/>
      <point x="509" y="1218"/>
      <point x="555" y="1212"/>
      <point x="617" y="1195"/>
      <point x="716" y="1146"/>
      <point x="771" y="1109" type="qcurve"/>
      <point x="893" y="1144"/>
      <point x="1160" y="1144"/>
      <point x="1283" y="1109" type="qcurve"/>
      <point x="1337" y="1147"/>
      <point x="1437" y="1195"/>
      <point x="1496" y="1213"/>
      <point x="1547" y="1218"/>
      <point x="1561" y="1215"/>
      <point x="1564" y="1214" type="qcurve"/>
      <point x="1584" y="1165"/>
      <point x="1598" y="1070"/>
      <point x="1590" y="998"/>
      <point x="1580" y="958"/>
      <point x="1574" y="943" type="qcurve"/>
      <point x="1679" y="828"/>
      <point x="1679" y="668" type="qcurve" smooth="yes"/>
      <point x="1679" y="586"/>
      <point x="1651" y="449"/>
      <point x="1603" y="351"/>
      <point x="1531" y="273"/>
      <point x="1453" y="223"/>
      <point x="1355" y="187"/>
      <point x="1265" y="168"/>
      <point x="1212" y="162" type="qcurve"/>
      <point x="1281" y="103"/>
      <point x="1281" y="-27" type="qcurve" smooth="yes"/>
      <point x="1281" y="-109"/>
      <point x="1280" y="-304"/>
      <point x="1280" y="-309" type="qcurve" smooth="yes"/>
      <point x="1280" y="-333"/>
      <point x="1315" y="-365"/>
      <point x="1350" y="-358" type="qcurve"/>
      <point x="1502" y="-307"/>
      <point x="1759" y="-116"/>
      <point x="1944" y="135"/>
      <point x="2048" y="448"/>
      <point x="2048" y="614" type="qcurve" smooth="yes"/>
      <point x="2048" y="753"/>
      <point x="1974" y="1019"/>
      <point x="1842" y="1243"/>
      <point x="1653" y="1432"/>
      <point x="1429" y="1564"/>
      <point x="1163" y="1638"/>
      <point x="885" y="1638"/>
    </contour>
  </outline>
</glyph>
<glyph name="download" format="2">
  <advance width="2048"/>
  <unicode hex="F409"/>
  <note>
download
</note>
  <outline>
    <contour>
      <point x="1696" y="-154" type="line" smooth="yes"/>
      <point x="1789" y="-154"/>
      <point x="1920" y="-23"/>
      <point x="1920" y="70" type="qcurve" smooth="yes"/>
      <point x="1920" y="390" type="line" smooth="yes"/>
      <point x="1920" y="430"/>
      <point x="1864" y="486"/>
      <point x="1784" y="486"/>
      <point x="1728" y="430"/>
      <point x="1728" y="390" type="qcurve" smooth="yes"/>
      <point x="1728" y="70" type="line" smooth="yes"/>
      <point x="1728" y="57"/>
      <point x="1709" y="38"/>
      <point x="1696" y="38" type="qcurve" smooth="yes"/>
      <point x="352" y="38" type="line" smooth="yes"/>
      <point x="339" y="38"/>
      <point x="320" y="57"/>
      <point x="320" y="70" type="qcurve" smooth="yes"/>
      <point x="320" y="390" type="line" smooth="yes"/>
      <point x="320" y="430"/>
      <point x="264" y="486"/>
      <point x="184" y="486"/>
      <point x="128" y="430"/>
      <point x="128" y="390" type="qcurve" smooth="yes"/>
      <point x="128" y="70" type="line" smooth="yes"/>
      <point x="128" y="-23"/>
      <point x="259" y="-154"/>
      <point x="352" y="-154" type="qcurve" smooth="yes"/>
    </contour>
    <contour>
      <point x="865" y="717" type="line" smooth="yes"/>
      <point x="802" y="780"/>
      <point x="676" y="906"/>
      <point x="676" y="906" type="qcurve"/>
      <point x="648" y="934"/>
      <point x="568" y="934"/>
      <point x="512" y="878"/>
      <point x="512" y="798"/>
      <point x="540" y="770" type="qcurve" smooth="yes"/>
      <point x="644" y="666" type="line" smooth="yes"/>
      <point x="748" y="562"/>
      <point x="956" y="354"/>
      <point x="956" y="354" type="qcurve"/>
      <point x="984" y="326"/>
      <point x="1064" y="326"/>
      <point x="1092" y="354" type="qcurve" smooth="yes"/>
      <point x="1508" y="770" type="line" smooth="yes"/>
      <point x="1536" y="798"/>
      <point x="1536" y="878"/>
      <point x="1480" y="934"/>
      <point x="1400" y="934"/>
      <point x="1372" y="906" type="qcurve" smooth="yes"/>
      <point x="1120" y="654" type="line"/>
      <point x="1120" y="1382" type="line" smooth="yes"/>
      <point x="1120" y="1422"/>
      <point x="1064" y="1478"/>
      <point x="984" y="1478"/>
      <point x="928" y="1422"/>
      <point x="928" y="1382" type="qcurve" smooth="yes"/>
      <point x="928" y="654" type="line"/>
    </contour>
  </outline>
</glyph>
<glyph name="upload" format="2">
  <advance width="2048"/>
  <unicode hex="F40A"/>
  <note>
upload
</note>
  <outline>
    <contour>
      <point x="1696" y="-154" type="line" smooth="yes"/>
      <point x="1789" y="-154"/>
      <point x="1920" y="-23"/>
      <point x="1920" y="70" type="qcurve" smooth="yes"/>
      <point x="1920" y="390" type="line" smooth="yes"/>
      <point x="1920" y="430"/>
      <point x="1864" y="486"/>
      <point x="1784" y="486"/>
      <point x="1728" y="430"/>
      <point x="1728" y="390" type="qcurve" smooth="yes"/>
      <point x="1728" y="70" type="line" smooth="yes"/>
      <point x="1728" y="57"/>
      <point x="1709" y="38"/>
      <point x="1696" y="38" type="qcurve" smooth="yes"/>
      <point x="352" y="38" type="line" smooth="yes"/>
      <point x="339" y="38"/>
      <point x="320" y="57"/>
      <point x="320" y="70" type="qcurve" smooth="yes"/>
      <point x="320" y="390" type="line" smooth="yes"/>
      <point x="320" y="430"/>
      <point x="264" y="486"/>
      <point x="184" y="486"/>
      <point x="128" y="430"/>
      <point x="128" y="390" type="qcurve" smooth="yes"/>
      <point x="128" y="70" type="line" smooth="yes"/>
      <point x="128" y="-23"/>
      <point x="259" y="-154"/>
      <point x="352" y="-154" type="qcurve" smooth="yes"/>
    </contour>
    <contour>
      <point x="1404" y="1138" type="line" smooth="yes"/>
      <point x="1300" y="1242"/>
      <point x="1092" y="1450"/>
      <point x="1092" y="1450" type="qcurve"/>
      <point x="1064" y="1478"/>
      <point x="984" y="1478"/>
      <point x="956" y="1450" type="qcurve" smooth="yes"/>
      <point x="540" y="1034" type="line" smooth="yes"/>
      <point x="512" y="1006"/>
      <point x="512" y="926"/>
      <point x="568" y="870"/>
      <point x="648" y="870"/>
      <point x="676" y="898" type="qcurve" smooth="yes"/>
      <point x="928" y="1150" type="line"/>
      <point x="928" y="422" type="line" smooth="yes"/>
      <point x="928" y="382"/>
      <point x="984" y="326"/>
      <point x="1064" y="326"/>
      <point x="1120" y="382"/>
      <point x="1120" y="422" type="qcurve" smooth="yes"/>
      <point x="1120" y="1150" type="line"/>
      <point x="1183" y="1087" type="line" smooth="yes"/>
      <point x="1246" y="1024"/>
      <point x="1372" y="898"/>
      <point x="1372" y="898" type="qcurve"/>
      <point x="1400" y="870"/>
      <point x="1480" y="870"/>
      <point x="1536" y="926"/>
      <point x="1536" y="1006"/>
      <point x="1508" y="1034" type="qcurve" smooth="yes"/>
    </contour>
  </outline>
</glyph>
<glyph name="accessibility-inset" format="2">
  <advance width="2048"/>
  <unicode hex="F40B"/>
  <note>
accessibility-inset
</note>
  <outline>
    <contour>
      <point x="437" y="1476"/>
      <point x="162" y="1201"/>
      <point x="0" y="822"/>
      <point x="0" y="406"/>
      <point x="162" y="27"/>
      <point x="437" y="-248"/>
      <point x="816" y="-410"/>
      <point x="1232" y="-410"/>
      <point x="1611" y="-248"/>
      <point x="1886" y="27"/>
      <point x="2048" y="406"/>
      <point x="2048" y="822"/>
      <point x="1886" y="1201"/>
      <point x="1611" y="1476"/>
      <point x="1232" y="1638"/>
      <point x="816" y="1638"/>
    </contour>
    <contour>
      <point x="1280" y="1054"/>
      <point x="1207" y="934"/>
      <point x="1146" y="901" type="qcurve"/>
      <point x="1168" y="887"/>
      <point x="1187" y="870" type="qcurve"/>
      <point x="1568" y="870" type="line" smooth="yes"/>
      <point x="1608" y="870"/>
      <point x="1664" y="814"/>
      <point x="1664" y="734"/>
      <point x="1608" y="678"/>
      <point x="1568" y="678" type="qcurve" smooth="yes"/>
      <point x="1266" y="678" type="line"/>
      <point x="1343" y="-48" type="line" smooth="yes"/>
      <point x="1344" y="-53"/>
      <point x="1344" y="-58" type="qcurve" smooth="yes"/>
      <point x="1344" y="-98"/>
      <point x="1288" y="-154"/>
      <point x="1248" y="-154" type="qcurve" smooth="yes"/>
      <point x="1211" y="-154"/>
      <point x="1156" y="-105"/>
      <point x="1153" y="-68" type="qcurve" smooth="yes"/>
      <point x="1121" y="230" type="line"/>
      <point x="927" y="230" type="line"/>
      <point x="919" y="155" type="line" smooth="yes"/>
      <point x="911" y="81"/>
      <point x="895" y="-68"/>
      <point x="895" y="-68" type="qcurve"/>
      <point x="893" y="-106"/>
      <point x="838" y="-158"/>
      <point x="800" y="-158" type="qcurve" smooth="yes"/>
      <point x="760" y="-158"/>
      <point x="704" y="-102"/>
      <point x="704" y="-62" type="qcurve" smooth="yes"/>
      <point x="704" y="-55"/>
      <point x="705" y="-48" type="qcurve" smooth="yes"/>
      <point x="782" y="678" type="line"/>
      <point x="480" y="678" type="line" smooth="yes"/>
      <point x="440" y="678"/>
      <point x="384" y="734"/>
      <point x="384" y="814"/>
      <point x="440" y="870"/>
      <point x="480" y="870" type="qcurve" smooth="yes"/>
      <point x="861" y="870" type="line"/>
      <point x="880" y="888"/>
      <point x="902" y="901" type="qcurve"/>
      <point x="841" y="934"/>
      <point x="768" y="1054"/>
      <point x="768" y="1126" type="qcurve" smooth="yes"/>
      <point x="768" y="1232"/>
      <point x="918" y="1382"/>
      <point x="1130" y="1382"/>
      <point x="1280" y="1232"/>
      <point x="1280" y="1126" type="qcurve" smooth="yes"/>
    </contour>
  </outline>
</glyph>
<glyph name="alert-fill" format="2">
  <advance width="2048"/>
  <unicode hex="F40C"/>
  <note>
alert-fill
</note>
  <outline>
    <contour>
      <point x="632" y="1140" type="line" smooth="yes"/>
      <point x="437" y="776"/>
      <point x="48" y="47"/>
      <point x="48" y="48" type="qcurve"/>
      <point x="22" y="-2"/>
      <point x="22" y="-58" type="qcurve" smooth="yes"/>
      <point x="22" y="-151"/>
      <point x="153" y="-282"/>
      <point x="246" y="-282" type="qcurve" smooth="yes"/>
      <point x="1802" y="-282" type="line" smooth="yes"/>
      <point x="1895" y="-282"/>
      <point x="2026" y="-151"/>
      <point x="2026" y="-58" type="qcurve" smooth="yes"/>
      <point x="2026" y="-2"/>
      <point x="2000" y="48" type="qcurve" smooth="yes"/>
      <point x="1222" y="1504" type="line" smooth="yes"/>
      <point x="1197" y="1550"/>
      <point x="1116" y="1610"/>
      <point x="1024" y="1626"/>
      <point x="932" y="1610"/>
      <point x="851" y="1550"/>
      <point x="826" y="1504" type="qcurve" smooth="yes"/>
    </contour>
    <contour>
      <point x="1120" y="942"/>
      <point x="1120" y="902" type="qcurve" smooth="yes"/>
      <point x="1120" y="582" type="line" smooth="yes"/>
      <point x="1120" y="542"/>
      <point x="1064" y="486"/>
      <point x="984" y="486"/>
      <point x="928" y="542"/>
      <point x="928" y="582" type="qcurve" smooth="yes"/>
      <point x="928" y="902" type="line" smooth="yes"/>
      <point x="928" y="942"/>
      <point x="984" y="998"/>
      <point x="1064" y="998"/>
    </contour>
    <contour>
      <point x="1077" y="102"/>
      <point x="971" y="102"/>
      <point x="896" y="177"/>
      <point x="896" y="283"/>
      <point x="971" y="358"/>
      <point x="1077" y="358"/>
      <point x="1152" y="283"/>
      <point x="1152" y="177"/>
    </contour>
  </outline>
</glyph>
<glyph name="file-code" format="2">
  <advance width="2048"/>
  <unicode hex="F40D"/>
  <note>
file-code
</note>
  <outline>
    <contour>
      <point x="512" y="1094" type="line" smooth="yes"/>
      <point x="512" y="1054"/>
      <point x="568" y="998"/>
      <point x="648" y="998"/>
      <point x="704" y="1054"/>
      <point x="704" y="1094" type="qcurve" smooth="yes"/>
      <point x="704" y="1414" type="line" smooth="yes"/>
      <point x="704" y="1427"/>
      <point x="723" y="1446"/>
      <point x="736" y="1446" type="qcurve" smooth="yes"/>
      <point x="1280" y="1446" type="line"/>
      <point x="1280" y="1094" type="line" smooth="yes"/>
      <point x="1280" y="1001"/>
      <point x="1411" y="870"/>
      <point x="1504" y="870" type="qcurve" smooth="yes"/>
      <point x="1856" y="870" type="line"/>
      <point x="1856" y="-58" type="line" smooth="yes"/>
      <point x="1856" y="-71"/>
      <point x="1837" y="-90"/>
      <point x="1824" y="-90" type="qcurve" smooth="yes"/>
      <point x="672" y="-90" type="line" smooth="yes"/>
      <point x="632" y="-90"/>
      <point x="576" y="-146"/>
      <point x="576" y="-226"/>
      <point x="632" y="-282"/>
      <point x="672" y="-282" type="qcurve" smooth="yes"/>
      <point x="1824" y="-282" type="line" smooth="yes"/>
      <point x="1917" y="-282"/>
      <point x="2048" y="-151"/>
      <point x="2048" y="-58" type="qcurve" smooth="yes"/>
      <point x="2048" y="1041" type="line" smooth="yes"/>
      <point x="2048" y="1134"/>
      <point x="1982" y="1199" type="qcurve" smooth="yes"/>
      <point x="1609" y="1572" type="line" smooth="yes"/>
      <point x="1544" y="1638"/>
      <point x="1451" y="1638" type="qcurve" smooth="yes"/>
      <point x="736" y="1638" type="line" smooth="yes"/>
      <point x="643" y="1638"/>
      <point x="512" y="1507"/>
      <point x="512" y="1414" type="qcurve" smooth="yes"/>
    </contour>
    <contour>
      <point x="704" y="670"/>
      <point x="732" y="642" type="qcurve" smooth="yes"/>
      <point x="920" y="454" type="line"/>
      <point x="732" y="266" type="line" smooth="yes"/>
      <point x="702" y="237"/>
      <point x="702" y="196" type="qcurve" smooth="yes"/>
      <point x="702" y="184"/>
      <point x="705" y="172" type="qcurve" smooth="yes"/>
      <point x="713" y="140"/>
      <point x="764" y="99"/>
      <point x="798" y="99" type="qcurve" smooth="yes"/>
      <point x="839" y="99"/>
      <point x="868" y="130" type="qcurve" smooth="yes"/>
      <point x="932" y="194" type="line" smooth="yes"/>
      <point x="996" y="258"/>
      <point x="1124" y="386"/>
      <point x="1124" y="386" type="qcurve"/>
      <point x="1152" y="414"/>
      <point x="1152" y="494"/>
      <point x="1124" y="522" type="qcurve" smooth="yes"/>
      <point x="1060" y="586" type="line" smooth="yes"/>
      <point x="996" y="650"/>
      <point x="868" y="778"/>
      <point x="868" y="778" type="qcurve"/>
      <point x="840" y="806"/>
      <point x="760" y="806"/>
      <point x="704" y="750"/>
    </contour>
    <contour>
      <point x="446" y="670"/>
      <point x="446" y="708" type="qcurve" smooth="yes"/>
      <point x="446" y="747"/>
      <point x="389" y="804"/>
      <point x="350" y="804" type="qcurve" smooth="yes"/>
      <point x="312" y="804"/>
      <point x="284" y="778" type="qcurve" smooth="yes"/>
      <point x="220" y="714" type="line" smooth="yes"/>
      <point x="156" y="650"/>
      <point x="28" y="522"/>
      <point x="28" y="522" type="qcurve"/>
      <point x="0" y="494"/>
      <point x="0" y="414"/>
      <point x="28" y="386" type="qcurve" smooth="yes"/>
      <point x="92" y="322" type="line" smooth="yes"/>
      <point x="156" y="258"/>
      <point x="284" y="130"/>
      <point x="284" y="130" type="qcurve"/>
      <point x="312" y="104"/>
      <point x="350" y="104" type="qcurve" smooth="yes"/>
      <point x="389" y="104"/>
      <point x="446" y="161"/>
      <point x="446" y="200" type="qcurve" smooth="yes"/>
      <point x="446" y="238"/>
      <point x="420" y="266" type="qcurve" smooth="yes"/>
      <point x="232" y="454" type="line"/>
      <point x="420" y="642" type="line" smooth="yes"/>
    </contour>
    <contour>
      <point x="1474" y="1437" type="line"/>
      <point x="1847" y="1064" type="line"/>
      <point x="1848" y="1062" type="line"/>
      <point x="1504" y="1062" type="line" smooth="yes"/>
      <point x="1491" y="1062"/>
      <point x="1472" y="1081"/>
      <point x="1472" y="1094" type="qcurve" smooth="yes"/>
      <point x="1472" y="1438" type="line"/>
    </contour>
  </outline>
</glyph>
<glyph name="apps" format="2">
  <advance width="2048"/>
  <unicode hex="F40E"/>
  <note>
apps
</note>
  <outline>
    <contour>
      <point x="192" y="902" type="line" smooth="yes"/>
      <point x="192" y="809"/>
      <point x="323" y="678"/>
      <point x="416" y="678" type="qcurve" smooth="yes"/>
      <point x="736" y="678" type="line" smooth="yes"/>
      <point x="829" y="678"/>
      <point x="960" y="809"/>
      <point x="960" y="902" type="qcurve" smooth="yes"/>
      <point x="960" y="1222" type="line" smooth="yes"/>
      <point x="960" y="1315"/>
      <point x="829" y="1446"/>
      <point x="736" y="1446" type="qcurve" smooth="yes"/>
      <point x="416" y="1446" type="line" smooth="yes"/>
      <point x="323" y="1446"/>
      <point x="192" y="1315"/>
      <point x="192" y="1222" type="qcurve" smooth="yes"/>
    </contour>
    <contour>
      <point x="1088" y="902" type="line" smooth="yes"/>
      <point x="1088" y="809"/>
      <point x="1219" y="678"/>
      <point x="1312" y="678" type="qcurve" smooth="yes"/>
      <point x="1632" y="678" type="line" smooth="yes"/>
      <point x="1725" y="678"/>
      <point x="1856" y="809"/>
      <point x="1856" y="902" type="qcurve" smooth="yes"/>
      <point x="1856" y="1222" type="line" smooth="yes"/>
      <point x="1856" y="1315"/>
      <point x="1725" y="1446"/>
      <point x="1632" y="1446" type="qcurve" smooth="yes"/>
      <point x="1312" y="1446" type="line" smooth="yes"/>
      <point x="1219" y="1446"/>
      <point x="1088" y="1315"/>
      <point x="1088" y="1222" type="qcurve" smooth="yes"/>
    </contour>
    <contour>
      <point x="192" y="6" type="line" smooth="yes"/>
      <point x="192" y="-87"/>
      <point x="323" y="-218"/>
      <point x="416" y="-218" type="qcurve" smooth="yes"/>
      <point x="736" y="-218" type="line" smooth="yes"/>
      <point x="829" y="-218"/>
      <point x="960" y="-87"/>
      <point x="960" y="6" type="qcurve" smooth="yes"/>
      <point x="960" y="326" type="line" smooth="yes"/>
      <point x="960" y="419"/>
      <point x="829" y="550"/>
      <point x="736" y="550" type="qcurve" smooth="yes"/>
      <point x="416" y="550" type="line" smooth="yes"/>
      <point x="323" y="550"/>
      <point x="192" y="419"/>
      <point x="192" y="326" type="qcurve" smooth="yes"/>
    </contour>
    <contour>
      <point x="1088" y="6" type="line" smooth="yes"/>
      <point x="1088" y="-87"/>
      <point x="1219" y="-218"/>
      <point x="1312" y="-218" type="qcurve" smooth="yes"/>
      <point x="1632" y="-218" type="line" smooth="yes"/>
      <point x="1725" y="-218"/>
      <point x="1856" y="-87"/>
      <point x="1856" y="6" type="qcurve" smooth="yes"/>
      <point x="1856" y="326" type="line" smooth="yes"/>
      <point x="1856" y="419"/>
      <point x="1725" y="550"/>
      <point x="1632" y="550" type="qcurve" smooth="yes"/>
      <point x="1312" y="550" type="line" smooth="yes"/>
      <point x="1219" y="550"/>
      <point x="1088" y="419"/>
      <point x="1088" y="326" type="qcurve" smooth="yes"/>
    </contour>
    <contour>
      <point x="736" y="1254" type="line" smooth="yes"/>
      <point x="749" y="1254"/>
      <point x="768" y="1235"/>
      <point x="768" y="1222" type="qcurve" smooth="yes"/>
      <point x="768" y="902" type="line" smooth="yes"/>
      <point x="768" y="889"/>
      <point x="749" y="870"/>
      <point x="736" y="870" type="qcurve" smooth="yes"/>
      <point x="416" y="870" type="line" smooth="yes"/>
      <point x="403" y="870"/>
      <point x="384" y="889"/>
      <point x="384" y="902" type="qcurve" smooth="yes"/>
      <point x="384" y="1222" type="line" smooth="yes"/>
      <point x="384" y="1235"/>
      <point x="403" y="1254"/>
      <point x="416" y="1254" type="qcurve" smooth="yes"/>
    </contour>
    <contour>
      <point x="1632" y="1254" type="line" smooth="yes"/>
      <point x="1645" y="1254"/>
      <point x="1664" y="1235"/>
      <point x="1664" y="1222" type="qcurve" smooth="yes"/>
      <point x="1664" y="902" type="line" smooth="yes"/>
      <point x="1664" y="889"/>
      <point x="1645" y="870"/>
      <point x="1632" y="870" type="qcurve" smooth="yes"/>
      <point x="1312" y="870" type="line" smooth="yes"/>
      <point x="1299" y="870"/>
      <point x="1280" y="889"/>
      <point x="1280" y="902" type="qcurve" smooth="yes"/>
      <point x="1280" y="1222" type="line" smooth="yes"/>
      <point x="1280" y="1235"/>
      <point x="1299" y="1254"/>
      <point x="1312" y="1254" type="qcurve" smooth="yes"/>
    </contour>
    <contour>
      <point x="736" y="358" type="line" smooth="yes"/>
      <point x="749" y="358"/>
      <point x="768" y="339"/>
      <point x="768" y="326" type="qcurve" smooth="yes"/>
      <point x="768" y="6" type="line" smooth="yes"/>
      <point x="768" y="-7"/>
      <point x="749" y="-26"/>
      <point x="736" y="-26" type="qcurve" smooth="yes"/>
      <point x="416" y="-26" type="line" smooth="yes"/>
      <point x="403" y="-26"/>
      <point x="384" y="-7"/>
      <point x="384" y="6" type="qcurve" smooth="yes"/>
      <point x="384" y="326" type="line" smooth="yes"/>
      <point x="384" y="339"/>
      <point x="403" y="358"/>
      <point x="416" y="358" type="qcurve" smooth="yes"/>
    </contour>
    <contour>
      <point x="1632" y="358" type="line" smooth="yes"/>
      <point x="1645" y="358"/>
      <point x="1664" y="339"/>
      <point x="1664" y="326" type="qcurve" smooth="yes"/>
      <point x="1664" y="6" type="line" smooth="yes"/>
      <point x="1664" y="-7"/>
      <point x="1645" y="-26"/>
      <point x="1632" y="-26" type="qcurve" smooth="yes"/>
      <point x="1312" y="-26" type="line" smooth="yes"/>
      <point x="1299" y="-26"/>
      <point x="1280" y="-7"/>
      <point x="1280" y="6" type="qcurve" smooth="yes"/>
      <point x="1280" y="326" type="line" smooth="yes"/>
      <point x="1280" y="339"/>
      <point x="1299" y="358"/>
      <point x="1312" y="358" type="qcurve" smooth="yes"/>
    </contour>
  </outline>
</glyph>
<glyph name="file-media" format="2">
  <advance width="2048"/>
  <unicode hex="F40F"/>
  <note>
file-media
</note>
  <outline>
    <contour>
      <point x="1918" y="-197"/>
      <point x="2005" y="-109"/>
      <point x="2005" y="-47" type="qcurve" smooth="yes"/>
      <point x="2005" y="1275" type="line" smooth="yes"/>
      <point x="2005" y="1337"/>
      <point x="1918" y="1425"/>
      <point x="1856" y="1425" type="qcurve" smooth="yes"/>
      <point x="192" y="1425" type="line" smooth="yes"/>
      <point x="130" y="1425"/>
      <point x="43" y="1337"/>
      <point x="43" y="1275" type="qcurve" smooth="yes"/>
      <point x="43" y="-47" type="line" smooth="yes"/>
      <point x="43" y="-109"/>
      <point x="130" y="-197"/>
      <point x="192" y="-197" type="qcurve" smooth="yes"/>
      <point x="1856" y="-197" type="line" smooth="yes"/>
    </contour>
    <contour>
      <point x="1856" y="1297" type="line" smooth="yes"/>
      <point x="1865" y="1297"/>
      <point x="1877" y="1284"/>
      <point x="1877" y="1275" type="qcurve" smooth="yes"/>
      <point x="1877" y="235" type="line"/>
      <point x="1760" y="352" type="line" smooth="yes"/>
      <point x="1643" y="470"/>
      <point x="1409" y="704"/>
      <point x="1409" y="704" type="qcurve"/>
      <point x="1365" y="748"/>
      <point x="1303" y="748" type="qcurve" smooth="yes"/>
      <point x="1239" y="748"/>
      <point x="1195" y="701" type="qcurve" smooth="yes"/>
      <point x="463" y="-69" type="line"/>
      <point x="192" y="-69" type="line" smooth="yes"/>
      <point x="183" y="-69"/>
      <point x="171" y="-56"/>
      <point x="171" y="-47" type="qcurve" smooth="yes"/>
      <point x="171" y="1275" type="line" smooth="yes"/>
      <point x="171" y="1284"/>
      <point x="183" y="1297"/>
      <point x="192" y="1297" type="qcurve" smooth="yes"/>
    </contour>
    <contour>
      <point x="1877" y="-56"/>
      <point x="1865" y="-69"/>
      <point x="1856" y="-69" type="qcurve" smooth="yes"/>
      <point x="640" y="-69" type="line"/>
      <point x="1287" y="613" type="line" smooth="yes"/>
      <point x="1294" y="620"/>
      <point x="1303" y="620" type="qcurve" smooth="yes"/>
      <point x="1312" y="620"/>
      <point x="1318" y="613" type="qcurve" smooth="yes"/>
      <point x="1877" y="54" type="line"/>
      <point x="1877" y="-47" type="line" smooth="yes"/>
    </contour>
    <contour>
      <point x="733" y="1126"/>
      <point x="504" y="1126"/>
      <point x="341" y="963"/>
      <point x="341" y="734"/>
      <point x="504" y="571"/>
      <point x="733" y="571"/>
      <point x="896" y="734"/>
      <point x="896" y="963"/>
    </contour>
    <contour>
      <point x="680" y="699"/>
      <point x="557" y="699"/>
      <point x="469" y="787"/>
      <point x="469" y="910"/>
      <point x="557" y="998"/>
      <point x="680" y="998"/>
      <point x="768" y="910"/>
      <point x="768" y="787"/>
    </contour>
  </outline>
</glyph>
<glyph name="file-zip" format="2">
  <advance width="2048"/>
  <unicode hex="F410"/>
  <note>
file-zip
</note>
  <outline>
    <contour>
      <point x="448" y="1427"/>
      <point x="467" y="1446"/>
      <point x="480" y="1446" type="qcurve" smooth="yes"/>
      <point x="864" y="1446" type="line" smooth="yes"/>
      <point x="824" y="1446"/>
      <point x="768" y="1390"/>
      <point x="768" y="1310"/>
      <point x="824" y="1254"/>
      <point x="864" y="1254" type="qcurve" smooth="yes"/>
      <point x="928" y="1254" type="line" smooth="yes"/>
      <point x="968" y="1254"/>
      <point x="1024" y="1310"/>
      <point x="1024" y="1390"/>
      <point x="968" y="1446"/>
      <point x="928" y="1446" type="qcurve" smooth="yes"/>
      <point x="995" y="1446" type="line" smooth="yes"/>
      <point x="1062" y="1446"/>
      <point x="1195" y="1446"/>
      <point x="1195" y="1446" type="qcurve"/>
      <point x="1208" y="1446"/>
      <point x="1218" y="1437" type="qcurve" smooth="yes"/>
      <point x="1591" y="1064" type="line" smooth="yes"/>
      <point x="1600" y="1054"/>
      <point x="1600" y="1041" type="qcurve" smooth="yes"/>
      <point x="1600" y="-58" type="line" smooth="yes"/>
      <point x="1600" y="-71"/>
      <point x="1581" y="-90"/>
      <point x="1568" y="-90" type="qcurve" smooth="yes"/>
      <point x="1504" y="-90" type="line" smooth="yes"/>
      <point x="1464" y="-90"/>
      <point x="1408" y="-146"/>
      <point x="1408" y="-226"/>
      <point x="1464" y="-282"/>
      <point x="1504" y="-282" type="qcurve" smooth="yes"/>
      <point x="1568" y="-282" type="line" smooth="yes"/>
      <point x="1661" y="-282"/>
      <point x="1792" y="-151"/>
      <point x="1792" y="-58" type="qcurve" smooth="yes"/>
      <point x="1792" y="1041" type="line" smooth="yes"/>
      <point x="1792" y="1134"/>
      <point x="1726" y="1199" type="qcurve" smooth="yes"/>
      <point x="1353" y="1572" type="line" smooth="yes"/>
      <point x="1288" y="1638"/>
      <point x="1195" y="1638" type="qcurve" smooth="yes"/>
      <point x="480" y="1638" type="line" smooth="yes"/>
      <point x="387" y="1638"/>
      <point x="256" y="1507"/>
      <point x="256" y="1414" type="qcurve" smooth="yes"/>
      <point x="256" y="-58" type="line" smooth="yes"/>
      <point x="256" y="-119"/>
      <point x="317" y="-222"/>
      <point x="368" y="-252" type="qcurve" smooth="yes"/>
      <point x="390" y="-265"/>
      <point x="416" y="-265" type="qcurve" smooth="yes"/>
      <point x="456" y="-265"/>
      <point x="512" y="-209"/>
      <point x="512" y="-169" type="qcurve" smooth="yes"/>
      <point x="512" y="-143"/>
      <point x="486" y="-98"/>
      <point x="464" y="-86" type="qcurve" smooth="yes"/>
      <point x="448" y="-77"/>
      <point x="448" y="-58" type="qcurve" smooth="yes"/>
      <point x="448" y="1414" type="line" smooth="yes"/>
    </contour>
    <contour>
      <point x="835" y="294"/>
      <point x="704" y="163"/>
      <point x="704" y="70" type="qcurve" smooth="yes"/>
      <point x="704" y="-314" type="line" smooth="yes"/>
      <point x="704" y="-354"/>
      <point x="760" y="-410"/>
      <point x="800" y="-410" type="qcurve" smooth="yes"/>
      <point x="1120" y="-410" type="line" smooth="yes"/>
      <point x="1160" y="-410"/>
      <point x="1216" y="-354"/>
      <point x="1216" y="-314" type="qcurve" smooth="yes"/>
      <point x="1216" y="70" type="line" smooth="yes"/>
      <point x="1216" y="163"/>
      <point x="1085" y="294"/>
      <point x="992" y="294" type="qcurve" smooth="yes"/>
      <point x="928" y="294" type="line" smooth="yes"/>
    </contour>
    <contour>
      <point x="824" y="870"/>
      <point x="864" y="870" type="qcurve" smooth="yes"/>
      <point x="928" y="870" type="line" smooth="yes"/>
      <point x="968" y="870"/>
      <point x="1024" y="926"/>
      <point x="1024" y="1006"/>
      <point x="968" y="1062"/>
      <point x="928" y="1062" type="qcurve" smooth="yes"/>
      <point x="864" y="1062" type="line" smooth="yes"/>
      <point x="824" y="1062"/>
      <point x="768" y="1006"/>
      <point x="768" y="926"/>
    </contour>
    <contour>
      <point x="824" y="678"/>
      <point x="768" y="622"/>
      <point x="768" y="542"/>
      <point x="824" y="486"/>
      <point x="864" y="486" type="qcurve" smooth="yes"/>
      <point x="928" y="486" type="line" smooth="yes"/>
      <point x="968" y="486"/>
      <point x="1024" y="542"/>
      <point x="1024" y="622"/>
      <point x="968" y="678"/>
      <point x="928" y="678" type="qcurve" smooth="yes"/>
      <point x="864" y="678" type="line" smooth="yes"/>
    </contour>
    <contour>
      <point x="1080" y="678"/>
      <point x="1120" y="678" type="qcurve" smooth="yes"/>
      <point x="1184" y="678" type="line" smooth="yes"/>
      <point x="1224" y="678"/>
      <point x="1280" y="734"/>
      <point x="1280" y="814"/>
      <point x="1224" y="870"/>
      <point x="1184" y="870" type="qcurve" smooth="yes"/>
      <point x="1120" y="870" type="line" smooth="yes"/>
      <point x="1080" y="870"/>
      <point x="1024" y="814"/>
      <point x="1024" y="734"/>
    </contour>
    <contour>
      <point x="1080" y="1254"/>
      <point x="1024" y="1198"/>
      <point x="1024" y="1118"/>
      <point x="1080" y="1062"/>
      <point x="1120" y="1062" type="qcurve" smooth="yes"/>
      <point x="1184" y="1062" type="line" smooth="yes"/>
      <point x="1224" y="1062"/>
      <point x="1280" y="1118"/>
      <point x="1280" y="1198"/>
      <point x="1224" y="1254"/>
      <point x="1184" y="1254" type="qcurve" smooth="yes"/>
      <point x="1120" y="1254" type="line" smooth="yes"/>
    </contour>
    <contour>
      <point x="1080" y="294"/>
      <point x="1120" y="294" type="qcurve" smooth="yes"/>
      <point x="1184" y="294" type="line" smooth="yes"/>
      <point x="1224" y="294"/>
      <point x="1280" y="350"/>
      <point x="1280" y="430"/>
      <point x="1224" y="486"/>
      <point x="1184" y="486" type="qcurve" smooth="yes"/>
      <point x="1120" y="486" type="line" smooth="yes"/>
      <point x="1080" y="486"/>
      <point x="1024" y="430"/>
      <point x="1024" y="350"/>
    </contour>
    <contour>
      <point x="896" y="83"/>
      <point x="915" y="102"/>
      <point x="928" y="102" type="qcurve" smooth="yes"/>
      <point x="992" y="102" type="line" smooth="yes"/>
      <point x="1005" y="102"/>
      <point x="1024" y="83"/>
      <point x="1024" y="70" type="qcurve" smooth="yes"/>
      <point x="1024" y="-218" type="line"/>
      <point x="896" y="-218" type="line"/>
      <point x="896" y="70" type="line" smooth="yes"/>
    </contour>
  </outline>
</glyph>
<glyph name="archive" format="2">
  <advance width="2048"/>
  <unicode hex="F411"/>
  <note>
archive
</note>
  <outline>
    <contour>
      <point x="0" y="1094" type="line" smooth="yes"/>
      <point x="0" y="1001"/>
      <point x="131" y="870"/>
      <point x="224" y="870" type="qcurve" smooth="yes"/>
      <point x="1824" y="870" type="line" smooth="yes"/>
      <point x="1917" y="870"/>
      <point x="2048" y="1001"/>
      <point x="2048" y="1094" type="qcurve" smooth="yes"/>
      <point x="2048" y="1286" type="line" smooth="yes"/>
      <point x="2048" y="1379"/>
      <point x="1917" y="1510"/>
      <point x="1824" y="1510" type="qcurve" smooth="yes"/>
      <point x="224" y="1510" type="line" smooth="yes"/>
      <point x="131" y="1510"/>
      <point x="0" y="1379"/>
      <point x="0" y="1286" type="qcurve" smooth="yes"/>
    </contour>
    <contour>
      <point x="128" y="686"/>
      <point x="128" y="646" type="qcurve" smooth="yes"/>
      <point x="128" y="-58" type="line" smooth="yes"/>
      <point x="128" y="-151"/>
      <point x="259" y="-282"/>
      <point x="352" y="-282" type="qcurve" smooth="yes"/>
      <point x="1696" y="-282" type="line" smooth="yes"/>
      <point x="1789" y="-282"/>
      <point x="1920" y="-151"/>
      <point x="1920" y="-58" type="qcurve" smooth="yes"/>
      <point x="1920" y="646" type="line" smooth="yes"/>
      <point x="1920" y="686"/>
      <point x="1864" y="742"/>
      <point x="1784" y="742"/>
      <point x="1728" y="686"/>
      <point x="1728" y="646" type="qcurve" smooth="yes"/>
      <point x="1728" y="-58" type="line" smooth="yes"/>
      <point x="1728" y="-71"/>
      <point x="1709" y="-90"/>
      <point x="1696" y="-90" type="qcurve" smooth="yes"/>
      <point x="352" y="-90" type="line" smooth="yes"/>
      <point x="339" y="-90"/>
      <point x="320" y="-71"/>
      <point x="320" y="-58" type="qcurve" smooth="yes"/>
      <point x="320" y="646" type="line" smooth="yes"/>
      <point x="320" y="686"/>
      <point x="264" y="742"/>
      <point x="184" y="742"/>
    </contour>
    <contour>
      <point x="1824" y="1318" type="line" smooth="yes"/>
      <point x="1837" y="1318"/>
      <point x="1856" y="1299"/>
      <point x="1856" y="1286" type="qcurve" smooth="yes"/>
      <point x="1856" y="1094" type="line" smooth="yes"/>
      <point x="1856" y="1081"/>
      <point x="1837" y="1062"/>
      <point x="1824" y="1062" type="qcurve" smooth="yes"/>
      <point x="224" y="1062" type="line" smooth="yes"/>
      <point x="211" y="1062"/>
      <point x="192" y="1081"/>
      <point x="192" y="1094" type="qcurve" smooth="yes"/>
      <point x="192" y="1286" type="line" smooth="yes"/>
      <point x="192" y="1299"/>
      <point x="211" y="1318"/>
      <point x="224" y="1318" type="qcurve" smooth="yes"/>
    </contour>
    <contour>
      <point x="760" y="614"/>
      <point x="704" y="558"/>
      <point x="704" y="478"/>
      <point x="760" y="422"/>
      <point x="800" y="422" type="qcurve" smooth="yes"/>
      <point x="1248" y="422" type="line" smooth="yes"/>
      <point x="1288" y="422"/>
      <point x="1344" y="478"/>
      <point x="1344" y="558"/>
      <point x="1288" y="614"/>
      <point x="1248" y="614" type="qcurve" smooth="yes"/>
      <point x="800" y="614" type="line" smooth="yes"/>
    </contour>
  </outline>
</glyph>
<glyph name="tag" format="2">
  <advance width="2048"/>
  <unicode hex="F412"/>
  <note>
tag
</note>
  <outline>
    <contour>
      <point x="128" y="550"/>
      <point x="194" y="484" type="qcurve" smooth="yes"/>
      <point x="394" y="284" type="line" smooth="yes"/>
      <point x="594" y="84"/>
      <point x="994" y="-316"/>
      <point x="994" y="-316" type="qcurve"/>
      <point x="1059" y="-381"/>
      <point x="1245" y="-381"/>
      <point x="1310" y="-316" type="qcurve" smooth="yes"/>
      <point x="1954" y="328" type="line" smooth="yes"/>
      <point x="2019" y="393"/>
      <point x="2019" y="579"/>
      <point x="1954" y="644" type="qcurve" smooth="yes"/>
      <point x="1154" y="1444" type="line" smooth="yes"/>
      <point x="1088" y="1510"/>
      <point x="995" y="1510" type="qcurve" smooth="yes"/>
      <point x="352" y="1510" type="line" smooth="yes"/>
      <point x="259" y="1510"/>
      <point x="128" y="1379"/>
      <point x="128" y="1286" type="qcurve" smooth="yes"/>
      <point x="128" y="643" type="line" smooth="yes"/>
    </contour>
    <contour>
      <point x="320" y="1286" type="line" smooth="yes"/>
      <point x="320" y="1299"/>
      <point x="339" y="1318"/>
      <point x="352" y="1318" type="qcurve" smooth="yes"/>
      <point x="513" y="1318" type="line" smooth="yes"/>
      <point x="674" y="1318"/>
      <point x="995" y="1318"/>
      <point x="995" y="1318" type="qcurve"/>
      <point x="1008" y="1318"/>
      <point x="1018" y="1309" type="qcurve" smooth="yes"/>
      <point x="1818" y="509" type="line" smooth="yes"/>
      <point x="1827" y="499"/>
      <point x="1827" y="473"/>
      <point x="1818" y="463" type="qcurve" smooth="yes"/>
      <point x="1657" y="303" type="line" smooth="yes"/>
      <point x="1496" y="142"/>
      <point x="1175" y="-180"/>
      <point x="1175" y="-180" type="qcurve"/>
      <point x="1165" y="-189"/>
      <point x="1139" y="-189"/>
      <point x="1129" y="-180" type="qcurve" smooth="yes"/>
      <point x="329" y="620" type="line" smooth="yes"/>
      <point x="320" y="629"/>
      <point x="320" y="643" type="qcurve" smooth="yes"/>
    </contour>
    <contour>
      <point x="640" y="923"/>
      <point x="640" y="817"/>
      <point x="715" y="742"/>
      <point x="821" y="742"/>
      <point x="896" y="817"/>
      <point x="896" y="923"/>
      <point x="821" y="998"/>
      <point x="715" y="998"/>
    </contour>
  </outline>
</glyph>
<glyph name="file-directory" format="2">
  <advance width="2048"/>
  <unicode hex="F413"/>
  <note>
file-directory
</note>
  <outline>
    <contour>
      <point x="0" y="-58" type="line" smooth="yes"/>
      <point x="0" y="-151"/>
      <point x="131" y="-282"/>
      <point x="224" y="-282" type="qcurve" smooth="yes"/>
      <point x="1824" y="-282" type="line" smooth="yes"/>
      <point x="1917" y="-282"/>
      <point x="2048" y="-151"/>
      <point x="2048" y="-58" type="qcurve" smooth="yes"/>
      <point x="2048" y="1030" type="line" smooth="yes"/>
      <point x="2048" y="1123"/>
      <point x="1917" y="1254"/>
      <point x="1824" y="1254" type="qcurve" smooth="yes"/>
      <point x="960" y="1254" type="line" smooth="yes"/>
      <point x="944" y="1254"/>
      <point x="934" y="1267" type="qcurve" smooth="yes"/>
      <point x="819" y="1420" type="line" smooth="yes"/>
      <point x="788" y="1463"/>
      <point x="693" y="1510"/>
      <point x="640" y="1510" type="qcurve" smooth="yes"/>
      <point x="224" y="1510" type="line" smooth="yes"/>
      <point x="131" y="1510"/>
      <point x="0" y="1379"/>
      <point x="0" y="1286" type="qcurve" smooth="yes"/>
    </contour>
    <contour>
      <point x="640" y="1318" type="line" smooth="yes"/>
      <point x="656" y="1318"/>
      <point x="666" y="1305" type="qcurve" smooth="yes"/>
      <point x="781" y="1152" type="line" smooth="yes"/>
      <point x="812" y="1109"/>
      <point x="907" y="1062"/>
      <point x="960" y="1062" type="qcurve" smooth="yes"/>
      <point x="1824" y="1062" type="line" smooth="yes"/>
      <point x="1837" y="1062"/>
      <point x="1856" y="1043"/>
      <point x="1856" y="1030" type="qcurve" smooth="yes"/>
      <point x="1856" y="-58" type="line" smooth="yes"/>
      <point x="1856" y="-71"/>
      <point x="1837" y="-90"/>
      <point x="1824" y="-90" type="qcurve" smooth="yes"/>
      <point x="224" y="-90" type="line" smooth="yes"/>
      <point x="211" y="-90"/>
      <point x="192" y="-71"/>
      <point x="192" y="-58" type="qcurve" smooth="yes"/>
      <point x="192" y="1286" type="line" smooth="yes"/>
      <point x="192" y="1299"/>
      <point x="211" y="1318"/>
      <point x="224" y="1318" type="qcurve" smooth="yes"/>
    </contour>
  </outline>
</glyph>
<glyph name="file-submodule" format="2">
  <advance width="2048"/>
  <unicode hex="F414"/>
  <note>
file-submodule
</note>
  <outline>
    <contour>
      <point x="0" y="-58" type="line" smooth="yes"/>
      <point x="0" y="-151"/>
      <point x="131" y="-282"/>
      <point x="224" y="-282" type="qcurve" smooth="yes"/>
      <point x="1824" y="-282" type="line" smooth="yes"/>
      <point x="1917" y="-282"/>
      <point x="2048" y="-151"/>
      <point x="2048" y="-58" type="qcurve" smooth="yes"/>
      <point x="2048" y="1030" type="line" smooth="yes"/>
      <point x="2048" y="1123"/>
      <point x="1917" y="1254"/>
      <point x="1824" y="1254" type="qcurve" smooth="yes"/>
      <point x="960" y="1254" type="line" smooth="yes"/>
      <point x="944" y="1254"/>
      <point x="934" y="1267" type="qcurve" smooth="yes"/>
      <point x="819" y="1420" type="line" smooth="yes"/>
      <point x="788" y="1463"/>
      <point x="693" y="1510"/>
      <point x="640" y="1510" type="qcurve" smooth="yes"/>
      <point x="224" y="1510" type="line" smooth="yes"/>
      <point x="131" y="1510"/>
      <point x="0" y="1379"/>
      <point x="0" y="1286" type="qcurve" smooth="yes"/>
    </contour>
    <contour>
      <point x="1190" y="74"/>
      <point x="1152" y="90"/>
      <point x="1152" y="111" type="qcurve" smooth="yes"/>
      <point x="1152" y="358" type="line"/>
      <point x="608" y="358" type="line" smooth="yes"/>
      <point x="568" y="358"/>
      <point x="512" y="414"/>
      <point x="512" y="494"/>
      <point x="568" y="550"/>
      <point x="608" y="550" type="qcurve" smooth="yes"/>
      <point x="1152" y="550" type="line"/>
      <point x="1152" y="797" type="line" smooth="yes"/>
      <point x="1152" y="810"/>
      <point x="1171" y="829"/>
      <point x="1184" y="829" type="qcurve" smooth="yes"/>
      <point x="1197" y="829"/>
      <point x="1206" y="820" type="qcurve" smooth="yes"/>
      <point x="1575" y="477" type="line" smooth="yes"/>
      <point x="1585" y="468"/>
      <point x="1585" y="440"/>
      <point x="1575" y="431" type="qcurve" smooth="yes"/>
      <point x="1206" y="88" type="line" smooth="yes"/>
    </contour>
  </outline>
</glyph>
<glyph name="person" format="2">
  <advance width="2048"/>
  <unicode hex="F415"/>
  <note>
person
</note>
  <outline>
    <contour>
      <point x="1438" y="676"/>
      <point x="1535" y="881"/>
      <point x="1535" y="998" type="qcurve" smooth="yes"/>
      <point x="1535" y="1102"/>
      <point x="1454" y="1292"/>
      <point x="1317" y="1429"/>
      <point x="1128" y="1510"/>
      <point x="920" y="1510"/>
      <point x="730" y="1429"/>
      <point x="593" y="1292"/>
      <point x="512" y="1102"/>
      <point x="512" y="998" type="qcurve" smooth="yes"/>
      <point x="512" y="882"/>
      <point x="610" y="676"/>
      <point x="696" y="605" type="qcurve"/>
      <point x="506" y="515"/>
      <point x="267" y="162"/>
      <point x="257" y="-54" type="qcurve" smooth="yes"/>
      <point x="257" y="-55"/>
      <point x="257" y="-56" type="qcurve" smooth="yes"/>
      <point x="257" y="-96"/>
      <point x="313" y="-152"/>
      <point x="353" y="-152" type="qcurve" smooth="yes"/>
      <point x="391" y="-152"/>
      <point x="446" y="-100"/>
      <point x="449" y="-62" type="qcurve" smooth="yes"/>
      <point x="454" y="50"/>
      <point x="549" y="253"/>
      <point x="702" y="400"/>
      <point x="910" y="486"/>
      <point x="1138" y="486"/>
      <point x="1346" y="400"/>
      <point x="1499" y="253"/>
      <point x="1594" y="50"/>
      <point x="1599" y="-62" type="qcurve" smooth="yes"/>
      <point x="1600" y="-101"/>
      <point x="1656" y="-156"/>
      <point x="1695" y="-156" type="qcurve" smooth="yes"/>
      <point x="1735" y="-156"/>
      <point x="1791" y="-100"/>
      <point x="1791" y="-60" type="qcurve" smooth="yes"/>
      <point x="1791" y="-57"/>
      <point x="1791" y="-54" type="qcurve" smooth="yes"/>
      <point x="1781" y="162"/>
      <point x="1542" y="515"/>
      <point x="1352" y="605" type="qcurve"/>
    </contour>
    <contour>
      <point x="1156" y="678"/>
      <point x="892" y="678"/>
      <point x="704" y="866"/>
      <point x="704" y="1130"/>
      <point x="892" y="1318"/>
      <point x="1156" y="1318"/>
      <point x="1344" y="1130"/>
      <point x="1344" y="866"/>
    </contour>
  </outline>
</glyph>
<glyph name="arrow-both" format="2">
  <advance width="2048"/>
  <unicode hex="F416"/>
  <note>
arrow-both
</note>
  <outline>
    <contour>
      <point x="28" y="714" type="line" smooth="yes"/>
      <point x="0" y="686"/>
      <point x="0" y="606"/>
      <point x="28" y="578" type="qcurve" smooth="yes"/>
      <point x="476" y="130" type="line" smooth="yes"/>
      <point x="505" y="100"/>
      <point x="546" y="100" type="qcurve" smooth="yes"/>
      <point x="558" y="100"/>
      <point x="570" y="103" type="qcurve" smooth="yes"/>
      <point x="602" y="111"/>
      <point x="643" y="162"/>
      <point x="643" y="196" type="qcurve" smooth="yes"/>
      <point x="643" y="237"/>
      <point x="612" y="266" type="qcurve" smooth="yes"/>
      <point x="328" y="550" type="line"/>
      <point x="1720" y="550" type="line"/>
      <point x="1436" y="266" type="line" smooth="yes"/>
      <point x="1406" y="237"/>
      <point x="1406" y="196" type="qcurve" smooth="yes"/>
      <point x="1406" y="184"/>
      <point x="1409" y="172" type="qcurve" smooth="yes"/>
      <point x="1417" y="140"/>
      <point x="1468" y="99"/>
      <point x="1502" y="99" type="qcurve" smooth="yes"/>
      <point x="1543" y="99"/>
      <point x="1572" y="130" type="qcurve" smooth="yes"/>
      <point x="2020" y="578" type="line" smooth="yes"/>
      <point x="2048" y="606"/>
      <point x="2048" y="686"/>
      <point x="2020" y="714" type="qcurve" smooth="yes"/>
      <point x="1908" y="826" type="line" smooth="yes"/>
      <point x="1796" y="938"/>
      <point x="1572" y="1162"/>
      <point x="1572" y="1162" type="qcurve"/>
      <point x="1544" y="1188"/>
      <point x="1506" y="1188" type="qcurve" smooth="yes"/>
      <point x="1467" y="1188"/>
      <point x="1410" y="1131"/>
      <point x="1410" y="1092" type="qcurve" smooth="yes"/>
      <point x="1410" y="1054"/>
      <point x="1436" y="1026" type="qcurve" smooth="yes"/>
      <point x="1720" y="742" type="line"/>
      <point x="328" y="742" type="line"/>
      <point x="399" y="813" type="line" smooth="yes"/>
      <point x="470" y="884"/>
      <point x="612" y="1026"/>
      <point x="612" y="1026" type="qcurve"/>
      <point x="638" y="1054"/>
      <point x="638" y="1092" type="qcurve" smooth="yes"/>
      <point x="638" y="1131"/>
      <point x="581" y="1188"/>
      <point x="542" y="1188" type="qcurve" smooth="yes"/>
      <point x="504" y="1188"/>
      <point x="476" y="1162" type="qcurve" smooth="yes"/>
    </contour>
  </outline>
</glyph>
<glyph name="git-commit" format="2">
  <advance width="2048"/>
  <unicode hex="F417"/>
  <note>
git-commit
</note>
  <outline>
    <contour>
      <point x="1952" y="550" type="line" smooth="yes"/>
      <point x="1992" y="550"/>
      <point x="2048" y="606"/>
      <point x="2048" y="686"/>
      <point x="1992" y="742"/>
      <point x="1952" y="742" type="qcurve" smooth="yes"/>
      <point x="1943" y="742" type="line"/>
      <point x="1941" y="742" type="line"/>
      <point x="1939" y="742" type="line"/>
      <point x="1937" y="742" type="line"/>
      <point x="1935" y="742" type="line"/>
      <point x="1933" y="742" type="line"/>
      <point x="1931" y="742" type="line"/>
      <point x="1930" y="742" type="line"/>
      <point x="1928" y="742" type="line"/>
      <point x="1926" y="742" type="line"/>
      <point x="1924" y="742" type="line"/>
      <point x="1922" y="742" type="line"/>
      <point x="1920" y="742" type="line"/>
      <point x="1918" y="742" type="line"/>
      <point x="1917" y="742" type="line"/>
      <point x="1915" y="742" type="line"/>
      <point x="1913" y="742" type="line"/>
      <point x="1911" y="742" type="line"/>
      <point x="1909" y="742" type="line"/>
      <point x="1907" y="742" type="line"/>
      <point x="1906" y="742" type="line"/>
      <point x="1904" y="742" type="line"/>
      <point x="1902" y="742" type="line"/>
      <point x="1900" y="742" type="line"/>
      <point x="1898" y="742" type="line"/>
      <point x="1896" y="742" type="line"/>
      <point x="1895" y="742" type="line"/>
      <point x="1893" y="742" type="line"/>
      <point x="1891" y="742" type="line"/>
      <point x="1889" y="742" type="line"/>
      <point x="1887" y="742" type="line"/>
      <point x="1886" y="742" type="line"/>
      <point x="1884" y="742" type="line"/>
      <point x="1882" y="742" type="line"/>
      <point x="1880" y="742" type="line"/>
      <point x="1879" y="742" type="line"/>
      <point x="1877" y="742" type="line"/>
      <point x="1875" y="742" type="line"/>
      <point x="1873" y="742" type="line"/>
      <point x="1871" y="742" type="line"/>
      <point x="1870" y="742" type="line"/>
      <point x="1868" y="742" type="line"/>
      <point x="1866" y="742" type="line"/>
      <point x="1864" y="742" type="line"/>
      <point x="1863" y="742" type="line"/>
      <point x="1861" y="742" type="line"/>
      <point x="1859" y="742" type="line"/>
      <point x="1857" y="742" type="line"/>
      <point x="1856" y="742" type="line"/>
      <point x="1854" y="742" type="line"/>
      <point x="1852" y="742" type="line"/>
      <point x="1851" y="742" type="line"/>
      <point x="1849" y="742" type="line"/>
      <point x="1847" y="742" type="line"/>
      <point x="1845" y="742" type="line"/>
      <point x="1844" y="742" type="line"/>
      <point x="1842" y="742" type="line"/>
      <point x="1840" y="742" type="line"/>
      <point x="1839" y="742" type="line"/>
      <point x="1837" y="742" type="line"/>
      <point x="1835" y="742" type="line"/>
      <point x="1833" y="742" type="line"/>
      <point x="1832" y="742" type="line"/>
      <point x="1830" y="742" type="line"/>
      <point x="1828" y="742" type="line"/>
      <point x="1827" y="742" type="line"/>
      <point x="1825" y="742" type="line"/>
      <point x="1823" y="742" type="line"/>
      <point x="1822" y="742" type="line"/>
      <point x="1820" y="742" type="line"/>
      <point x="1818" y="742" type="line"/>
      <point x="1817" y="742" type="line"/>
      <point x="1815" y="742" type="line"/>
      <point x="1813" y="742" type="line"/>
      <point x="1812" y="742" type="line"/>
      <point x="1810" y="742" type="line"/>
      <point x="1808" y="742" type="line"/>
      <point x="1807" y="742" type="line"/>
      <point x="1805" y="742" type="line"/>
      <point x="1803" y="742" type="line"/>
      <point x="1802" y="742" type="line"/>
      <point x="1800" y="742" type="line"/>
      <point x="1799" y="742" type="line"/>
      <point x="1797" y="742" type="line"/>
      <point x="1795" y="742" type="line"/>
      <point x="1794" y="742" type="line"/>
      <point x="1792" y="742" type="line"/>
      <point x="1791" y="742" type="line"/>
      <point x="1789" y="742" type="line"/>
      <point x="1787" y="742" type="line"/>
      <point x="1786" y="742" type="line"/>
      <point x="1784" y="742" type="line"/>
      <point x="1783" y="742" type="line"/>
      <point x="1781" y="742" type="line"/>
      <point x="1779" y="742" type="line"/>
      <point x="1778" y="742" type="line"/>
      <point x="1776" y="742" type="line"/>
      <point x="1775" y="742" type="line"/>
      <point x="1773" y="742" type="line"/>
      <point x="1771" y="742" type="line"/>
      <point x="1770" y="742" type="line"/>
      <point x="1768" y="742" type="line"/>
      <point x="1767" y="742" type="line"/>
      <point x="1765" y="742" type="line"/>
      <point x="1764" y="742" type="line"/>
      <point x="1762" y="742" type="line"/>
      <point x="1761" y="742" type="line"/>
      <point x="1759" y="742" type="line"/>
      <point x="1757" y="742" type="line"/>
      <point x="1756" y="742" type="line"/>
      <point x="1754" y="742" type="line"/>
      <point x="1753" y="742" type="line"/>
      <point x="1751" y="742" type="line"/>
      <point x="1750" y="742" type="line"/>
      <point x="1748" y="742" type="line"/>
      <point x="1747" y="742" type="line"/>
      <point x="1745" y="742" type="line"/>
      <point x="1744" y="742" type="line"/>
      <point x="1742" y="742" type="line"/>
      <point x="1741" y="742" type="line"/>
      <point x="1739" y="742" type="line"/>
      <point x="1738" y="742" type="line"/>
      <point x="1736" y="742" type="line"/>
      <point x="1735" y="742" type="line"/>
      <point x="1733" y="742" type="line"/>
      <point x="1732" y="742" type="line"/>
      <point x="1730" y="742" type="line"/>
      <point x="1729" y="742" type="line"/>
      <point x="1727" y="742" type="line"/>
      <point x="1726" y="742" type="line"/>
      <point x="1724" y="742" type="line"/>
      <point x="1723" y="742" type="line"/>
      <point x="1722" y="742" type="line"/>
      <point x="1720" y="742" type="line"/>
      <point x="1719" y="742" type="line"/>
      <point x="1717" y="742" type="line"/>
      <point x="1716" y="742" type="line"/>
      <point x="1714" y="742" type="line"/>
      <point x="1713" y="742" type="line"/>
      <point x="1711" y="742" type="line"/>
      <point x="1710" y="742" type="line"/>
      <point x="1709" y="742" type="line"/>
      <point x="1707" y="742" type="line"/>
      <point x="1706" y="742" type="line"/>
      <point x="1704" y="742" type="line"/>
      <point x="1703" y="742" type="line"/>
      <point x="1702" y="742" type="line"/>
      <point x="1700" y="742" type="line"/>
      <point x="1699" y="742" type="line"/>
      <point x="1697" y="742" type="line"/>
      <point x="1696" y="742" type="line"/>
      <point x="1695" y="742" type="line"/>
      <point x="1693" y="742" type="line"/>
      <point x="1692" y="742" type="line"/>
      <point x="1690" y="742" type="line"/>
      <point x="1689" y="742" type="line"/>
      <point x="1688" y="742" type="line"/>
      <point x="1686" y="742" type="line"/>
      <point x="1685" y="742" type="line"/>
      <point x="1684" y="742" type="line"/>
      <point x="1682" y="742" type="line"/>
      <point x="1681" y="742" type="line"/>
      <point x="1680" y="742" type="line"/>
      <point x="1678" y="742" type="line"/>
      <point x="1677" y="742" type="line"/>
      <point x="1676" y="742" type="line"/>
      <point x="1674" y="742" type="line"/>
      <point x="1673" y="742" type="line"/>
      <point x="1672" y="742" type="line"/>
      <point x="1670" y="742" type="line"/>
      <point x="1669" y="742" type="line"/>
      <point x="1668" y="742" type="line"/>
      <point x="1666" y="742" type="line"/>
      <point x="1665" y="742" type="line"/>
      <point x="1664" y="742" type="line"/>
      <point x="1662" y="742" type="line"/>
      <point x="1661" y="742" type="line"/>
      <point x="1660" y="742" type="line"/>
      <point x="1659" y="742" type="line"/>
      <point x="1657" y="742" type="line"/>
      <point x="1656" y="742" type="line"/>
      <point x="1655" y="742" type="line"/>
      <point x="1654" y="742" type="line"/>
      <point x="1652" y="742" type="line"/>
      <point x="1651" y="742" type="line"/>
      <point x="1650" y="742" type="line"/>
      <point x="1649" y="742" type="line"/>
      <point x="1647" y="742" type="line"/>
      <point x="1646" y="742" type="line"/>
      <point x="1645" y="742" type="line"/>
      <point x="1644" y="742" type="line"/>
      <point x="1642" y="742" type="line"/>
      <point x="1641" y="742" type="line"/>
      <point x="1640" y="742" type="line"/>
      <point x="1639" y="742" type="line"/>
      <point x="1638" y="742" type="line"/>
      <point x="1636" y="742" type="line"/>
      <point x="1635" y="742" type="line"/>
      <point x="1634" y="742" type="line"/>
      <point x="1633" y="742" type="line"/>
      <point x="1632" y="742" type="line"/>
      <point x="1630" y="742" type="line"/>
      <point x="1629" y="742" type="line"/>
      <point x="1628" y="742" type="line"/>
      <point x="1627" y="742" type="line"/>
      <point x="1626" y="742" type="line"/>
      <point x="1625" y="742" type="line"/>
      <point x="1623" y="742" type="line"/>
      <point x="1622" y="742" type="line"/>
      <point x="1621" y="742" type="line"/>
      <point x="1620" y="742" type="line"/>
      <point x="1619" y="742" type="line"/>
      <point x="1618" y="742" type="line"/>
      <point x="1617" y="742" type="line"/>
      <point x="1616" y="742" type="line"/>
      <point x="1614" y="742" type="line"/>
      <point x="1613" y="742" type="line"/>
      <point x="1612" y="742" type="line"/>
      <point x="1611" y="742" type="line"/>
      <point x="1610" y="742" type="line"/>
      <point x="1609" y="742" type="line"/>
      <point x="1608" y="742" type="line"/>
      <point x="1607" y="742" type="line"/>
      <point x="1606" y="742" type="line"/>
      <point x="1605" y="742" type="line"/>
      <point x="1604" y="742" type="line"/>
      <point x="1603" y="742" type="line"/>
      <point x="1602" y="742" type="line"/>
      <point x="1601" y="742" type="line"/>
      <point x="1600" y="742" type="line"/>
      <point x="1598" y="742" type="line"/>
      <point x="1597" y="742" type="line"/>
      <point x="1596" y="742" type="line"/>
      <point x="1595" y="742" type="line"/>
      <point x="1594" y="742" type="line"/>
      <point x="1593" y="742" type="line"/>
      <point x="1592" y="742" type="line"/>
      <point x="1591" y="742" type="line"/>
      <point x="1590" y="742" type="line"/>
      <point x="1589" y="742" type="line"/>
      <point x="1588" y="742" type="line"/>
      <point x="1587" y="742" type="line"/>
      <point x="1586" y="742" type="line"/>
      <point x="1585" y="742" type="line"/>
      <point x="1584" y="742" type="line"/>
      <point x="1583" y="742" type="line"/>
      <point x="1582" y="742" type="line"/>
      <point x="1581" y="742" type="line"/>
      <point x="1580" y="742" type="line"/>
      <point x="1579" y="742" type="line"/>
      <point x="1578" y="742" type="line"/>
      <point x="1577" y="742" type="line"/>
      <point x="1576" y="742" type="line"/>
      <point x="1575" y="742" type="line"/>
      <point x="1574" y="742" type="line"/>
      <point x="1573" y="742" type="line"/>
      <point x="1572" y="742" type="line"/>
      <point x="1571" y="742" type="line"/>
      <point x="1570" y="742" type="line"/>
      <point x="1569" y="742" type="line"/>
      <point x="1568" y="742" type="line"/>
      <point x="1567" y="742" type="line"/>
      <point x="1566" y="742" type="line"/>
      <point x="1565" y="742" type="line"/>
      <point x="1564" y="742" type="line"/>
      <point x="1563" y="742" type="line"/>
      <point x="1562" y="742" type="line"/>
      <point x="1561" y="742" type="line"/>
      <point x="1560" y="742" type="line"/>
      <point x="1559" y="742" type="line"/>
      <point x="1558" y="742" type="line"/>
      <point x="1557" y="742" type="line"/>
      <point x="1556" y="742" type="line"/>
      <point x="1555" y="742" type="line"/>
      <point x="1554" y="742" type="line"/>
      <point x="1553" y="742" type="line"/>
      <point x="1552" y="742" type="line"/>
      <point x="1551" y="742" type="line"/>
      <point x="1550" y="742" type="line"/>
      <point x="1549" y="742" type="line"/>
      <point x="1548" y="742" type="line"/>
      <point x="1547" y="742" type="line"/>
      <point x="1546" y="742" type="line"/>
      <point x="1545" y="742" type="line"/>
      <point x="1544" y="742" type="line"/>
      <point x="1543" y="742" type="line"/>
      <point x="1542" y="742" type="line"/>
      <point x="1541" y="742" type="line"/>
      <point x="1540" y="742" type="line"/>
      <point x="1539" y="742" type="line"/>
      <point x="1538" y="742" type="line"/>
      <point x="1537" y="742" type="line"/>
      <point x="1536" y="742" type="line"/>
      <point x="1536" y="742" type="line"/>
      <point x="1535" y="742" type="line"/>
      <point x="1534" y="742" type="line"/>
      <point x="1533" y="742" type="line"/>
      <point x="1533" y="742" type="line"/>
      <point x="1532" y="742" type="line"/>
      <point x="1532" y="742" type="line"/>
      <point x="1531" y="742" type="line"/>
      <point x="1531" y="742" type="line"/>
      <point x="1530" y="742" type="line"/>
      <point x="1530" y="742" type="line"/>
      <point x="1529" y="742" type="line"/>
      <point x="1529" y="742" type="line"/>
      <point x="1529" y="742" type="line"/>
      <point x="1528" y="742" type="line"/>
      <point x="1528" y="742" type="line"/>
      <point x="1528" y="742" type="line"/>
      <point x="1527" y="742" type="line"/>
      <point x="1527" y="742" type="line"/>
      <point x="1527" y="742" type="line"/>
      <point x="1527" y="742" type="line"/>
      <point x="1527" y="742" type="line"/>
      <point x="1504" y="859"/>
      <point x="1362" y="1048"/>
      <point x="1147" y="1157"/>
      <point x="901" y="1157"/>
      <point x="686" y="1048"/>
      <point x="544" y="859"/>
      <point x="521" y="742" type="qcurve"/>
      <point x="96" y="742" type="line" smooth="yes"/>
      <point x="56" y="742"/>
      <point x="0" y="686"/>
      <point x="0" y="606"/>
      <point x="56" y="550"/>
      <point x="96" y="550" type="qcurve" smooth="yes"/>
      <point x="105" y="550" type="line"/>
      <point x="107" y="550" type="line"/>
      <point x="109" y="550" type="line"/>
      <point x="111" y="550" type="line"/>
      <point x="113" y="550" type="line"/>
      <point x="115" y="550" type="line"/>
      <point x="117" y="550" type="line"/>
      <point x="118" y="550" type="line"/>
      <point x="120" y="550" type="line"/>
      <point x="122" y="550" type="line"/>
      <point x="124" y="550" type="line"/>
      <point x="126" y="550" type="line"/>
      <point x="128" y="550" type="line"/>
      <point x="130" y="550" type="line"/>
      <point x="131" y="550" type="line"/>
      <point x="133" y="550" type="line"/>
      <point x="135" y="550" type="line"/>
      <point x="137" y="550" type="line"/>
      <point x="139" y="550" type="line"/>
      <point x="141" y="550" type="line"/>
      <point x="142" y="550" type="line"/>
      <point x="144" y="550" type="line"/>
      <point x="146" y="550" type="line"/>
      <point x="148" y="550" type="line"/>
      <point x="150" y="550" type="line"/>
      <point x="152" y="550" type="line"/>
      <point x="153" y="550" type="line"/>
      <point x="155" y="550" type="line"/>
      <point x="157" y="550" type="line"/>
      <point x="159" y="550" type="line"/>
      <point x="161" y="550" type="line"/>
      <point x="162" y="550" type="line"/>
      <point x="164" y="550" type="line"/>
      <point x="166" y="550" type="line"/>
      <point x="168" y="550" type="line"/>
      <point x="169" y="550" type="line"/>
      <point x="171" y="550" type="line"/>
      <point x="173" y="550" type="line"/>
      <point x="175" y="550" type="line"/>
      <point x="177" y="550" type="line"/>
      <point x="178" y="550" type="line"/>
      <point x="180" y="550" type="line"/>
      <point x="182" y="550" type="line"/>
      <point x="184" y="550" type="line"/>
      <point x="185" y="550" type="line"/>
      <point x="187" y="550" type="line"/>
      <point x="189" y="550" type="line"/>
      <point x="191" y="550" type="line"/>
      <point x="192" y="550" type="line"/>
      <point x="194" y="550" type="line"/>
      <point x="196" y="550" type="line"/>
      <point x="197" y="550" type="line"/>
      <point x="199" y="550" type="line"/>
      <point x="201" y="550" type="line"/>
      <point x="203" y="550" type="line"/>
      <point x="204" y="550" type="line"/>
      <point x="206" y="550" type="line"/>
      <point x="208" y="550" type="line"/>
      <point x="209" y="550" type="line"/>
      <point x="211" y="550" type="line"/>
      <point x="213" y="550" type="line"/>
      <point x="215" y="550" type="line"/>
      <point x="216" y="550" type="line"/>
      <point x="218" y="550" type="line"/>
      <point x="220" y="550" type="line"/>
      <point x="221" y="550" type="line"/>
      <point x="223" y="550" type="line"/>
      <point x="225" y="550" type="line"/>
      <point x="226" y="550" type="line"/>
      <point x="228" y="550" type="line"/>
      <point x="230" y="550" type="line"/>
      <point x="231" y="550" type="line"/>
      <point x="233" y="550" type="line"/>
      <point x="235" y="550" type="line"/>
      <point x="236" y="550" type="line"/>
      <point x="238" y="550" type="line"/>
      <point x="240" y="550" type="line"/>
      <point x="241" y="550" type="line"/>
      <point x="243" y="550" type="line"/>
      <point x="245" y="550" type="line"/>
      <point x="246" y="550" type="line"/>
      <point x="248" y="550" type="line"/>
      <point x="249" y="550" type="line"/>
      <point x="251" y="550" type="line"/>
      <point x="253" y="550" type="line"/>
      <point x="254" y="550" type="line"/>
      <point x="256" y="550" type="line"/>
      <point x="257" y="550" type="line"/>
      <point x="259" y="550" type="line"/>
      <point x="261" y="550" type="line"/>
      <point x="262" y="550" type="line"/>
      <point x="264" y="550" type="line"/>
      <point x="265" y="550" type="line"/>
      <point x="267" y="550" type="line"/>
      <point x="269" y="550" type="line"/>
      <point x="270" y="550" type="line"/>
      <point x="272" y="550" type="line"/>
      <point x="273" y="550" type="line"/>
      <point x="275" y="550" type="line"/>
      <point x="277" y="550" type="line"/>
      <point x="278" y="550" type="line"/>
      <point x="280" y="550" type="line"/>
      <point x="281" y="550" type="line"/>
      <point x="283" y="550" type="line"/>
      <point x="284" y="550" type="line"/>
      <point x="286" y="550" type="line"/>
      <point x="287" y="550" type="line"/>
      <point x="289" y="550" type="line"/>
      <point x="291" y="550" type="line"/>
      <point x="292" y="550" type="line"/>
      <point x="294" y="550" type="line"/>
      <point x="295" y="550" type="line"/>
      <point x="297" y="550" type="line"/>
      <point x="298" y="550" type="line"/>
      <point x="300" y="550" type="line"/>
      <point x="301" y="550" type="line"/>
      <point x="303" y="550" type="line"/>
      <point x="304" y="550" type="line"/>
      <point x="306" y="550" type="line"/>
      <point x="307" y="550" type="line"/>
      <point x="309" y="550" type="line"/>
      <point x="310" y="550" type="line"/>
      <point x="312" y="550" type="line"/>
      <point x="313" y="550" type="line"/>
      <point x="315" y="550" type="line"/>
      <point x="316" y="550" type="line"/>
      <point x="318" y="550" type="line"/>
      <point x="319" y="550" type="line"/>
      <point x="321" y="550" type="line"/>
      <point x="322" y="550" type="line"/>
      <point x="324" y="550" type="line"/>
      <point x="325" y="550" type="line"/>
      <point x="326" y="550" type="line"/>
      <point x="328" y="550" type="line"/>
      <point x="329" y="550" type="line"/>
      <point x="331" y="550" type="line"/>
      <point x="332" y="550" type="line"/>
      <point x="334" y="550" type="line"/>
      <point x="335" y="550" type="line"/>
      <point x="337" y="550" type="line"/>
      <point x="338" y="550" type="line"/>
      <point x="339" y="550" type="line"/>
      <point x="341" y="550" type="line"/>
      <point x="342" y="550" type="line"/>
      <point x="344" y="550" type="line"/>
      <point x="345" y="550" type="line"/>
      <point x="346" y="550" type="line"/>
      <point x="348" y="550" type="line"/>
      <point x="349" y="550" type="line"/>
      <point x="351" y="550" type="line"/>
      <point x="352" y="550" type="line"/>
      <point x="353" y="550" type="line"/>
      <point x="355" y="550" type="line"/>
      <point x="356" y="550" type="line"/>
      <point x="358" y="550" type="line"/>
      <point x="359" y="550" type="line"/>
      <point x="360" y="550" type="line"/>
      <point x="362" y="550" type="line"/>
      <point x="363" y="550" type="line"/>
      <point x="364" y="550" type="line"/>
      <point x="366" y="550" type="line"/>
      <point x="367" y="550" type="line"/>
      <point x="368" y="550" type="line"/>
      <point x="370" y="550" type="line"/>
      <point x="371" y="550" type="line"/>
      <point x="372" y="550" type="line"/>
      <point x="374" y="550" type="line"/>
      <point x="375" y="550" type="line"/>
      <point x="376" y="550" type="line"/>
      <point x="378" y="550" type="line"/>
      <point x="379" y="550" type="line"/>
      <point x="380" y="550" type="line"/>
      <point x="382" y="550" type="line"/>
      <point x="383" y="550" type="line"/>
      <point x="384" y="550" type="line"/>
      <point x="386" y="550" type="line"/>
      <point x="387" y="550" type="line"/>
      <point x="388" y="550" type="line"/>
      <point x="389" y="550" type="line"/>
      <point x="391" y="550" type="line"/>
      <point x="392" y="550" type="line"/>
      <point x="393" y="550" type="line"/>
      <point x="394" y="550" type="line"/>
      <point x="396" y="550" type="line"/>
      <point x="397" y="550" type="line"/>
      <point x="398" y="550" type="line"/>
      <point x="399" y="550" type="line"/>
      <point x="401" y="550" type="line"/>
      <point x="402" y="550" type="line"/>
      <point x="403" y="550" type="line"/>
      <point x="404" y="550" type="line"/>
      <point x="406" y="550" type="line"/>
      <point x="407" y="550" type="line"/>
      <point x="408" y="550" type="line"/>
      <point x="409" y="550" type="line"/>
      <point x="410" y="550" type="line"/>
      <point x="412" y="550" type="line"/>
      <point x="413" y="550" type="line"/>
      <point x="414" y="550" type="line"/>
      <point x="415" y="550" type="line"/>
      <point x="416" y="550" type="line"/>
      <point x="418" y="550" type="line"/>
      <point x="419" y="550" type="line"/>
      <point x="420" y="550" type="line"/>
      <point x="421" y="550" type="line"/>
      <point x="422" y="550" type="line"/>
      <point x="423" y="550" type="line"/>
      <point x="425" y="550" type="line"/>
      <point x="426" y="550" type="line"/>
      <point x="427" y="550" type="line"/>
      <point x="428" y="550" type="line"/>
      <point x="429" y="550" type="line"/>
      <point x="430" y="550" type="line"/>
      <point x="431" y="550" type="line"/>
      <point x="432" y="550" type="line"/>
      <point x="434" y="550" type="line"/>
      <point x="435" y="550" type="line"/>
      <point x="436" y="550" type="line"/>
      <point x="437" y="550" type="line"/>
      <point x="438" y="550" type="line"/>
      <point x="439" y="550" type="line"/>
      <point x="440" y="550" type="line"/>
      <point x="441" y="550" type="line"/>
      <point x="442" y="550" type="line"/>
      <point x="443" y="550" type="line"/>
      <point x="444" y="550" type="line"/>
      <point x="445" y="550" type="line"/>
      <point x="446" y="550" type="line"/>
      <point x="447" y="550" type="line"/>
      <point x="448" y="550" type="line"/>
      <point x="450" y="550" type="line"/>
      <point x="451" y="550" type="line"/>
      <point x="452" y="550" type="line"/>
      <point x="453" y="550" type="line"/>
      <point x="454" y="550" type="line"/>
      <point x="455" y="550" type="line"/>
      <point x="456" y="550" type="line"/>
      <point x="457" y="550" type="line"/>
      <point x="458" y="550" type="line"/>
      <point x="459" y="550" type="line"/>
      <point x="460" y="550" type="line"/>
      <point x="461" y="550" type="line"/>
      <point x="462" y="550" type="line"/>
      <point x="463" y="550" type="line"/>
      <point x="464" y="550" type="line"/>
      <point x="465" y="550" type="line"/>
      <point x="466" y="550" type="line"/>
      <point x="467" y="550" type="line"/>
      <point x="468" y="550" type="line"/>
      <point x="469" y="550" type="line"/>
      <point x="470" y="550" type="line"/>
      <point x="471" y="550" type="line"/>
      <point x="472" y="550" type="line"/>
      <point x="473" y="550" type="line"/>
      <point x="474" y="550" type="line"/>
      <point x="475" y="550" type="line"/>
      <point x="476" y="550" type="line"/>
      <point x="477" y="550" type="line"/>
      <point x="478" y="550" type="line"/>
      <point x="479" y="550" type="line"/>
      <point x="480" y="550" type="line"/>
      <point x="481" y="550" type="line"/>
      <point x="482" y="550" type="line"/>
      <point x="483" y="550" type="line"/>
      <point x="484" y="550" type="line"/>
      <point x="485" y="550" type="line"/>
      <point x="486" y="550" type="line"/>
      <point x="487" y="550" type="line"/>
      <point x="488" y="550" type="line"/>
      <point x="489" y="550" type="line"/>
      <point x="490" y="550" type="line"/>
      <point x="491" y="550" type="line"/>
      <point x="492" y="550" type="line"/>
      <point x="493" y="550" type="line"/>
      <point x="494" y="550" type="line"/>
      <point x="495" y="550" type="line"/>
      <point x="496" y="550" type="line"/>
      <point x="497" y="550" type="line"/>
      <point x="498" y="550" type="line"/>
      <point x="499" y="550" type="line"/>
      <point x="500" y="550" type="line"/>
      <point x="501" y="550" type="line"/>
      <point x="502" y="550" type="line"/>
      <point x="503" y="550" type="line"/>
      <point x="504" y="550" type="line"/>
      <point x="505" y="550" type="line"/>
      <point x="506" y="550" type="line"/>
      <point x="507" y="550" type="line"/>
      <point x="508" y="550" type="line"/>
      <point x="509" y="550" type="line"/>
      <point x="510" y="550" type="line"/>
      <point x="511" y="550" type="line"/>
      <point x="512" y="550" type="line"/>
      <point x="512" y="550" type="line"/>
      <point x="513" y="550" type="line"/>
      <point x="514" y="550" type="line"/>
      <point x="515" y="550" type="line"/>
      <point x="515" y="550" type="line"/>
      <point x="516" y="550" type="line"/>
      <point x="516" y="550" type="line"/>
      <point x="517" y="550" type="line"/>
      <point x="517" y="550" type="line"/>
      <point x="518" y="550" type="line"/>
      <point x="518" y="550" type="line"/>
      <point x="519" y="550" type="line"/>
      <point x="519" y="550" type="line"/>
      <point x="519" y="550" type="line"/>
      <point x="520" y="550" type="line"/>
      <point x="520" y="550" type="line"/>
      <point x="520" y="550" type="line"/>
      <point x="521" y="550" type="line"/>
      <point x="521" y="550" type="line"/>
      <point x="521" y="550" type="line"/>
      <point x="521" y="550" type="line"/>
      <point x="521" y="550" type="line"/>
      <point x="544" y="433"/>
      <point x="686" y="244"/>
      <point x="901" y="135"/>
      <point x="1147" y="135"/>
      <point x="1362" y="244"/>
      <point x="1504" y="433"/>
      <point x="1527" y="550" type="qcurve"/>
    </contour>
    <contour>
      <point x="1156" y="326"/>
      <point x="892" y="326"/>
      <point x="704" y="514"/>
      <point x="704" y="778"/>
      <point x="892" y="966"/>
      <point x="1156" y="966"/>
      <point x="1344" y="778"/>
      <point x="1344" y="514"/>
    </contour>
  </outline>
</glyph>
<glyph name="git-branch" format="2">
  <advance width="2048"/>
  <unicode hex="F418"/>
  <note>
git-branch
</note>
  <outline>
    <contour>
      <point x="1216" y="1129"/>
      <point x="1323" y="980"/>
      <point x="1408" y="950" type="qcurve"/>
      <point x="1408" y="870" type="line" smooth="yes"/>
      <point x="1408" y="817"/>
      <point x="1333" y="742"/>
      <point x="1280" y="742" type="qcurve" smooth="yes"/>
      <point x="1152" y="742" type="line" smooth="yes"/>
      <point x="1024" y="742"/>
      <point x="896" y="742" type="qcurve" smooth="yes"/>
      <point x="768" y="742" type="line" smooth="yes"/>
      <point x="767" y="742"/>
      <point x="767" y="742" type="qcurve"/>
      <point x="701" y="742"/>
      <point x="640" y="715" type="qcurve"/>
      <point x="640" y="950" type="line"/>
      <point x="725" y="980"/>
      <point x="832" y="1129"/>
      <point x="832" y="1222" type="qcurve" smooth="yes"/>
      <point x="832" y="1341"/>
      <point x="663" y="1510"/>
      <point x="425" y="1510"/>
      <point x="256" y="1341"/>
      <point x="256" y="1222" type="qcurve" smooth="yes"/>
      <point x="256" y="1129"/>
      <point x="363" y="980"/>
      <point x="448" y="950" type="qcurve"/>
      <point x="448" y="278" type="line"/>
      <point x="363" y="248"/>
      <point x="256" y="99"/>
      <point x="256" y="6" type="qcurve" smooth="yes"/>
      <point x="256" y="-113"/>
      <point x="425" y="-282"/>
      <point x="663" y="-282"/>
      <point x="832" y="-113"/>
      <point x="832" y="6" type="qcurve" smooth="yes"/>
      <point x="832" y="99"/>
      <point x="725" y="248"/>
      <point x="640" y="278" type="qcurve"/>
      <point x="640" y="422" type="line" smooth="yes"/>
      <point x="640" y="475"/>
      <point x="715" y="550"/>
      <point x="768" y="550" type="qcurve" smooth="yes"/>
      <point x="1280" y="550" type="line" smooth="yes"/>
      <point x="1412" y="550"/>
      <point x="1600" y="738"/>
      <point x="1600" y="870" type="qcurve" smooth="yes"/>
      <point x="1600" y="950" type="line"/>
      <point x="1685" y="980"/>
      <point x="1792" y="1129"/>
      <point x="1792" y="1222" type="qcurve" smooth="yes"/>
      <point x="1792" y="1341"/>
      <point x="1623" y="1510"/>
      <point x="1385" y="1510"/>
      <point x="1216" y="1341"/>
      <point x="1216" y="1222" type="qcurve" smooth="yes"/>
    </contour>
    <contour>
      <point x="504" y="1318"/>
      <point x="584" y="1318"/>
      <point x="640" y="1262"/>
      <point x="640" y="1182"/>
      <point x="584" y="1126"/>
      <point x="504" y="1126"/>
      <point x="448" y="1182"/>
      <point x="448" y="1262"/>
    </contour>
    <contour>
      <point x="1600" y="1262"/>
      <point x="1600" y="1182"/>
      <point x="1544" y="1126"/>
      <point x="1464" y="1126"/>
      <point x="1408" y="1182"/>
      <point x="1408" y="1262"/>
      <point x="1464" y="1318"/>
      <point x="1544" y="1318"/>
    </contour>
    <contour>
      <point x="640" y="46"/>
      <point x="640" y="-34"/>
      <point x="584" y="-90"/>
      <point x="504" y="-90"/>
      <point x="448" y="-34"/>
      <point x="448" y="46"/>
      <point x="504" y="102"/>
      <point x="584" y="102"/>
    </contour>
  </outline>
</glyph>
<glyph name="git-merge" format="2">
  <advance width="2048"/>
  <unicode hex="F419"/>
  <note>
git-merge
</note>
  <outline>
    <contour>
      <point x="759" y="1017"/>
      <point x="832" y="1146"/>
      <point x="832" y="1222" type="qcurve" smooth="yes"/>
      <point x="832" y="1341"/>
      <point x="663" y="1510"/>
      <point x="425" y="1510"/>
      <point x="256" y="1341"/>
      <point x="256" y="1222" type="qcurve" smooth="yes"/>
      <point x="256" y="1129"/>
      <point x="363" y="980"/>
      <point x="448" y="950" type="qcurve"/>
      <point x="448" y="278" type="line"/>
      <point x="363" y="248"/>
      <point x="256" y="99"/>
      <point x="256" y="6" type="qcurve" smooth="yes"/>
      <point x="256" y="-113"/>
      <point x="425" y="-282"/>
      <point x="663" y="-282"/>
      <point x="832" y="-113"/>
      <point x="832" y="6" type="qcurve" smooth="yes"/>
      <point x="832" y="99"/>
      <point x="725" y="248"/>
      <point x="640" y="278" type="qcurve"/>
      <point x="640" y="390" type="line" smooth="yes"/>
      <point x="640" y="502"/>
      <point x="640" y="726"/>
      <point x="640" y="726" type="qcurve"/>
      <point x="743" y="613"/>
      <point x="1024" y="486"/>
      <point x="1183" y="486" type="qcurve"/>
      <point x="1183" y="486"/>
      <point x="1184" y="486" type="qcurve" smooth="yes"/>
      <point x="1360" y="486" type="line"/>
      <point x="1390" y="401"/>
      <point x="1539" y="294"/>
      <point x="1632" y="294" type="qcurve" smooth="yes"/>
      <point x="1751" y="294"/>
      <point x="1920" y="463"/>
      <point x="1920" y="701"/>
      <point x="1751" y="870"/>
      <point x="1632" y="870" type="qcurve" smooth="yes"/>
      <point x="1539" y="870"/>
      <point x="1390" y="763"/>
      <point x="1360" y="678" type="qcurve"/>
      <point x="1184" y="678" type="line" smooth="yes"/>
      <point x="1027" y="678"/>
      <point x="766" y="842"/>
      <point x="698" y="978" type="qcurve"/>
    </contour>
    <contour>
      <point x="448" y="-34"/>
      <point x="448" y="46"/>
      <point x="504" y="102"/>
      <point x="584" y="102"/>
      <point x="640" y="46"/>
      <point x="640" y="-34"/>
      <point x="584" y="-90"/>
      <point x="504" y="-90"/>
    </contour>
    <contour>
      <point x="1536" y="542"/>
      <point x="1536" y="622"/>
      <point x="1592" y="678"/>
      <point x="1672" y="678"/>
      <point x="1728" y="622"/>
      <point x="1728" y="542"/>
      <point x="1672" y="486"/>
      <point x="1592" y="486"/>
    </contour>
    <contour>
      <point x="640" y="1221" type="line" smooth="yes"/>
      <point x="640" y="1182"/>
      <point x="584" y="1126"/>
      <point x="504" y="1126"/>
      <point x="448" y="1182"/>
      <point x="448" y="1261"/>
      <point x="504" y="1318"/>
      <point x="584" y="1318"/>
      <point x="640" y="1262"/>
      <point x="640" y="1222" type="qcurve" smooth="yes"/>
    </contour>
  </outline>
</glyph>
<glyph name="mirror" format="2">
  <advance width="2048"/>
  <unicode hex="F41A"/>
  <note>
mirror
</note>
  <outline>
    <contour>
      <point x="1972" y="1254"/>
      <point x="1952" y="1254" type="qcurve" smooth="yes"/>
      <point x="1914" y="1254"/>
      <point x="1886" y="1228" type="qcurve" smooth="yes"/>
      <point x="1310" y="684" type="line" smooth="yes"/>
      <point x="1280" y="655"/>
      <point x="1280" y="573"/>
      <point x="1310" y="544" type="qcurve" smooth="yes"/>
      <point x="1454" y="408" type="line" smooth="yes"/>
      <point x="1598" y="272"/>
      <point x="1886" y="0"/>
      <point x="1886" y="0" type="qcurve"/>
      <point x="1914" y="-26"/>
      <point x="1952" y="-26" type="qcurve" smooth="yes"/>
      <point x="1992" y="-26"/>
      <point x="2048" y="30"/>
      <point x="2048" y="70" type="qcurve" smooth="yes"/>
      <point x="2048" y="1158" type="line" smooth="yes"/>
      <point x="2048" y="1187"/>
      <point x="2016" y="1235"/>
      <point x="1990" y="1246" type="qcurve" smooth="yes"/>
    </contour>
    <contour>
      <point x="0" y="30"/>
      <point x="56" y="-26"/>
      <point x="96" y="-26" type="qcurve" smooth="yes"/>
      <point x="134" y="-26"/>
      <point x="162" y="0" type="qcurve" smooth="yes"/>
      <point x="738" y="544" type="line" smooth="yes"/>
      <point x="768" y="573"/>
      <point x="768" y="655"/>
      <point x="738" y="684" type="qcurve" smooth="yes"/>
      <point x="594" y="820" type="line" smooth="yes"/>
      <point x="450" y="956"/>
      <point x="162" y="1228"/>
      <point x="162" y="1228" type="qcurve"/>
      <point x="134" y="1254"/>
      <point x="96" y="1254" type="qcurve" smooth="yes"/>
      <point x="56" y="1254"/>
      <point x="0" y="1198"/>
      <point x="0" y="1158" type="qcurve" smooth="yes"/>
      <point x="0" y="70" type="line" smooth="yes"/>
    </contour>
    <contour>
      <point x="532" y="614" type="line"/>
      <point x="192" y="293" type="line"/>
      <point x="192" y="935" type="line"/>
    </contour>
    <contour>
      <point x="1856" y="935" type="line"/>
      <point x="1856" y="293" type="line"/>
      <point x="1516" y="614" type="line"/>
    </contour>
    <contour>
      <point x="928" y="1070"/>
      <point x="928" y="1030" type="qcurve" smooth="yes"/>
      <point x="928" y="966" type="line" smooth="yes"/>
      <point x="928" y="926"/>
      <point x="984" y="870"/>
      <point x="1064" y="870"/>
      <point x="1120" y="926"/>
      <point x="1120" y="966" type="qcurve" smooth="yes"/>
      <point x="1120" y="1030" type="line" smooth="yes"/>
      <point x="1120" y="1070"/>
      <point x="1064" y="1126"/>
      <point x="984" y="1126"/>
    </contour>
    <contour>
      <point x="1120" y="1454"/>
      <point x="1064" y="1510"/>
      <point x="984" y="1510"/>
      <point x="928" y="1454"/>
      <point x="928" y="1414" type="qcurve" smooth="yes"/>
      <point x="928" y="1350" type="line" smooth="yes"/>
      <point x="928" y="1310"/>
      <point x="984" y="1254"/>
      <point x="1064" y="1254"/>
      <point x="1120" y="1310"/>
      <point x="1120" y="1350" type="qcurve" smooth="yes"/>
      <point x="1120" y="1414" type="line" smooth="yes"/>
    </contour>
    <contour>
      <point x="1120" y="686"/>
      <point x="1064" y="742"/>
      <point x="984" y="742"/>
      <point x="928" y="686"/>
      <point x="928" y="646" type="qcurve" smooth="yes"/>
      <point x="928" y="582" type="line" smooth="yes"/>
      <point x="928" y="542"/>
      <point x="984" y="486"/>
      <point x="1064" y="486"/>
      <point x="1120" y="542"/>
      <point x="1120" y="582" type="qcurve" smooth="yes"/>
      <point x="1120" y="646" type="line" smooth="yes"/>
    </contour>
    <contour>
      <point x="928" y="302"/>
      <point x="928" y="262" type="qcurve" smooth="yes"/>
      <point x="928" y="198" type="line" smooth="yes"/>
      <point x="928" y="158"/>
      <point x="984" y="102"/>
      <point x="1064" y="102"/>
      <point x="1120" y="158"/>
      <point x="1120" y="198" type="qcurve" smooth="yes"/>
      <point x="1120" y="262" type="line" smooth="yes"/>
      <point x="1120" y="302"/>
      <point x="1064" y="358"/>
      <point x="984" y="358"/>
    </contour>
    <contour>
      <point x="928" y="-82"/>
      <point x="928" y="-122" type="qcurve" smooth="yes"/>
      <point x="928" y="-186" type="line" smooth="yes"/>
      <point x="928" y="-226"/>
      <point x="984" y="-282"/>
      <point x="1064" y="-282"/>
      <point x="1120" y="-226"/>
      <point x="1120" y="-186" type="qcurve" smooth="yes"/>
      <point x="1120" y="-122" type="line" smooth="yes"/>
      <point x="1120" y="-82"/>
      <point x="1064" y="-26"/>
      <point x="984" y="-26"/>
    </contour>
  </outline>
</glyph>
<glyph name="issue-opened" format="2">
  <advance width="2048"/>
  <unicode hex="F41B"/>
  <note>
issue-opened
</note>
  <outline>
    <contour>
      <point x="1216" y="535"/>
      <point x="1216" y="693"/>
      <point x="1103" y="806"/>
      <point x="945" y="806"/>
      <point x="832" y="693"/>
      <point x="832" y="535"/>
      <point x="945" y="422"/>
      <point x="1103" y="422"/>
    </contour>
    <contour>
      <point x="437" y="1476"/>
      <point x="162" y="1201"/>
      <point x="0" y="822"/>
      <point x="0" y="406"/>
      <point x="162" y="27"/>
      <point x="437" y="-248"/>
      <point x="816" y="-410"/>
      <point x="1232" y="-410"/>
      <point x="1611" y="-248"/>
      <point x="1886" y="27"/>
      <point x="2048" y="406"/>
      <point x="2048" y="822"/>
      <point x="1886" y="1201"/>
      <point x="1611" y="1476"/>
      <point x="1232" y="1638"/>
      <point x="816" y="1638"/>
    </contour>
    <contour>
      <point x="324" y="1091"/>
      <point x="547" y="1314"/>
      <point x="855" y="1446"/>
      <point x="1193" y="1446"/>
      <point x="1501" y="1314"/>
      <point x="1724" y="1091"/>
      <point x="1856" y="783"/>
      <point x="1856" y="445"/>
      <point x="1724" y="137"/>
      <point x="1501" y="-86"/>
      <point x="1193" y="-218"/>
      <point x="855" y="-218"/>
      <point x="547" y="-86"/>
      <point x="324" y="137"/>
      <point x="192" y="445"/>
      <point x="192" y="783"/>
    </contour>
  </outline>
</glyph>
<glyph name="issue-reopened" format="2">
  <advance width="2048"/>
  <unicode hex="F41C"/>
  <note>
issue-reopened
</note>
  <outline>
    <contour>
      <point x="822" y="1446"/>
      <point x="1023" y="1446" type="qcurve" smooth="yes"/>
      <point x="1182" y="1446"/>
      <point x="1473" y="1330"/>
      <point x="1692" y="1131"/>
      <point x="1836" y="855"/>
      <point x="1852" y="700" type="qcurve" smooth="yes"/>
      <point x="1855" y="663"/>
      <point x="1910" y="613"/>
      <point x="1947" y="613" type="qcurve" smooth="yes"/>
      <point x="1987" y="613"/>
      <point x="2043" y="669"/>
      <point x="2043" y="709" type="qcurve" smooth="yes"/>
      <point x="2043" y="715"/>
      <point x="2043" y="720" type="qcurve" smooth="yes"/>
      <point x="2029" y="847"/>
      <point x="1941" y="1086"/>
      <point x="1804" y="1288"/>
      <point x="1619" y="1455"/>
      <point x="1404" y="1572"/>
      <point x="1154" y="1637"/>
      <point x="1024" y="1637" type="qcurve" smooth="yes"/>
      <point x="779" y="1637"/>
      <point x="353" y="1423"/>
      <point x="210" y="1236" type="qcurve"/>
      <point x="210" y="1235"/>
      <point x="165" y="1280"/>
      <point x="97" y="1349"/>
      <point x="64" y="1381"/>
      <point x="55" y="1391" type="qcurve" smooth="yes"/>
      <point x="45" y="1401"/>
      <point x="19" y="1401"/>
      <point x="0" y="1382"/>
      <point x="0" y="1369" type="qcurve"/>
      <point x="0" y="1369"/>
      <point x="0" y="1233"/>
      <point x="0" y="1028"/>
      <point x="0" y="932"/>
      <point x="0" y="902" type="qcurve" smooth="yes"/>
      <point x="0" y="889"/>
      <point x="19" y="870"/>
      <point x="32" y="870" type="qcurve" smooth="yes"/>
      <point x="499" y="870" type="line" smooth="yes"/>
      <point x="512" y="870"/>
      <point x="531" y="889"/>
      <point x="531" y="915"/>
      <point x="521" y="925" type="qcurve" smooth="yes"/>
      <point x="348" y="1098" type="line"/>
      <point x="465" y="1262"/>
      <point x="644" y="1354" type="qcurve" smooth="yes"/>
    </contour>
    <contour>
      <point x="135" y="614"/>
      <point x="101" y="614" type="qcurve" smooth="yes"/>
      <point x="61" y="614"/>
      <point x="5" y="558"/>
      <point x="5" y="518" type="qcurve" smooth="yes"/>
      <point x="5" y="512"/>
      <point x="5" y="508" type="qcurve" smooth="yes"/>
      <point x="19" y="381"/>
      <point x="107" y="142"/>
      <point x="244" y="-59"/>
      <point x="429" y="-227"/>
      <point x="644" y="-344"/>
      <point x="894" y="-409"/>
      <point x="1024" y="-409" type="qcurve" smooth="yes"/>
      <point x="1269" y="-409"/>
      <point x="1695" y="-195"/>
      <point x="1838" y="-8" type="qcurve"/>
      <point x="1838" y="-7"/>
      <point x="1883" y="-52"/>
      <point x="1951" y="-121"/>
      <point x="1984" y="-153"/>
      <point x="1993" y="-163" type="qcurve" smooth="yes"/>
      <point x="2003" y="-173"/>
      <point x="2029" y="-173"/>
      <point x="2048" y="-154"/>
      <point x="2048" y="-141" type="qcurve"/>
      <point x="2048" y="-141"/>
      <point x="2048" y="-5"/>
      <point x="2048" y="200"/>
      <point x="2048" y="296"/>
      <point x="2048" y="326" type="qcurve" smooth="yes"/>
      <point x="2048" y="339"/>
      <point x="2029" y="358"/>
      <point x="2016" y="358" type="qcurve" smooth="yes"/>
      <point x="1549" y="358" type="line" smooth="yes"/>
      <point x="1536" y="358"/>
      <point x="1517" y="339"/>
      <point x="1517" y="313"/>
      <point x="1527" y="303" type="qcurve" smooth="yes"/>
      <point x="1700" y="130" type="line"/>
      <point x="1585" y="-32"/>
      <point x="1229" y="-219"/>
      <point x="1024" y="-219" type="qcurve" smooth="yes"/>
      <point x="865" y="-219"/>
      <point x="574" y="-103"/>
      <point x="356" y="97"/>
      <point x="213" y="373"/>
      <point x="196" y="528" type="qcurve" smooth="yes"/>
      <point x="192" y="567"/>
      <point x="162" y="592" type="qcurve" smooth="yes"/>
    </contour>
    <contour>
      <point x="1211" y="534"/>
      <point x="1211" y="609" type="qcurve" smooth="yes"/>
      <point x="1211" y="689"/>
      <point x="1099" y="801"/>
      <point x="1019" y="801" type="qcurve" smooth="yes"/>
      <point x="944" y="801"/>
      <point x="888" y="750" type="qcurve" smooth="yes"/>
      <point x="827" y="693"/>
      <point x="827" y="609" type="qcurve" smooth="yes"/>
      <point x="827" y="530"/>
      <point x="940" y="417"/>
      <point x="1019" y="417" type="qcurve" smooth="yes"/>
      <point x="1103" y="417"/>
      <point x="1160" y="478" type="qcurve" smooth="yes"/>
    </contour>
  </outline>
</glyph>
<glyph name="issue-closed" format="2">
  <advance width="2048"/>
  <unicode hex="F41D"/>
  <note>
issue-closed
</note>
  <outline>
    <contour>
      <point x="1470" y="798"/>
      <point x="1470" y="836" type="qcurve" smooth="yes"/>
      <point x="1470" y="875"/>
      <point x="1413" y="932"/>
      <point x="1374" y="932" type="qcurve" smooth="yes"/>
      <point x="1336" y="932"/>
      <point x="1308" y="906" type="qcurve" smooth="yes"/>
      <point x="928" y="526" type="line"/>
      <point x="740" y="714" type="line" smooth="yes"/>
      <point x="712" y="740"/>
      <point x="674" y="740" type="qcurve" smooth="yes"/>
      <point x="635" y="740"/>
      <point x="578" y="683"/>
      <point x="578" y="644" type="qcurve" smooth="yes"/>
      <point x="578" y="606"/>
      <point x="604" y="578" type="qcurve" smooth="yes"/>
      <point x="860" y="322" type="line" smooth="yes"/>
      <point x="888" y="294"/>
      <point x="968" y="294"/>
      <point x="996" y="322" type="qcurve"/>
      <point x="996" y="322"/>
      <point x="1126" y="453"/>
      <point x="1323" y="649"/>
      <point x="1416" y="742"/>
      <point x="1444" y="770" type="qcurve" smooth="yes"/>
    </contour>
    <contour>
      <point x="1886" y="1201"/>
      <point x="1611" y="1476"/>
      <point x="1232" y="1638"/>
      <point x="816" y="1638"/>
      <point x="437" y="1476"/>
      <point x="162" y="1201"/>
      <point x="0" y="822"/>
      <point x="0" y="406"/>
      <point x="162" y="27"/>
      <point x="437" y="-248"/>
      <point x="816" y="-410"/>
      <point x="1232" y="-410"/>
      <point x="1611" y="-248"/>
      <point x="1886" y="27"/>
      <point x="2048" y="406"/>
      <point x="2048" y="822"/>
    </contour>
    <contour>
      <point x="1724" y="137"/>
      <point x="1501" y="-86"/>
      <point x="1193" y="-218"/>
      <point x="855" y="-218"/>
      <point x="547" y="-86"/>
      <point x="324" y="137"/>
      <point x="192" y="445"/>
      <point x="192" y="783"/>
      <point x="324" y="1091"/>
      <point x="547" y="1314"/>
      <point x="855" y="1446"/>
      <point x="1193" y="1446"/>
      <point x="1501" y="1314"/>
      <point x="1724" y="1091"/>
      <point x="1856" y="783"/>
      <point x="1856" y="445"/>
    </contour>
  </outline>
</glyph>
<glyph name="star" format="2">
  <advance width="2048"/>
  <unicode hex="F41E"/>
  <note>
star
</note>
  <outline>
    <contour>
      <point x="950" y="1577"/>
      <point x="938" y="1552" type="qcurve" smooth="yes"/>
      <point x="697" y="1064" type="line"/>
      <point x="562" y="1045" type="line" smooth="yes"/>
      <point x="427" y="1025"/>
      <point x="158" y="986"/>
      <point x="158" y="986" type="qcurve"/>
      <point x="123" y="981"/>
      <point x="76" y="927"/>
      <point x="76" y="891" type="qcurve" smooth="yes"/>
      <point x="76" y="850"/>
      <point x="105" y="822" type="qcurve" smooth="yes"/>
      <point x="495" y="442" type="line"/>
      <point x="403" y="-95" type="line"/>
      <point x="401" y="-102"/>
      <point x="401" y="-111" type="qcurve" smooth="yes"/>
      <point x="401" y="-151"/>
      <point x="458" y="-207"/>
      <point x="497" y="-207" type="qcurve" smooth="yes"/>
      <point x="521" y="-207"/>
      <point x="542" y="-196" type="qcurve" smooth="yes"/>
      <point x="1024" y="58" type="line"/>
      <point x="1145" y="-6" type="line" smooth="yes"/>
      <point x="1265" y="-69"/>
      <point x="1506" y="-196"/>
      <point x="1506" y="-196" type="qcurve"/>
      <point x="1527" y="-207"/>
      <point x="1551" y="-207" type="qcurve" smooth="yes"/>
      <point x="1590" y="-207"/>
      <point x="1647" y="-151"/>
      <point x="1647" y="-111" type="qcurve" smooth="yes"/>
      <point x="1647" y="-103"/>
      <point x="1645" y="-95" type="qcurve" smooth="yes"/>
      <point x="1553" y="442" type="line"/>
      <point x="1943" y="822" type="line" smooth="yes"/>
      <point x="1972" y="850"/>
      <point x="1972" y="891" type="qcurve" smooth="yes"/>
      <point x="1972" y="927"/>
      <point x="1925" y="981"/>
      <point x="1890" y="986" type="qcurve" smooth="yes"/>
      <point x="1351" y="1064" type="line"/>
      <point x="1110" y="1552" type="line" smooth="yes"/>
      <point x="1098" y="1577"/>
      <point x="1052" y="1606"/>
      <point x="996" y="1606"/>
    </contour>
    <contour>
      <point x="1201" y="934" type="line" smooth="yes"/>
      <point x="1224" y="889"/>
      <point x="1273" y="881" type="qcurve" smooth="yes"/>
      <point x="1670" y="824" type="line"/>
      <point x="1383" y="544" type="line" smooth="yes"/>
      <point x="1354" y="516"/>
      <point x="1354" y="476" type="qcurve" smooth="yes"/>
      <point x="1354" y="467"/>
      <point x="1355" y="459" type="qcurve" smooth="yes"/>
      <point x="1423" y="65" type="line"/>
      <point x="1335" y="111" type="line" smooth="yes"/>
      <point x="1246" y="158"/>
      <point x="1069" y="251"/>
      <point x="1069" y="251" type="qcurve"/>
      <point x="1048" y="262"/>
      <point x="1000" y="262"/>
      <point x="979" y="251" type="qcurve" smooth="yes"/>
      <point x="625" y="65" type="line"/>
      <point x="692" y="459" type="line" smooth="yes"/>
      <point x="694" y="468"/>
      <point x="694" y="476" type="qcurve" smooth="yes"/>
      <point x="694" y="516"/>
      <point x="665" y="544" type="qcurve" smooth="yes"/>
      <point x="378" y="824" type="line"/>
      <point x="477" y="838" type="line" smooth="yes"/>
      <point x="576" y="853"/>
      <point x="775" y="881"/>
      <point x="775" y="882" type="qcurve"/>
      <point x="824" y="889"/>
      <point x="847" y="934" type="qcurve" smooth="yes"/>
      <point x="1024" y="1293" type="line"/>
    </contour>
  </outline>
</glyph>
<glyph name="comment" format="2">
  <advance width="2048"/>
  <unicode hex="F41F"/>
  <note>
comment
</note>
  <outline>
    <contour>
      <point x="128" y="326" type="line" smooth="yes"/>
      <point x="128" y="233"/>
      <point x="259" y="102"/>
      <point x="352" y="102" type="qcurve" smooth="yes"/>
      <point x="512" y="102" type="line"/>
      <point x="512" y="53" type="line" smooth="yes"/>
      <point x="512" y="3"/>
      <point x="512" y="-96"/>
      <point x="512" y="-96" type="qcurve"/>
      <point x="512" y="-173"/>
      <point x="622" y="-282"/>
      <point x="776" y="-282"/>
      <point x="830" y="-227" type="qcurve" smooth="yes"/>
      <point x="1160" y="102" type="line"/>
      <point x="1696" y="102" type="line" smooth="yes"/>
      <point x="1789" y="102"/>
      <point x="1920" y="233"/>
      <point x="1920" y="326" type="qcurve" smooth="yes"/>
      <point x="1920" y="1286" type="line" smooth="yes"/>
      <point x="1920" y="1379"/>
      <point x="1789" y="1510"/>
      <point x="1696" y="1510" type="qcurve" smooth="yes"/>
      <point x="352" y="1510" type="line" smooth="yes"/>
      <point x="259" y="1510"/>
      <point x="128" y="1379"/>
      <point x="128" y="1286" type="qcurve" smooth="yes"/>
    </contour>
    <contour>
      <point x="1696" y="1318" type="line" smooth="yes"/>
      <point x="1709" y="1318"/>
      <point x="1728" y="1299"/>
      <point x="1728" y="1286" type="qcurve" smooth="yes"/>
      <point x="1728" y="326" type="line" smooth="yes"/>
      <point x="1728" y="313"/>
      <point x="1709" y="294"/>
      <point x="1696" y="294" type="qcurve" smooth="yes"/>
      <point x="1552" y="294" type="line" smooth="yes"/>
      <point x="1408" y="294"/>
      <point x="1264" y="294" type="qcurve" smooth="yes"/>
      <point x="1120" y="294" type="line" smooth="yes"/>
      <point x="1080" y="294"/>
      <point x="1052" y="266" type="qcurve" smooth="yes"/>
      <point x="704" y="-82" type="line"/>
      <point x="704" y="198" type="line" smooth="yes"/>
      <point x="704" y="238"/>
      <point x="648" y="294"/>
      <point x="608" y="294" type="qcurve" smooth="yes"/>
      <point x="352" y="294" type="line" smooth="yes"/>
      <point x="339" y="294"/>
      <point x="320" y="313"/>
      <point x="320" y="326" type="qcurve" smooth="yes"/>
      <point x="320" y="1286" type="line" smooth="yes"/>
      <point x="320" y="1299"/>
      <point x="339" y="1318"/>
      <point x="352" y="1318" type="qcurve" smooth="yes"/>
    </contour>
  </outline>
</glyph>
<glyph name="question" format="2">
  <advance width="2048"/>
  <unicode hex="F420"/>
  <note>
question
</note>
  <outline>
    <contour>
      <point x="162" y="27"/>
      <point x="437" y="-248"/>
      <point x="816" y="-410"/>
      <point x="1232" y="-410"/>
      <point x="1611" y="-248"/>
      <point x="1886" y="27"/>
      <point x="2048" y="406"/>
      <point x="2048" y="822"/>
      <point x="1886" y="1201"/>
      <point x="1611" y="1476"/>
      <point x="1232" y="1638"/>
      <point x="816" y="1638"/>
      <point x="437" y="1476"/>
      <point x="162" y="1201"/>
      <point x="0" y="822"/>
      <point x="0" y="406"/>
    </contour>
    <contour>
      <point x="1501" y="1314"/>
      <point x="1724" y="1091"/>
      <point x="1856" y="783"/>
      <point x="1856" y="445"/>
      <point x="1724" y="137"/>
      <point x="1501" y="-86"/>
      <point x="1193" y="-218"/>
      <point x="855" y="-218"/>
      <point x="547" y="-86"/>
      <point x="324" y="137"/>
      <point x="192" y="445"/>
      <point x="192" y="783"/>
      <point x="324" y="1091"/>
      <point x="547" y="1314"/>
      <point x="855" y="1446"/>
      <point x="1193" y="1446"/>
    </contour>
    <contour>
      <point x="901" y="890"/>
      <point x="929" y="910" type="qcurve" smooth="yes"/>
      <point x="965" y="934"/>
      <point x="1024" y="934" type="qcurve"/>
      <point x="1024" y="934"/>
      <point x="1026" y="934"/>
      <point x="1026" y="934" type="qcurve"/>
      <point x="1077" y="934"/>
      <point x="1118" y="905" type="qcurve" smooth="yes"/>
      <point x="1152" y="882"/>
      <point x="1152" y="841" type="qcurve" smooth="yes"/>
      <point x="1152" y="839"/>
      <point x="1152" y="838" type="qcurve" smooth="yes"/>
      <point x="1152" y="812"/>
      <point x="1142" y="797" type="qcurve" smooth="yes"/>
      <point x="1127" y="778"/>
      <point x="1107" y="766" type="qcurve" smooth="yes"/>
      <point x="1099" y="761"/>
      <point x="1074" y="745" type="qcurve"/>
      <point x="1073" y="745" type="line"/>
      <point x="1053" y="733"/>
      <point x="1033" y="720" type="qcurve" smooth="yes"/>
      <point x="980" y="686"/>
      <point x="944" y="635" type="qcurve" smooth="yes"/>
      <point x="929" y="611"/>
      <point x="929" y="583" type="qcurve" smooth="yes"/>
      <point x="929" y="543"/>
      <point x="985" y="487"/>
      <point x="1025" y="487" type="qcurve" smooth="yes"/>
      <point x="1075" y="487"/>
      <point x="1104" y="529" type="qcurve" smooth="yes"/>
      <point x="1118" y="548"/>
      <point x="1139" y="560" type="qcurve" smooth="yes"/>
      <point x="1156" y="571"/>
      <point x="1172" y="581" type="qcurve"/>
      <point x="1173" y="581" type="line"/>
      <point x="1205" y="600"/>
      <point x="1213" y="606" type="qcurve" smooth="yes"/>
      <point x="1271" y="645"/>
      <point x="1302" y="691" type="qcurve" smooth="yes"/>
      <point x="1344" y="754"/>
      <point x="1344" y="838" type="qcurve" smooth="yes"/>
      <point x="1344" y="908"/>
      <point x="1284" y="1021"/>
      <point x="1234" y="1059" type="qcurve" smooth="yes"/>
      <point x="1141" y="1126"/>
      <point x="1026" y="1126" type="qcurve" smooth="yes"/>
      <point x="1025" y="1126"/>
      <point x="1024" y="1126" type="qcurve" smooth="yes"/>
      <point x="907" y="1126"/>
      <point x="823" y="1070" type="qcurve" smooth="yes"/>
      <point x="753" y="1024"/>
      <point x="714" y="945" type="qcurve" smooth="yes"/>
      <point x="704" y="925"/>
      <point x="704" y="902" type="qcurve" smooth="yes"/>
      <point x="704" y="862"/>
      <point x="760" y="806"/>
      <point x="800" y="806" type="qcurve" smooth="yes"/>
      <point x="828" y="806"/>
      <point x="874" y="835"/>
      <point x="886" y="859" type="qcurve" smooth="yes"/>
    </contour>
    <contour>
      <point x="1077" y="358"/>
      <point x="971" y="358"/>
      <point x="896" y="283"/>
      <point x="896" y="177"/>
      <point x="971" y="102"/>
      <point x="1077" y="102"/>
      <point x="1152" y="177"/>
      <point x="1152" y="283"/>
    </contour>
  </outline>
</glyph>
<glyph name="search" format="2">
  <advance width="2048"/>
  <unicode hex="F422"/>
  <note>
search
</note>
  <outline>
    <contour>
      <point x="1756" y="-254" type="line" smooth="yes"/>
      <point x="1785" y="-284"/>
      <point x="1826" y="-284" type="qcurve" smooth="yes"/>
      <point x="1838" y="-284"/>
      <point x="1850" y="-281" type="qcurve" smooth="yes"/>
      <point x="1882" y="-273"/>
      <point x="1923" y="-222"/>
      <point x="1923" y="-188" type="qcurve" smooth="yes"/>
      <point x="1923" y="-147"/>
      <point x="1892" y="-118" type="qcurve" smooth="yes"/>
      <point x="1795" y="-21" type="line" smooth="yes"/>
      <point x="1697" y="77"/>
      <point x="1503" y="271"/>
      <point x="1503" y="271" type="qcurve"/>
      <point x="1580" y="370"/>
      <point x="1664" y="611"/>
      <point x="1664" y="742" type="qcurve" smooth="yes"/>
      <point x="1664" y="898"/>
      <point x="1542" y="1183"/>
      <point x="1336" y="1388"/>
      <point x="1052" y="1510"/>
      <point x="740" y="1510"/>
      <point x="459" y="1391"/>
      <point x="247" y="1179"/>
      <point x="129" y="899"/>
      <point x="129" y="586"/>
      <point x="250" y="302"/>
      <point x="456" y="96"/>
      <point x="741" y="-26"/>
      <point x="897" y="-26" type="qcurve" smooth="yes"/>
      <point x="1027" y="-26"/>
      <point x="1268" y="58"/>
      <point x="1367" y="135" type="qcurve"/>
    </contour>
    <contour>
      <point x="1470" y="626"/>
      <point x="1378" y="416"/>
      <point x="1224" y="265"/>
      <point x="1012" y="175"/>
      <point x="780" y="175"/>
      <point x="569" y="265"/>
      <point x="415" y="416"/>
      <point x="322" y="626"/>
      <point x="320" y="742" type="qcurve" smooth="yes"/>
      <point x="320" y="746"/>
      <point x="320" y="751" type="qcurve" smooth="yes"/>
      <point x="320" y="868"/>
      <point x="412" y="1081"/>
      <point x="566" y="1235"/>
      <point x="779" y="1327"/>
      <point x="1013" y="1327"/>
      <point x="1227" y="1235"/>
      <point x="1381" y="1081"/>
      <point x="1472" y="868"/>
      <point x="1472" y="751" type="qcurve" smooth="yes"/>
      <point x="1472" y="746"/>
      <point x="1472" y="742" type="qcurve" smooth="yes"/>
    </contour>
  </outline>
</glyph>
<glyph name="gear" format="2">
  <advance width="2048"/>
  <unicode hex="F423"/>
  <note>
gear
</note>
  <outline>
    <contour>
      <point x="979" y="1638"/>
      <point x="934" y="1634" type="qcurve" smooth="yes"/>
      <point x="865" y="1628"/>
      <point x="764" y="1537"/>
      <point x="748" y="1473" type="qcurve" smooth="yes"/>
      <point x="711" y="1331" type="line" smooth="yes"/>
      <point x="706" y="1314"/>
      <point x="684" y="1303" type="qcurve" smooth="yes"/>
      <point x="639" y="1281"/>
      <point x="598" y="1253" type="qcurve" smooth="yes"/>
      <point x="577" y="1239"/>
      <point x="560" y="1244" type="qcurve" smooth="yes"/>
      <point x="419" y="1283" type="line" smooth="yes"/>
      <point x="354" y="1300"/>
      <point x="225" y="1259"/>
      <point x="186" y="1202" type="qcurve" smooth="yes"/>
      <point x="134" y="1128"/>
      <point x="95" y="1046" type="qcurve" smooth="yes"/>
      <point x="67" y="980"/>
      <point x="95" y="851"/>
      <point x="142" y="804" type="qcurve" smooth="yes"/>
      <point x="246" y="701" type="line" smooth="yes"/>
      <point x="259" y="689"/>
      <point x="258" y="663" type="qcurve" smooth="yes"/>
      <point x="256" y="638"/>
      <point x="256" y="615" type="qcurve" smooth="yes"/>
      <point x="256" y="590"/>
      <point x="258" y="565" type="qcurve" smooth="yes"/>
      <point x="259" y="539"/>
      <point x="246" y="527" type="qcurve" smooth="yes"/>
      <point x="142" y="424" type="line" smooth="yes"/>
      <point x="95" y="377"/>
      <point x="67" y="248"/>
      <point x="95" y="182" type="qcurve" smooth="yes"/>
      <point x="134" y="100"/>
      <point x="186" y="26" type="qcurve" smooth="yes"/>
      <point x="225" y="-31"/>
      <point x="354" y="-72"/>
      <point x="419" y="-55" type="qcurve" smooth="yes"/>
      <point x="560" y="-16" type="line" smooth="yes"/>
      <point x="577" y="-11"/>
      <point x="598" y="-25" type="qcurve" smooth="yes"/>
      <point x="639" y="-53"/>
      <point x="684" y="-75" type="qcurve" smooth="yes"/>
      <point x="706" y="-86"/>
      <point x="711" y="-103" type="qcurve" smooth="yes"/>
      <point x="748" y="-245" type="line" smooth="yes"/>
      <point x="764" y="-309"/>
      <point x="865" y="-400"/>
      <point x="934" y="-406" type="qcurve" smooth="yes"/>
      <point x="979" y="-410"/>
      <point x="1023" y="-410" type="qcurve" smooth="yes"/>
      <point x="1069" y="-410"/>
      <point x="1114" y="-406" type="qcurve" smooth="yes"/>
      <point x="1183" y="-400"/>
      <point x="1284" y="-309"/>
      <point x="1300" y="-245" type="qcurve" smooth="yes"/>
      <point x="1337" y="-103" type="line" smooth="yes"/>
      <point x="1342" y="-86"/>
      <point x="1364" y="-75" type="qcurve" smooth="yes"/>
      <point x="1409" y="-53"/>
      <point x="1450" y="-25" type="qcurve" smooth="yes"/>
      <point x="1471" y="-11"/>
      <point x="1488" y="-16" type="qcurve" smooth="yes"/>
      <point x="1629" y="-55" type="line" smooth="yes"/>
      <point x="1694" y="-72"/>
      <point x="1823" y="-31"/>
      <point x="1862" y="26" type="qcurve" smooth="yes"/>
      <point x="1914" y="100"/>
      <point x="1953" y="182" type="qcurve" smooth="yes"/>
      <point x="1981" y="248"/>
      <point x="1953" y="377"/>
      <point x="1906" y="424" type="qcurve" smooth="yes"/>
      <point x="1802" y="527" type="line" smooth="yes"/>
      <point x="1789" y="539"/>
      <point x="1790" y="565" type="qcurve" smooth="yes"/>
      <point x="1794" y="614"/>
      <point x="1790" y="663" type="qcurve" smooth="yes"/>
      <point x="1789" y="688"/>
      <point x="1802" y="701" type="qcurve" smooth="yes"/>
      <point x="1906" y="804" type="line" smooth="yes"/>
      <point x="1953" y="851"/>
      <point x="1981" y="980"/>
      <point x="1953" y="1046" type="qcurve" smooth="yes"/>
      <point x="1915" y="1128"/>
      <point x="1862" y="1202" type="qcurve" smooth="yes"/>
      <point x="1823" y="1259"/>
      <point x="1694" y="1300"/>
      <point x="1629" y="1283" type="qcurve" smooth="yes"/>
      <point x="1488" y="1244" type="line" smooth="yes"/>
      <point x="1471" y="1239"/>
      <point x="1450" y="1253" type="qcurve" smooth="yes"/>
      <point x="1409" y="1281"/>
      <point x="1364" y="1303" type="qcurve" smooth="yes"/>
      <point x="1342" y="1314"/>
      <point x="1337" y="1331" type="qcurve" smooth="yes"/>
      <point x="1300" y="1473" type="line" smooth="yes"/>
      <point x="1284" y="1537"/>
      <point x="1183" y="1628"/>
      <point x="1114" y="1634" type="qcurve" smooth="yes"/>
      <point x="1069" y="1638"/>
      <point x="1024" y="1638" type="qcurve" smooth="yes"/>
    </contour>
    <contour>
      <point x="988" y="1446"/>
      <point x="1023" y="1446" type="qcurve" smooth="yes"/>
      <point x="1060" y="1446"/>
      <point x="1097" y="1443" type="qcurve" smooth="yes"/>
      <point x="1110" y="1442"/>
      <point x="1115" y="1424" type="qcurve" smooth="yes"/>
      <point x="1152" y="1283" type="line" smooth="yes"/>
      <point x="1165" y="1231"/>
      <point x="1234" y="1153"/>
      <point x="1279" y="1130" type="qcurve" smooth="yes"/>
      <point x="1313" y="1114"/>
      <point x="1343" y="1093" type="qcurve" smooth="yes"/>
      <point x="1386" y="1065"/>
      <point x="1483" y="1046"/>
      <point x="1539" y="1059" type="qcurve" smooth="yes"/>
      <point x="1680" y="1098" type="line" smooth="yes"/>
      <point x="1698" y="1102"/>
      <point x="1705" y="1092" type="qcurve" smooth="yes"/>
      <point x="1748" y="1032"/>
      <point x="1779" y="965" type="qcurve" smooth="yes"/>
      <point x="1784" y="953"/>
      <point x="1771" y="941" type="qcurve" smooth="yes"/>
      <point x="1667" y="838" type="line" smooth="yes"/>
      <point x="1629" y="800"/>
      <point x="1596" y="702"/>
      <point x="1599" y="651" type="qcurve" smooth="yes"/>
      <point x="1600" y="632"/>
      <point x="1600" y="614" type="qcurve" smooth="yes"/>
      <point x="1600" y="596"/>
      <point x="1599" y="577" type="qcurve" smooth="yes"/>
      <point x="1596" y="526"/>
      <point x="1629" y="428"/>
      <point x="1667" y="390" type="qcurve" smooth="yes"/>
      <point x="1771" y="287" type="line" smooth="yes"/>
      <point x="1784" y="274"/>
      <point x="1779" y="263" type="qcurve" smooth="yes"/>
      <point x="1747" y="196"/>
      <point x="1705" y="136" type="qcurve" smooth="yes"/>
      <point x="1698" y="126"/>
      <point x="1680" y="130" type="qcurve" smooth="yes"/>
      <point x="1539" y="169" type="line" smooth="yes"/>
      <point x="1483" y="182"/>
      <point x="1386" y="163"/>
      <point x="1343" y="135" type="qcurve" smooth="yes"/>
      <point x="1312" y="114"/>
      <point x="1279" y="98" type="qcurve" smooth="yes"/>
      <point x="1234" y="75"/>
      <point x="1165" y="-3"/>
      <point x="1152" y="-55" type="qcurve" smooth="yes"/>
      <point x="1115" y="-196" type="line" smooth="yes"/>
      <point x="1110" y="-214"/>
      <point x="1097" y="-215" type="qcurve" smooth="yes"/>
      <point x="1060" y="-218"/>
      <point x="1025" y="-218" type="qcurve" smooth="yes"/>
      <point x="988" y="-218"/>
      <point x="951" y="-215" type="qcurve" smooth="yes"/>
      <point x="938" y="-214"/>
      <point x="933" y="-196" type="qcurve" smooth="yes"/>
      <point x="896" y="-55" type="line" smooth="yes"/>
      <point x="883" y="-3"/>
      <point x="814" y="75"/>
      <point x="769" y="98" type="qcurve" smooth="yes"/>
      <point x="736" y="114"/>
      <point x="705" y="135" type="qcurve" smooth="yes"/>
      <point x="662" y="163"/>
      <point x="565" y="182"/>
      <point x="509" y="169" type="qcurve" smooth="yes"/>
      <point x="368" y="130" type="line" smooth="yes"/>
      <point x="350" y="126"/>
      <point x="343" y="136" type="qcurve" smooth="yes"/>
      <point x="301" y="196"/>
      <point x="269" y="263" type="qcurve" smooth="yes"/>
      <point x="264" y="275"/>
      <point x="277" y="287" type="qcurve" smooth="yes"/>
      <point x="381" y="390" type="line" smooth="yes"/>
      <point x="419" y="428"/>
      <point x="452" y="526"/>
      <point x="449" y="577" type="qcurve" smooth="yes"/>
      <point x="448" y="596"/>
      <point x="448" y="614" type="qcurve" smooth="yes"/>
      <point x="448" y="632"/>
      <point x="449" y="651" type="qcurve" smooth="yes"/>
      <point x="452" y="702"/>
      <point x="419" y="800"/>
      <point x="381" y="838" type="qcurve" smooth="yes"/>
      <point x="277" y="941" type="line" smooth="yes"/>
      <point x="264" y="954"/>
      <point x="269" y="965" type="qcurve" smooth="yes"/>
      <point x="301" y="1032"/>
      <point x="343" y="1092" type="qcurve" smooth="yes"/>
      <point x="350" y="1102"/>
      <point x="368" y="1098" type="qcurve" smooth="yes"/>
      <point x="509" y="1059" type="line" smooth="yes"/>
      <point x="565" y="1046"/>
      <point x="662" y="1065"/>
      <point x="705" y="1093" type="qcurve" smooth="yes"/>
      <point x="736" y="1114"/>
      <point x="769" y="1130" type="qcurve" smooth="yes"/>
      <point x="814" y="1153"/>
      <point x="883" y="1231"/>
      <point x="896" y="1283" type="qcurve" smooth="yes"/>
      <point x="933" y="1424" type="line" smooth="yes"/>
      <point x="938" y="1442"/>
      <point x="951" y="1443" type="qcurve" smooth="yes"/>
    </contour>
    <contour>
      <point x="1183" y="998"/>
      <point x="865" y="998"/>
      <point x="640" y="773"/>
      <point x="640" y="455"/>
      <point x="865" y="230"/>
      <point x="1183" y="230"/>
      <point x="1408" y="455"/>
      <point x="1408" y="773"/>
    </contour>
    <contour>
      <point x="1103" y="422"/>
      <point x="944" y="422"/>
      <point x="832" y="534"/>
      <point x="832" y="693"/>
      <point x="944" y="806"/>
      <point x="1103" y="806"/>
      <point x="1216" y="693"/>
      <point x="1216" y="534"/>
    </contour>
  </outline>
</glyph>
<glyph name="arrow-down-left" format="2">
  <advance width="2048"/>
  <unicode hex="F424"/>
  <note>
arrow-down-left
</note>
  <outline>
    <contour>
      <point x="1400" y="1126"/>
      <point x="1372" y="1098" type="qcurve" smooth="yes"/>
      <point x="699" y="425" type="line"/>
      <point x="699" y="962" type="line" smooth="yes"/>
      <point x="699" y="1002"/>
      <point x="643" y="1058"/>
      <point x="563" y="1058"/>
      <point x="507" y="1002"/>
      <point x="507" y="962" type="qcurve" smooth="yes"/>
      <point x="507" y="193" type="line" smooth="yes"/>
      <point x="507" y="153"/>
      <point x="563" y="97"/>
      <point x="603" y="97" type="qcurve" smooth="yes"/>
      <point x="1372" y="97" type="line" smooth="yes"/>
      <point x="1412" y="97"/>
      <point x="1468" y="153"/>
      <point x="1468" y="233"/>
      <point x="1412" y="289"/>
      <point x="1372" y="289" type="qcurve" smooth="yes"/>
      <point x="835" y="289" type="line"/>
      <point x="1508" y="962" type="line" smooth="yes"/>
      <point x="1536" y="990"/>
      <point x="1536" y="1070"/>
      <point x="1480" y="1126"/>
    </contour>
  </outline>
</glyph>
<glyph name="tools" format="2">
  <advance width="2048"/>
  <unicode hex="F425"/>
  <note>
tools
</note>
  <outline>
    <contour>
      <point x="704" y="1337"/>
      <point x="704" y="1323" type="qcurve" smooth="yes"/>
      <point x="704" y="962" type="line" smooth="yes"/>
      <point x="704" y="905"/>
      <point x="757" y="807"/>
      <point x="802" y="777" type="qcurve" smooth="yes"/>
      <point x="826" y="760" type="line" smooth="yes"/>
      <point x="850" y="744"/>
      <point x="898" y="711"/>
      <point x="898" y="711" type="qcurve"/>
      <point x="955" y="673"/>
      <point x="1024" y="673" type="qcurve" smooth="yes"/>
      <point x="1093" y="673"/>
      <point x="1150" y="711" type="qcurve" smooth="yes"/>
      <point x="1246" y="777" type="line" smooth="yes"/>
      <point x="1291" y="807"/>
      <point x="1344" y="905"/>
      <point x="1344" y="962" type="qcurve" smooth="yes"/>
      <point x="1344" y="1323" type="line" smooth="yes"/>
      <point x="1344" y="1337"/>
      <point x="1353" y="1343" type="qcurve"/>
      <point x="1467" y="1264"/>
      <point x="1600" y="1015"/>
      <point x="1600" y="871" type="qcurve" smooth="yes"/>
      <point x="1600" y="870" type="line"/>
      <point x="1601" y="870"/>
      <point x="1601" y="870" type="qcurve"/>
      <point x="1601" y="719"/>
      <point x="1456" y="461"/>
      <point x="1332" y="383" type="qcurve" smooth="yes"/>
      <point x="1280" y="350"/>
      <point x="1215" y="239"/>
      <point x="1217" y="173" type="qcurve" smooth="yes"/>
      <point x="1238" y="-255" type="line" smooth="yes"/>
      <point x="1239" y="-281"/>
      <point x="1267" y="-325"/>
      <point x="1290" y="-337" type="qcurve" smooth="yes"/>
      <point x="1311" y="-347"/>
      <point x="1334" y="-347" type="qcurve" smooth="yes"/>
      <point x="1374" y="-347"/>
      <point x="1430" y="-291"/>
      <point x="1430" y="-251" type="qcurve" smooth="yes"/>
      <point x="1430" y="-248"/>
      <point x="1430" y="-245" type="qcurve" smooth="yes"/>
      <point x="1409" y="181" type="line" smooth="yes"/>
      <point x="1408" y="204"/>
      <point x="1435" y="221" type="qcurve" smooth="yes"/>
      <point x="1599" y="325"/>
      <point x="1792" y="668"/>
      <point x="1792" y="870" type="qcurve"/>
      <point x="1793" y="870" type="line"/>
      <point x="1793" y="1062"/>
      <point x="1616" y="1394"/>
      <point x="1463" y="1500" type="qcurve" smooth="yes"/>
      <point x="1414" y="1535"/>
      <point x="1352" y="1535" type="qcurve" smooth="yes"/>
      <point x="1296" y="1535"/>
      <point x="1249" y="1505" type="qcurve" smooth="yes"/>
      <point x="1204" y="1476"/>
      <point x="1152" y="1379"/>
      <point x="1152" y="1323" type="qcurve" smooth="yes"/>
      <point x="1152" y="962" type="line" smooth="yes"/>
      <point x="1152" y="945"/>
      <point x="1138" y="935" type="qcurve" smooth="yes"/>
      <point x="1114" y="919" type="line" smooth="yes"/>
      <point x="1090" y="903"/>
      <point x="1042" y="870"/>
      <point x="1042" y="870" type="qcurve"/>
      <point x="1034" y="865"/>
      <point x="1014" y="865"/>
      <point x="1006" y="870" type="qcurve" smooth="yes"/>
      <point x="910" y="935" type="line" smooth="yes"/>
      <point x="896" y="945"/>
      <point x="896" y="962" type="qcurve" smooth="yes"/>
      <point x="896" y="1323" type="line" smooth="yes"/>
      <point x="896" y="1379"/>
      <point x="844" y="1476"/>
      <point x="799" y="1505" type="qcurve" smooth="yes"/>
      <point x="752" y="1535"/>
      <point x="695" y="1535" type="qcurve" smooth="yes"/>
      <point x="634" y="1535"/>
      <point x="585" y="1500" type="qcurve" smooth="yes"/>
      <point x="433" y="1394"/>
      <point x="256" y="1063"/>
      <point x="256" y="870" type="qcurve"/>
      <point x="256" y="870" type="line"/>
      <point x="255" y="870" type="line"/>
      <point x="255" y="669"/>
      <point x="449" y="325"/>
      <point x="613" y="221" type="qcurve" smooth="yes"/>
      <point x="640" y="204"/>
      <point x="639" y="181" type="qcurve" smooth="yes"/>
      <point x="618" y="-245" type="line" smooth="yes"/>
      <point x="618" y="-249"/>
      <point x="618" y="-252" type="qcurve" smooth="yes"/>
      <point x="618" y="-291"/>
      <point x="674" y="-348"/>
      <point x="714" y="-348" type="qcurve" smooth="yes"/>
      <point x="753" y="-348"/>
      <point x="809" y="-293"/>
      <point x="810" y="-255" type="qcurve" smooth="yes"/>
      <point x="831" y="172" type="line"/>
      <point x="831" y="173" type="line" smooth="yes"/>
      <point x="833" y="239"/>
      <point x="768" y="350"/>
      <point x="716" y="383" type="qcurve" smooth="yes"/>
      <point x="593" y="462"/>
      <point x="448" y="719"/>
      <point x="448" y="870" type="qcurve"/>
      <point x="447" y="870"/>
      <point x="447" y="870" type="qcurve"/>
      <point x="447" y="1015"/>
      <point x="581" y="1264"/>
      <point x="695" y="1343" type="qcurve"/>
    </contour>
  </outline>
</glyph>
<glyph name="sign-out" format="2">
  <advance width="2048"/>
  <unicode hex="F426"/>
  <note>
sign-out
</note>
  <outline>
    <contour>
      <point x="256" y="-58" type="line" smooth="yes"/>
      <point x="256" y="-151"/>
      <point x="387" y="-282"/>
      <point x="480" y="-282" type="qcurve" smooth="yes"/>
      <point x="800" y="-282" type="line" smooth="yes"/>
      <point x="840" y="-282"/>
      <point x="896" y="-226"/>
      <point x="896" y="-146"/>
      <point x="840" y="-90"/>
      <point x="800" y="-90" type="qcurve" smooth="yes"/>
      <point x="480" y="-90" type="line" smooth="yes"/>
      <point x="467" y="-90"/>
      <point x="448" y="-71"/>
      <point x="448" y="-58" type="qcurve" smooth="yes"/>
      <point x="448" y="1286" type="line" smooth="yes"/>
      <point x="448" y="1299"/>
      <point x="467" y="1318"/>
      <point x="480" y="1318" type="qcurve" smooth="yes"/>
      <point x="800" y="1318" type="line" smooth="yes"/>
      <point x="840" y="1318"/>
      <point x="896" y="1374"/>
      <point x="896" y="1454"/>
      <point x="840" y="1510"/>
      <point x="800" y="1510" type="qcurve" smooth="yes"/>
      <point x="480" y="1510" type="line" smooth="yes"/>
      <point x="387" y="1510"/>
      <point x="256" y="1379"/>
      <point x="256" y="1286" type="qcurve" smooth="yes"/>
    </contour>
    <contour>
      <point x="864" y="710" type="line" smooth="yes"/>
      <point x="824" y="710"/>
      <point x="768" y="654"/>
      <point x="768" y="574"/>
      <point x="824" y="518"/>
      <point x="864" y="518" type="qcurve" smooth="yes"/>
      <point x="1592" y="518" type="line"/>
      <point x="1340" y="266" type="line" smooth="yes"/>
      <point x="1310" y="237"/>
      <point x="1310" y="196" type="qcurve" smooth="yes"/>
      <point x="1310" y="184"/>
      <point x="1313" y="172" type="qcurve" smooth="yes"/>
      <point x="1321" y="140"/>
      <point x="1372" y="99"/>
      <point x="1406" y="99" type="qcurve" smooth="yes"/>
      <point x="1447" y="99"/>
      <point x="1476" y="130" type="qcurve" smooth="yes"/>
      <point x="1892" y="546" type="line" smooth="yes"/>
      <point x="1920" y="574"/>
      <point x="1920" y="654"/>
      <point x="1892" y="682" type="qcurve" smooth="yes"/>
      <point x="1476" y="1098" type="line" smooth="yes"/>
      <point x="1447" y="1128"/>
      <point x="1406" y="1128" type="qcurve" smooth="yes"/>
      <point x="1394" y="1128"/>
      <point x="1382" y="1125" type="qcurve" smooth="yes"/>
      <point x="1350" y="1117"/>
      <point x="1309" y="1066"/>
      <point x="1309" y="1032" type="qcurve" smooth="yes"/>
      <point x="1309" y="991"/>
      <point x="1340" y="962" type="qcurve" smooth="yes"/>
      <point x="1592" y="710" type="line"/>
    </contour>
  </outline>
</glyph>
<glyph name="rocket" format="2">
  <advance width="2048"/>
  <unicode hex="F427"/>
  <note>
rocket
</note>
  <outline>
    <contour>
      <point x="1572" y="1638"/>
      <point x="1163" y="1465"/>
      <point x="1008" y="1310" type="qcurve" smooth="yes"/>
      <point x="950" y="1251" type="line" smooth="yes"/>
      <point x="889" y="1191"/>
      <point x="834" y="1126" type="qcurve"/>
      <point x="424" y="1126" type="line" smooth="yes"/>
      <point x="364" y="1126"/>
      <point x="263" y="1068"/>
      <point x="233" y="1019" type="qcurve" smooth="yes"/>
      <point x="178" y="931" type="line" smooth="yes"/>
      <point x="123" y="842"/>
      <point x="14" y="664"/>
      <point x="14" y="664" type="qcurve"/>
      <point x="0" y="641"/>
      <point x="0" y="614" type="qcurve" smooth="yes"/>
      <point x="0" y="582"/>
      <point x="38" y="531"/>
      <point x="68" y="522" type="qcurve" smooth="yes"/>
      <point x="465" y="400" type="line"/>
      <point x="472" y="390"/>
      <point x="481" y="382" type="qcurve" smooth="yes"/>
      <point x="791" y="71" type="line" smooth="yes"/>
      <point x="800" y="62"/>
      <point x="810" y="55" type="qcurve"/>
      <point x="932" y="-342" type="line" smooth="yes"/>
      <point x="941" y="-372"/>
      <point x="992" y="-410"/>
      <point x="1024" y="-410" type="qcurve" smooth="yes"/>
      <point x="1051" y="-410"/>
      <point x="1074" y="-396" type="qcurve" smooth="yes"/>
      <point x="1429" y="-177" type="line" smooth="yes"/>
      <point x="1479" y="-147"/>
      <point x="1536" y="-45"/>
      <point x="1536" y="13" type="qcurve" smooth="yes"/>
      <point x="1536" y="424" type="line"/>
      <point x="1601" y="479"/>
      <point x="1661" y="540" type="qcurve" smooth="yes"/>
      <point x="1676" y="554" type="line" smooth="yes"/>
      <point x="1690" y="569"/>
      <point x="1720" y="598"/>
      <point x="1720" y="598" type="qcurve"/>
      <point x="1875" y="753"/>
      <point x="2048" y="1162"/>
      <point x="2048" y="1390" type="qcurve" smooth="yes"/>
      <point x="2048" y="1414" type="line" smooth="yes"/>
      <point x="2048" y="1507"/>
      <point x="1917" y="1638"/>
      <point x="1824" y="1638" type="qcurve" smooth="yes"/>
      <point x="1800" y="1638" type="line" smooth="yes"/>
    </contour>
    <contour>
      <point x="1272" y="1303"/>
      <point x="1611" y="1446"/>
      <point x="1800" y="1446" type="qcurve" smooth="yes"/>
      <point x="1824" y="1446" type="line" smooth="yes"/>
      <point x="1837" y="1446"/>
      <point x="1856" y="1427"/>
      <point x="1856" y="1414" type="qcurve" smooth="yes"/>
      <point x="1856" y="1408" type="line" smooth="yes"/>
      <point x="1856" y="1402"/>
      <point x="1856" y="1390"/>
      <point x="1856" y="1390" type="qcurve"/>
      <point x="1856" y="1201"/>
      <point x="1713" y="862"/>
      <point x="1584" y="734" type="qcurve" smooth="yes"/>
      <point x="1525" y="675" type="line" smooth="yes"/>
      <point x="1379" y="529"/>
      <point x="1206" y="417" type="qcurve" smooth="yes"/>
      <point x="909" y="225" type="line"/>
      <point x="635" y="499" type="line"/>
      <point x="827" y="796" type="line" smooth="yes"/>
      <point x="939" y="969"/>
      <point x="1085" y="1116" type="qcurve" smooth="yes"/>
      <point x="1144" y="1174" type="line" smooth="yes"/>
    </contour>
    <contour>
      <point x="521" y="-168"/>
      <point x="521" y="-81" type="qcurve" smooth="yes"/>
      <point x="521" y="-2"/>
      <point x="408" y="111"/>
      <point x="329" y="111" type="qcurve" smooth="yes"/>
      <point x="242" y="111"/>
      <point x="184" y="46" type="qcurve"/>
      <point x="151" y="13"/>
      <point x="97" y="-92"/>
      <point x="63" y="-210"/>
      <point x="44" y="-297"/>
      <point x="37" y="-339" type="qcurve" smooth="yes"/>
      <point x="37" y="-341"/>
      <point x="37" y="-343" type="qcurve" smooth="yes"/>
      <point x="37" y="-356"/>
      <point x="54" y="-373"/>
      <point x="66" y="-373" type="qcurve" smooth="yes"/>
      <point x="69" y="-373"/>
      <point x="71" y="-373" type="qcurve" smooth="yes"/>
      <point x="113" y="-366"/>
      <point x="200" y="-347"/>
      <point x="317" y="-313"/>
      <point x="423" y="-259"/>
      <point x="456" y="-226" type="qcurve"/>
    </contour>
    <contour>
      <point x="1344" y="14" type="line" smooth="yes"/>
      <point x="1344" y="-4"/>
      <point x="1329" y="-14" type="qcurve" smooth="yes"/>
      <point x="1079" y="-167" type="line"/>
      <point x="1009" y="61" type="line"/>
      <point x="1310" y="256" type="line" smooth="yes"/>
      <point x="1330" y="268"/>
      <point x="1344" y="278" type="qcurve"/>
    </contour>
    <contour>
      <point x="243" y="669" type="line"/>
      <point x="396" y="919" type="line" smooth="yes"/>
      <point x="406" y="934"/>
      <point x="424" y="934" type="qcurve" smooth="yes"/>
      <point x="688" y="934" type="line"/>
      <point x="673" y="911"/>
      <point x="666" y="900" type="qcurve" smooth="yes"/>
      <point x="471" y="599" type="line"/>
    </contour>
    <contour>
      <point x="1461" y="1126"/>
      <point x="1355" y="1126"/>
      <point x="1280" y="1051"/>
      <point x="1280" y="945"/>
      <point x="1355" y="870"/>
      <point x="1461" y="870"/>
      <point x="1536" y="945"/>
      <point x="1536" y="1051"/>
    </contour>
  </outline>
</glyph>
<glyph name="rss" format="2">
  <advance width="2048"/>
  <unicode hex="F428"/>
  <note>
rss
</note>
  <outline>
    <contour>
      <point x="256" y="1287"/>
      <point x="256" y="1282" type="qcurve" smooth="yes"/>
      <point x="256" y="1244"/>
      <point x="308" y="1189"/>
      <point x="346" y="1187" type="qcurve" smooth="yes"/>
      <point x="511" y="1176"/>
      <point x="824" y="1074"/>
      <point x="1092" y="909"/>
      <point x="1319" y="682"/>
      <point x="1484" y="414"/>
      <point x="1586" y="101"/>
      <point x="1597" y="-64" type="qcurve" smooth="yes"/>
      <point x="1600" y="-102"/>
      <point x="1655" y="-154"/>
      <point x="1693" y="-154" type="qcurve" smooth="yes"/>
      <point x="1733" y="-154"/>
      <point x="1789" y="-98"/>
      <point x="1789" y="-58" type="qcurve" smooth="yes"/>
      <point x="1789" y="-55"/>
      <point x="1789" y="-52" type="qcurve" smooth="yes"/>
      <point x="1776" y="137"/>
      <point x="1660" y="496"/>
      <point x="1472" y="802"/>
      <point x="1212" y="1062"/>
      <point x="906" y="1250"/>
      <point x="547" y="1366"/>
      <point x="358" y="1379" type="qcurve" smooth="yes"/>
      <point x="356" y="1379"/>
      <point x="352" y="1379" type="qcurve" smooth="yes"/>
      <point x="314" y="1379"/>
      <point x="259" y="1327"/>
      <point x="256" y="1289" type="qcurve" smooth="yes"/>
    </contour>
    <contour>
      <point x="359" y="736"/>
      <point x="354" y="736" type="qcurve" smooth="yes"/>
      <point x="314" y="736"/>
      <point x="258" y="680"/>
      <point x="258" y="640" type="qcurve" smooth="yes"/>
      <point x="258" y="604"/>
      <point x="305" y="550"/>
      <point x="341" y="545" type="qcurve" smooth="yes"/>
      <point x="499" y="526"/>
      <point x="766" y="356"/>
      <point x="936" y="89"/>
      <point x="955" y="-69" type="qcurve" smooth="yes"/>
      <point x="959" y="-105"/>
      <point x="1014" y="-154"/>
      <point x="1050" y="-154" type="qcurve" smooth="yes"/>
      <point x="1090" y="-154"/>
      <point x="1146" y="-98"/>
      <point x="1146" y="-58" type="qcurve" smooth="yes"/>
      <point x="1146" y="-52"/>
      <point x="1146" y="-47" type="qcurve"/>
      <point x="1127" y="104"/>
      <point x="992" y="377"/>
      <point x="787" y="582"/>
      <point x="514" y="717"/>
      <point x="363" y="736" type="qcurve" smooth="yes"/>
      <point x="364" y="736" type="line" smooth="yes"/>
    </contour>
    <contour>
      <point x="331" y="-154"/>
      <point x="437" y="-154"/>
      <point x="512" y="-79"/>
      <point x="512" y="27"/>
      <point x="437" y="102"/>
      <point x="331" y="102"/>
      <point x="256" y="27"/>
      <point x="256" y="-79"/>
    </contour>
  </outline>
</glyph>
<glyph name="paste" format="2">
  <advance width="2048"/>
  <unicode hex="F429"/>
  <note>
paste
</note>
  <outline>
    <contour>
      <point x="486" y="1198"/>
      <point x="512" y="1243"/>
      <point x="512" y="1269" type="qcurve" smooth="yes"/>
      <point x="512" y="1309"/>
      <point x="456" y="1365"/>
      <point x="416" y="1365" type="qcurve" smooth="yes"/>
      <point x="390" y="1365"/>
      <point x="368" y="1352" type="qcurve" smooth="yes"/>
      <point x="316" y="1322"/>
      <point x="256" y="1218"/>
      <point x="256" y="1158" type="qcurve" smooth="yes"/>
      <point x="256" y="-58" type="line" smooth="yes"/>
      <point x="256" y="-151"/>
      <point x="387" y="-282"/>
      <point x="480" y="-282" type="qcurve" smooth="yes"/>
      <point x="1568" y="-282" type="line" smooth="yes"/>
      <point x="1661" y="-282"/>
      <point x="1792" y="-151"/>
      <point x="1792" y="-58" type="qcurve" smooth="yes"/>
      <point x="1792" y="1158" type="line" smooth="yes"/>
      <point x="1792" y="1218"/>
      <point x="1732" y="1322"/>
      <point x="1680" y="1352" type="qcurve" smooth="yes"/>
      <point x="1658" y="1365"/>
      <point x="1632" y="1365" type="qcurve" smooth="yes"/>
      <point x="1592" y="1365"/>
      <point x="1536" y="1309"/>
      <point x="1536" y="1269" type="qcurve" smooth="yes"/>
      <point x="1536" y="1243"/>
      <point x="1562" y="1198"/>
      <point x="1584" y="1186" type="qcurve" smooth="yes"/>
      <point x="1600" y="1177"/>
      <point x="1600" y="1158" type="qcurve" smooth="yes"/>
      <point x="1600" y="-58" type="line" smooth="yes"/>
      <point x="1600" y="-71"/>
      <point x="1581" y="-90"/>
      <point x="1568" y="-90" type="qcurve" smooth="yes"/>
      <point x="480" y="-90" type="line" smooth="yes"/>
      <point x="467" y="-90"/>
      <point x="448" y="-71"/>
      <point x="448" y="-58" type="qcurve" smooth="yes"/>
      <point x="448" y="1158" type="line" smooth="yes"/>
      <point x="448" y="1177"/>
      <point x="464" y="1186" type="qcurve" smooth="yes"/>
    </contour>
    <contour>
      <point x="696" y="1510"/>
      <point x="640" y="1454"/>
      <point x="640" y="1414" type="qcurve" smooth="yes"/>
      <point x="640" y="1030" type="line" smooth="yes"/>
      <point x="640" y="990"/>
      <point x="696" y="934"/>
      <point x="736" y="934" type="qcurve" smooth="yes"/>
      <point x="1312" y="934" type="line" smooth="yes"/>
      <point x="1352" y="934"/>
      <point x="1408" y="990"/>
      <point x="1408" y="1030" type="qcurve" smooth="yes"/>
      <point x="1408" y="1414" type="line" smooth="yes"/>
      <point x="1408" y="1454"/>
      <point x="1352" y="1510"/>
      <point x="1312" y="1510" type="qcurve" smooth="yes"/>
      <point x="736" y="1510" type="line" smooth="yes"/>
    </contour>
    <contour>
      <point x="832" y="1318" type="line"/>
      <point x="1216" y="1318" type="line"/>
      <point x="1216" y="1126" type="line"/>
      <point x="832" y="1126" type="line"/>
    </contour>
  </outline>
</glyph>
<glyph name="organization" format="2">
  <advance width="2048"/>
  <unicode hex="F42B"/>
  <note>
organization
</note>
  <outline>
    <contour>
      <point x="608" y="-410" type="line" smooth="yes"/>
      <point x="648" y="-410"/>
      <point x="704" y="-354"/>
      <point x="704" y="-314" type="qcurve" smooth="yes"/>
      <point x="704" y="-154" type="line"/>
      <point x="832" y="-154" type="line"/>
      <point x="832" y="-314" type="line" smooth="yes"/>
      <point x="832" y="-354"/>
      <point x="888" y="-410"/>
      <point x="928" y="-410" type="qcurve" smooth="yes"/>
      <point x="1312" y="-410" type="line" smooth="yes"/>
      <point x="1331" y="-410"/>
      <point x="1351" y="-407" type="qcurve"/>
      <point x="1363" y="-410"/>
      <point x="1376" y="-410" type="qcurve" smooth="yes"/>
      <point x="1824" y="-410" type="line" smooth="yes"/>
      <point x="1917" y="-410"/>
      <point x="2048" y="-279"/>
      <point x="2048" y="-186" type="qcurve" smooth="yes"/>
      <point x="2048" y="578" type="line" smooth="yes"/>
      <point x="2048" y="634"/>
      <point x="1995" y="733"/>
      <point x="1948" y="764" type="qcurve" smooth="yes"/>
      <point x="1914" y="786" type="line" smooth="yes"/>
      <point x="1881" y="809"/>
      <point x="1813" y="854"/>
      <point x="1813" y="854" type="qcurve"/>
      <point x="1789" y="870"/>
      <point x="1760" y="870" type="qcurve" smooth="yes"/>
      <point x="1720" y="870"/>
      <point x="1664" y="814"/>
      <point x="1664" y="774" type="qcurve" smooth="yes"/>
      <point x="1664" y="723"/>
      <point x="1707" y="694" type="qcurve" smooth="yes"/>
      <point x="1842" y="604" type="line" smooth="yes"/>
      <point x="1856" y="595"/>
      <point x="1856" y="578" type="qcurve" smooth="yes"/>
      <point x="1856" y="-186" type="line" smooth="yes"/>
      <point x="1856" y="-199"/>
      <point x="1837" y="-218"/>
      <point x="1824" y="-218" type="qcurve" smooth="yes"/>
      <point x="1534" y="-218" type="line"/>
      <point x="1536" y="-202"/>
      <point x="1536" y="-186" type="qcurve" smooth="yes"/>
      <point x="1536" y="1414" type="line" smooth="yes"/>
      <point x="1536" y="1507"/>
      <point x="1405" y="1638"/>
      <point x="1312" y="1638" type="qcurve" smooth="yes"/>
      <point x="224" y="1638" type="line" smooth="yes"/>
      <point x="131" y="1638"/>
      <point x="0" y="1507"/>
      <point x="0" y="1414" type="qcurve" smooth="yes"/>
      <point x="0" y="-186" type="line" smooth="yes"/>
      <point x="0" y="-279"/>
      <point x="131" y="-410"/>
      <point x="224" y="-410" type="qcurve" smooth="yes"/>
    </contour>
    <contour>
      <point x="192" y="1414" type="line" smooth="yes"/>
      <point x="192" y="1427"/>
      <point x="211" y="1446"/>
      <point x="224" y="1446" type="qcurve" smooth="yes"/>
      <point x="1312" y="1446" type="line" smooth="yes"/>
      <point x="1325" y="1446"/>
      <point x="1344" y="1427"/>
      <point x="1344" y="1414" type="qcurve" smooth="yes"/>
      <point x="1344" y="-186" type="line" smooth="yes"/>
      <point x="1344" y="-199"/>
      <point x="1325" y="-218"/>
      <point x="1312" y="-218" type="qcurve" smooth="yes"/>
      <point x="1024" y="-218" type="line"/>
      <point x="1024" y="-58" type="line" smooth="yes"/>
      <point x="1024" y="-18"/>
      <point x="968" y="38"/>
      <point x="928" y="38" type="qcurve" smooth="yes"/>
      <point x="608" y="38" type="line" smooth="yes"/>
      <point x="568" y="38"/>
      <point x="512" y="-18"/>
      <point x="512" y="-58" type="qcurve" smooth="yes"/>
      <point x="512" y="-218" type="line"/>
      <point x="224" y="-218" type="line" smooth="yes"/>
      <point x="211" y="-218"/>
      <point x="192" y="-199"/>
      <point x="192" y="-186" type="qcurve" smooth="yes"/>
    </contour>
    <contour>
      <point x="440" y="870"/>
      <point x="384" y="814"/>
      <point x="384" y="734"/>
      <point x="440" y="678"/>
      <point x="480" y="678" type="qcurve" smooth="yes"/>
      <point x="544" y="678" type="line" smooth="yes"/>
      <point x="584" y="678"/>
      <point x="640" y="734"/>
      <point x="640" y="814"/>
      <point x="584" y="870"/>
      <point x="544" y="870" type="qcurve" smooth="yes"/>
      <point x="480" y="870" type="line" smooth="yes"/>
    </contour>
    <contour>
      <point x="440" y="1062"/>
      <point x="480" y="1062" type="qcurve" smooth="yes"/>
      <point x="544" y="1062" type="line" smooth="yes"/>
      <point x="584" y="1062"/>
      <point x="640" y="1118"/>
      <point x="640" y="1198"/>
      <point x="584" y="1254"/>
      <point x="544" y="1254" type="qcurve" smooth="yes"/>
      <point x="480" y="1254" type="line" smooth="yes"/>
      <point x="440" y="1254"/>
      <point x="384" y="1198"/>
      <point x="384" y="1118"/>
    </contour>
    <contour>
      <point x="952" y="678"/>
      <point x="992" y="678" type="qcurve" smooth="yes"/>
      <point x="1056" y="678" type="line" smooth="yes"/>
      <point x="1096" y="678"/>
      <point x="1152" y="734"/>
      <point x="1152" y="814"/>
      <point x="1096" y="870"/>
      <point x="1056" y="870" type="qcurve" smooth="yes"/>
      <point x="992" y="870" type="line" smooth="yes"/>
      <point x="952" y="870"/>
      <point x="896" y="814"/>
      <point x="896" y="734"/>
    </contour>
    <contour>
      <point x="952" y="1254"/>
      <point x="896" y="1198"/>
      <point x="896" y="1118"/>
      <point x="952" y="1062"/>
      <point x="992" y="1062" type="qcurve" smooth="yes"/>
      <point x="1056" y="1062" type="line" smooth="yes"/>
      <point x="1096" y="1062"/>
      <point x="1152" y="1118"/>
      <point x="1152" y="1198"/>
      <point x="1096" y="1254"/>
      <point x="1056" y="1254" type="qcurve" smooth="yes"/>
      <point x="992" y="1254" type="line" smooth="yes"/>
    </contour>
    <contour>
      <point x="440" y="294"/>
      <point x="480" y="294" type="qcurve" smooth="yes"/>
      <point x="544" y="294" type="line" smooth="yes"/>
      <point x="584" y="294"/>
      <point x="640" y="350"/>
      <point x="640" y="430"/>
      <point x="584" y="486"/>
      <point x="544" y="486" type="qcurve" smooth="yes"/>
      <point x="480" y="486" type="line" smooth="yes"/>
      <point x="440" y="486"/>
      <point x="384" y="430"/>
      <point x="384" y="350"/>
    </contour>
    <contour>
      <point x="952" y="486"/>
      <point x="896" y="430"/>
      <point x="896" y="350"/>
      <point x="952" y="294"/>
      <point x="992" y="294" type="qcurve" smooth="yes"/>
      <point x="1056" y="294" type="line" smooth="yes"/>
      <point x="1096" y="294"/>
      <point x="1152" y="350"/>
      <point x="1152" y="430"/>
      <point x="1096" y="486"/>
      <point x="1056" y="486" type="qcurve" smooth="yes"/>
      <point x="992" y="486" type="line" smooth="yes"/>
    </contour>
  </outline>
</glyph>
<glyph name="device-mobile" format="2">
  <advance width="2048"/>
  <unicode hex="F42C"/>
  <note>
device-mobile
</note>
  <outline>
    <contour>
      <point x="387" y="1638"/>
      <point x="256" y="1507"/>
      <point x="256" y="1414" type="qcurve" smooth="yes"/>
      <point x="256" y="-186" type="line" smooth="yes"/>
      <point x="256" y="-279"/>
      <point x="387" y="-410"/>
      <point x="480" y="-410" type="qcurve" smooth="yes"/>
      <point x="1568" y="-410" type="line" smooth="yes"/>
      <point x="1661" y="-410"/>
      <point x="1792" y="-279"/>
      <point x="1792" y="-186" type="qcurve" smooth="yes"/>
      <point x="1792" y="1414" type="line" smooth="yes"/>
      <point x="1792" y="1507"/>
      <point x="1661" y="1638"/>
      <point x="1568" y="1638" type="qcurve" smooth="yes"/>
      <point x="480" y="1638" type="line" smooth="yes"/>
    </contour>
    <contour>
      <point x="448" y="1427"/>
      <point x="467" y="1446"/>
      <point x="480" y="1446" type="qcurve" smooth="yes"/>
      <point x="1568" y="1446" type="line" smooth="yes"/>
      <point x="1581" y="1446"/>
      <point x="1600" y="1427"/>
      <point x="1600" y="1414" type="qcurve" smooth="yes"/>
      <point x="1600" y="-186" type="line" smooth="yes"/>
      <point x="1600" y="-199"/>
      <point x="1581" y="-218"/>
      <point x="1568" y="-218" type="qcurve" smooth="yes"/>
      <point x="480" y="-218" type="line" smooth="yes"/>
      <point x="467" y="-218"/>
      <point x="448" y="-199"/>
      <point x="448" y="-186" type="qcurve" smooth="yes"/>
      <point x="448" y="1414" type="line" smooth="yes"/>
    </contour>
    <contour>
      <point x="1152" y="49"/>
      <point x="1152" y="155"/>
      <point x="1077" y="230"/>
      <point x="971" y="230"/>
      <point x="896" y="155"/>
      <point x="896" y="49"/>
      <point x="971" y="-26"/>
      <point x="1077" y="-26"/>
    </contour>
  </outline>
</glyph>
<glyph name="unfold" format="2">
  <advance width="2048"/>
  <unicode hex="F42D"/>
  <note>
unfold
</note>
  <outline>
    <contour>
      <point x="1037" y="1561"/>
      <point x="1011" y="1561"/>
      <point x="1001" y="1551" type="qcurve" smooth="yes"/>
      <point x="631" y="1181" type="line" smooth="yes"/>
      <point x="621" y="1171"/>
      <point x="621" y="1145"/>
      <point x="640" y="1126"/>
      <point x="653" y="1126" type="qcurve" smooth="yes"/>
      <point x="928" y="1126" type="line"/>
      <point x="928" y="966" type="line" smooth="yes"/>
      <point x="928" y="926"/>
      <point x="984" y="870"/>
      <point x="1064" y="870"/>
      <point x="1120" y="926"/>
      <point x="1120" y="966" type="qcurve" smooth="yes"/>
      <point x="1120" y="1126" type="line"/>
      <point x="1189" y="1126" type="line" smooth="yes"/>
      <point x="1257" y="1126"/>
      <point x="1395" y="1126"/>
      <point x="1395" y="1126" type="qcurve"/>
      <point x="1408" y="1126"/>
      <point x="1427" y="1145"/>
      <point x="1427" y="1171"/>
      <point x="1417" y="1181" type="qcurve" smooth="yes"/>
      <point x="1047" y="1551" type="line" smooth="yes"/>
    </contour>
    <contour>
      <point x="928" y="102" type="line"/>
      <point x="859" y="102" type="line" smooth="yes"/>
      <point x="791" y="102"/>
      <point x="653" y="102"/>
      <point x="653" y="102" type="qcurve"/>
      <point x="640" y="102"/>
      <point x="621" y="83"/>
      <point x="621" y="57"/>
      <point x="631" y="47" type="qcurve" smooth="yes"/>
      <point x="723" y="-45" type="line" smooth="yes"/>
      <point x="816" y="-138"/>
      <point x="1001" y="-323"/>
      <point x="1001" y="-323" type="qcurve"/>
      <point x="1011" y="-333"/>
      <point x="1037" y="-333"/>
      <point x="1047" y="-323" type="qcurve" smooth="yes"/>
      <point x="1417" y="47" type="line" smooth="yes"/>
      <point x="1427" y="57"/>
      <point x="1427" y="83"/>
      <point x="1408" y="102"/>
      <point x="1395" y="102" type="qcurve" smooth="yes"/>
      <point x="1120" y="102" type="line"/>
      <point x="1120" y="262" type="line" smooth="yes"/>
      <point x="1120" y="302"/>
      <point x="1064" y="358"/>
      <point x="984" y="358"/>
      <point x="928" y="302"/>
      <point x="928" y="262" type="qcurve" smooth="yes"/>
    </contour>
    <contour>
      <point x="328" y="518"/>
      <point x="384" y="574"/>
      <point x="384" y="654"/>
      <point x="328" y="710"/>
      <point x="288" y="710" type="qcurve" smooth="yes"/>
      <point x="224" y="710" type="line" smooth="yes"/>
      <point x="184" y="710"/>
      <point x="128" y="654"/>
      <point x="128" y="574"/>
      <point x="184" y="518"/>
      <point x="224" y="518" type="qcurve" smooth="yes"/>
      <point x="288" y="518" type="line" smooth="yes"/>
    </contour>
    <contour>
      <point x="712" y="710"/>
      <point x="672" y="710" type="qcurve" smooth="yes"/>
      <point x="608" y="710" type="line" smooth="yes"/>
      <point x="568" y="710"/>
      <point x="512" y="654"/>
      <point x="512" y="574"/>
      <point x="568" y="518"/>
      <point x="608" y="518" type="qcurve" smooth="yes"/>
      <point x="672" y="518" type="line" smooth="yes"/>
      <point x="712" y="518"/>
      <point x="768" y="574"/>
      <point x="768" y="654"/>
    </contour>
    <contour>
      <point x="1096" y="518"/>
      <point x="1152" y="574"/>
      <point x="1152" y="654"/>
      <point x="1096" y="710"/>
      <point x="1056" y="710" type="qcurve" smooth="yes"/>
      <point x="992" y="710" type="line" smooth="yes"/>
      <point x="952" y="710"/>
      <point x="896" y="654"/>
      <point x="896" y="574"/>
      <point x="952" y="518"/>
      <point x="992" y="518" type="qcurve" smooth="yes"/>
      <point x="1056" y="518" type="line" smooth="yes"/>
    </contour>
    <contour>
      <point x="1480" y="710"/>
      <point x="1440" y="710" type="qcurve" smooth="yes"/>
      <point x="1376" y="710" type="line" smooth="yes"/>
      <point x="1336" y="710"/>
      <point x="1280" y="654"/>
      <point x="1280" y="574"/>
      <point x="1336" y="518"/>
      <point x="1376" y="518" type="qcurve" smooth="yes"/>
      <point x="1440" y="518" type="line" smooth="yes"/>
      <point x="1480" y="518"/>
      <point x="1536" y="574"/>
      <point x="1536" y="654"/>
    </contour>
    <contour>
      <point x="1864" y="518"/>
      <point x="1920" y="574"/>
      <point x="1920" y="654"/>
      <point x="1864" y="710"/>
      <point x="1824" y="710" type="qcurve" smooth="yes"/>
      <point x="1760" y="710" type="line" smooth="yes"/>
      <point x="1720" y="710"/>
      <point x="1664" y="654"/>
      <point x="1664" y="574"/>
      <point x="1720" y="518"/>
      <point x="1760" y="518" type="qcurve" smooth="yes"/>
      <point x="1824" y="518" type="line" smooth="yes"/>
    </contour>
  </outline>
</glyph>
<glyph name="check" format="2">
  <advance width="2048"/>
  <unicode hex="F42E"/>
  <note>
check
</note>
  <outline>
    <contour>
      <point x="1656" y="1126"/>
      <point x="1628" y="1098" type="qcurve" smooth="yes"/>
      <point x="768" y="238" type="line"/>
      <point x="681" y="325" type="line" smooth="yes"/>
      <point x="594" y="412"/>
      <point x="420" y="586"/>
      <point x="420" y="586" type="qcurve"/>
      <point x="392" y="612"/>
      <point x="354" y="612" type="qcurve" smooth="yes"/>
      <point x="315" y="612"/>
      <point x="258" y="555"/>
      <point x="258" y="516" type="qcurve" smooth="yes"/>
      <point x="258" y="478"/>
      <point x="284" y="450" type="qcurve" smooth="yes"/>
      <point x="388" y="346" type="line" smooth="yes"/>
      <point x="492" y="242"/>
      <point x="700" y="34"/>
      <point x="700" y="34" type="qcurve"/>
      <point x="728" y="6"/>
      <point x="808" y="6"/>
      <point x="836" y="34" type="qcurve" smooth="yes"/>
      <point x="1764" y="962" type="line" smooth="yes"/>
      <point x="1792" y="990"/>
      <point x="1792" y="1070"/>
      <point x="1736" y="1126"/>
    </contour>
  </outline>
</glyph>
<glyph name="mail" format="2">
  <advance width="2048"/>
  <unicode hex="F42F"/>
  <note>
mail
</note>
  <outline>
    <contour>
      <point x="131" y="1382"/>
      <point x="0" y="1251"/>
      <point x="0" y="1158" type="qcurve" smooth="yes"/>
      <point x="0" y="70" type="line" smooth="yes"/>
      <point x="0" y="-23"/>
      <point x="131" y="-154"/>
      <point x="224" y="-154" type="qcurve" smooth="yes"/>
      <point x="1824" y="-154" type="line" smooth="yes"/>
      <point x="1917" y="-154"/>
      <point x="2048" y="-23"/>
      <point x="2048" y="70" type="qcurve" smooth="yes"/>
      <point x="2048" y="1158" type="line" smooth="yes"/>
      <point x="2048" y="1251"/>
      <point x="1917" y="1382"/>
      <point x="1824" y="1382" type="qcurve" smooth="yes"/>
      <point x="224" y="1382" type="line" smooth="yes"/>
    </contour>
    <contour>
      <point x="192" y="894" type="line"/>
      <point x="388" y="780" type="line" smooth="yes"/>
      <point x="584" y="665"/>
      <point x="975" y="435"/>
      <point x="975" y="435" type="qcurve"/>
      <point x="998" y="422"/>
      <point x="1024" y="422" type="qcurve" smooth="yes"/>
      <point x="1050" y="422"/>
      <point x="1073" y="435" type="qcurve" smooth="yes"/>
      <point x="1856" y="894" type="line"/>
      <point x="1856" y="70" type="line" smooth="yes"/>
      <point x="1856" y="57"/>
      <point x="1837" y="38"/>
      <point x="1824" y="38" type="qcurve" smooth="yes"/>
      <point x="224" y="38" type="line" smooth="yes"/>
      <point x="211" y="38"/>
      <point x="192" y="57"/>
      <point x="192" y="70" type="qcurve" smooth="yes"/>
    </contour>
    <contour>
      <point x="1024" y="629" type="line"/>
      <point x="192" y="1117" type="line"/>
      <point x="192" y="1158" type="line" smooth="yes"/>
      <point x="192" y="1171"/>
      <point x="211" y="1190"/>
      <point x="224" y="1190" type="qcurve" smooth="yes"/>
      <point x="1824" y="1190" type="line" smooth="yes"/>
      <point x="1837" y="1190"/>
      <point x="1856" y="1171"/>
      <point x="1856" y="1158" type="qcurve" smooth="yes"/>
      <point x="1856" y="1117" type="line"/>
    </contour>
  </outline>
</glyph>
<glyph name="read" format="2">
  <advance width="2048"/>
  <unicode hex="F430"/>
  <note>
read
</note>
  <outline>
    <contour>
      <point x="111" y="1086" type="line" smooth="yes"/>
      <point x="59" y="1056"/>
      <point x="0" y="952"/>
      <point x="0" y="893" type="qcurve" smooth="yes"/>
      <point x="0" y="70" type="line" smooth="yes"/>
      <point x="0" y="-23"/>
      <point x="131" y="-154"/>
      <point x="224" y="-154" type="qcurve" smooth="yes"/>
      <point x="1824" y="-154" type="line" smooth="yes"/>
      <point x="1917" y="-154"/>
      <point x="2048" y="-23"/>
      <point x="2048" y="70" type="qcurve" smooth="yes"/>
      <point x="2048" y="893" type="line" smooth="yes"/>
      <point x="2048" y="952"/>
      <point x="1989" y="1056"/>
      <point x="1937" y="1086" type="qcurve" smooth="yes"/>
      <point x="1737" y="1203" type="line" smooth="yes"/>
      <point x="1537" y="1320"/>
      <point x="1137" y="1555"/>
      <point x="1137" y="1555" type="qcurve"/>
      <point x="1085" y="1585"/>
      <point x="1024" y="1585" type="qcurve" smooth="yes"/>
      <point x="963" y="1585"/>
      <point x="911" y="1555" type="qcurve" smooth="yes"/>
    </contour>
    <contour>
      <point x="1772" y="960" type="line"/>
      <point x="1634" y="881" type="line" smooth="yes"/>
      <point x="1496" y="802"/>
      <point x="1220" y="645"/>
      <point x="1220" y="645" type="qcurve"/>
      <point x="1132" y="704"/>
      <point x="1024" y="704" type="qcurve" smooth="yes"/>
      <point x="917" y="704"/>
      <point x="828" y="645" type="qcurve"/>
      <point x="276" y="960" type="line"/>
      <point x="459" y="1067" type="line" smooth="yes"/>
      <point x="642" y="1175"/>
      <point x="1008" y="1389"/>
      <point x="1008" y="1389" type="qcurve"/>
      <point x="1015" y="1394"/>
      <point x="1033" y="1394"/>
      <point x="1040" y="1389" type="qcurve"/>
    </contour>
    <contour>
      <point x="365" y="38" type="line"/>
      <point x="505" y="148" type="line" smooth="yes"/>
      <point x="645" y="258"/>
      <point x="925" y="478"/>
      <point x="925" y="478" type="qcurve"/>
      <point x="969" y="512"/>
      <point x="1024" y="512" type="qcurve" smooth="yes"/>
      <point x="1079" y="512"/>
      <point x="1123" y="478" type="qcurve" smooth="yes"/>
      <point x="1683" y="38" type="line"/>
    </contour>
    <contour>
      <point x="1856" y="146" type="line"/>
      <point x="1384" y="517" type="line"/>
      <point x="1856" y="787" type="line"/>
    </contour>
    <contour>
      <point x="192" y="146" type="line"/>
      <point x="192" y="787" type="line"/>
      <point x="664" y="517" type="line"/>
    </contour>
  </outline>
</glyph>
<glyph name="arrow-up" format="2">
  <advance width="2048"/>
  <unicode hex="F431"/>
  <note>
arrow-up
</note>
  <outline>
    <contour>
      <point x="552" y="614"/>
      <point x="580" y="642" type="qcurve" smooth="yes"/>
      <point x="960" y="1022" type="line"/>
      <point x="960" y="70" type="line" smooth="yes"/>
      <point x="960" y="30"/>
      <point x="1016" y="-26"/>
      <point x="1096" y="-26"/>
      <point x="1152" y="30"/>
      <point x="1152" y="70" type="qcurve" smooth="yes"/>
      <point x="1152" y="1022" type="line"/>
      <point x="1247" y="927" type="line" smooth="yes"/>
      <point x="1342" y="832"/>
      <point x="1532" y="642"/>
      <point x="1532" y="642" type="qcurve"/>
      <point x="1560" y="616"/>
      <point x="1598" y="616" type="qcurve" smooth="yes"/>
      <point x="1637" y="616"/>
      <point x="1694" y="673"/>
      <point x="1694" y="712" type="qcurve" smooth="yes"/>
      <point x="1694" y="750"/>
      <point x="1668" y="778" type="qcurve" smooth="yes"/>
      <point x="1532" y="914" type="line" smooth="yes"/>
      <point x="1396" y="1050"/>
      <point x="1124" y="1322"/>
      <point x="1124" y="1322" type="qcurve"/>
      <point x="1096" y="1350"/>
      <point x="1016" y="1350"/>
      <point x="988" y="1322" type="qcurve" smooth="yes"/>
      <point x="444" y="778" type="line" smooth="yes"/>
      <point x="416" y="750"/>
      <point x="416" y="670"/>
      <point x="472" y="614"/>
    </contour>
  </outline>
</glyph>
<glyph name="arrow-right" format="2">
  <advance width="2048"/>
  <unicode hex="F432"/>
  <note>
arrow-right
</note>
  <outline>
    <contour>
      <point x="1024" y="1150"/>
      <point x="1052" y="1122" type="qcurve" smooth="yes"/>
      <point x="1432" y="742" type="line"/>
      <point x="480" y="742" type="line" smooth="yes"/>
      <point x="440" y="742"/>
      <point x="384" y="686"/>
      <point x="384" y="606"/>
      <point x="440" y="550"/>
      <point x="480" y="550" type="qcurve" smooth="yes"/>
      <point x="1432" y="550" type="line"/>
      <point x="1337" y="455" type="line" smooth="yes"/>
      <point x="1242" y="360"/>
      <point x="1052" y="170"/>
      <point x="1052" y="170" type="qcurve"/>
      <point x="1026" y="142"/>
      <point x="1026" y="104" type="qcurve" smooth="yes"/>
      <point x="1026" y="65"/>
      <point x="1083" y="8"/>
      <point x="1122" y="8" type="qcurve" smooth="yes"/>
      <point x="1160" y="8"/>
      <point x="1188" y="34" type="qcurve" smooth="yes"/>
      <point x="1732" y="578" type="line" smooth="yes"/>
      <point x="1760" y="606"/>
      <point x="1760" y="686"/>
      <point x="1732" y="714" type="qcurve" smooth="yes"/>
      <point x="1596" y="850" type="line" smooth="yes"/>
      <point x="1460" y="986"/>
      <point x="1188" y="1258"/>
      <point x="1188" y="1258" type="qcurve"/>
      <point x="1160" y="1286"/>
      <point x="1080" y="1286"/>
      <point x="1024" y="1230"/>
    </contour>
  </outline>
</glyph>
